M48
; DRILL file {KiCad 5.1.7-a382d34a8~88~ubuntu18.04.1} date Fri Jul 15 15:30:28 2022
; FORMAT={-:-/ absolute / metric / decimal}
; #@! TF.CreationDate,2022-07-15T15:30:28-05:00
; #@! TF.GenerationSoftware,Kicad,Pcbnew,5.1.7-a382d34a8~88~ubuntu18.04.1
; #@! TF.FileFunction,Plated,1,2,PTH
FMAT,2
METRIC
T1C0.400
T2C0.800
T3C1.000
%
G90
G05
T1
X24.34Y-56.195
X25.94Y-61.41
X25.94Y-64.65
X26.9Y-56.195
X29.35Y-43.5
X31.6Y-59.02
X34.87Y-62.7
X36.11Y-47.67
X36.66Y-59.02
X37.24Y-46.38
X39.11Y-54.43
X40.31Y-57.84
X40.4Y-48.7
X40.4Y-54.2
X41.24Y-77.46
X43.15Y-65.27
X43.45Y-72.66
T2
X46.5Y-46.5
X46.5Y-48.5
X46.5Y-50.5
X46.5Y-52.5
X46.5Y-54.5
X46.5Y-56.5
X46.5Y-58.5
X46.5Y-60.5
X46.5Y-62.5
X46.5Y-64.5
X46.5Y-66.5
X46.5Y-68.5
X31.02Y-41.49
X33.02Y-41.49
X35.02Y-41.49
X37.02Y-41.49
X21.5Y-46.5
X21.5Y-48.5
X21.5Y-50.5
X21.5Y-52.5
X21.5Y-54.5
X21.5Y-56.5
X21.5Y-58.5
X21.5Y-60.5
X21.5Y-62.5
X21.5Y-64.5
X21.5Y-66.5
X21.5Y-68.5
T3
X34.08Y-60.67
X36.62Y-60.67
X39.16Y-60.67
X41.7Y-60.67
T0
M30
