%TF.GenerationSoftware,KiCad,Pcbnew,5.1.7-a382d34a8~88~ubuntu18.04.1*%
%TF.CreationDate,2022-07-15T15:30:23-05:00*%
%TF.ProjectId,Global_Val_Sen,476c6f62-616c-45f5-9661-6c5f53656e2e,rev?*%
%TF.SameCoordinates,Original*%
%TF.FileFunction,Legend,Top*%
%TF.FilePolarity,Positive*%
%FSLAX46Y46*%
G04 Gerber Fmt 4.6, Leading zero omitted, Abs format (unit mm)*
G04 Created by KiCad (PCBNEW 5.1.7-a382d34a8~88~ubuntu18.04.1) date 2022-07-15 15:30:23*
%MOMM*%
%LPD*%
G01*
G04 APERTURE LIST*
%ADD10C,0.120000*%
%ADD11C,0.200000*%
%ADD12C,0.127000*%
%ADD13C,0.150000*%
%ADD14R,1.600000X1.500000*%
%ADD15R,1.200000X1.200000*%
%ADD16R,1.800000X5.000000*%
%ADD17R,1.060000X0.650000*%
%ADD18R,1.800000X2.500000*%
%ADD19O,1.700000X1.700000*%
%ADD20R,1.700000X1.700000*%
%ADD21R,2.413000X3.302000*%
%ADD22O,1.350000X1.350000*%
%ADD23R,1.350000X1.350000*%
%ADD24C,2.200000*%
%ADD25R,0.650000X1.560000*%
G04 APERTURE END LIST*
D10*
X44390000Y-69332936D02*
X44390000Y-70787064D01*
X42570000Y-69332936D02*
X42570000Y-70787064D01*
X44380000Y-64242936D02*
X44380000Y-65697064D01*
X42560000Y-64242936D02*
X42560000Y-65697064D01*
X31990000Y-72190000D02*
X31590000Y-72190000D01*
X33390000Y-73290000D02*
X33390000Y-76190000D01*
X33390000Y-76190000D02*
X32790000Y-76190000D01*
X30190000Y-73290000D02*
X30190000Y-76190000D01*
X30190000Y-76190000D02*
X30790000Y-76190000D01*
X33590000Y-72390000D02*
X33590000Y-71690000D01*
X33590000Y-71690000D02*
X32890000Y-71690000D01*
X24555000Y-71635000D02*
X24555000Y-75720000D01*
X26425000Y-71635000D02*
X24555000Y-71635000D01*
X26425000Y-75720000D02*
X26425000Y-71635000D01*
D11*
X42120000Y-66920000D02*
G75*
G03*
X42120000Y-66920000I-100000J0D01*
G01*
D12*
X39150000Y-69520000D02*
X37890000Y-69520000D01*
X37890000Y-64320000D02*
X39150000Y-64320000D01*
D10*
X40390000Y-76350000D02*
X42190000Y-76350000D01*
X42190000Y-73130000D02*
X39740000Y-73130000D01*
X36970000Y-74767064D02*
X36970000Y-73312936D01*
X38790000Y-74767064D02*
X38790000Y-73312936D01*
X36340000Y-73302936D02*
X36340000Y-74757064D01*
X34520000Y-73302936D02*
X34520000Y-74757064D01*
X34790000Y-62850000D02*
X31490000Y-62850000D01*
X31490000Y-62850000D02*
X31490000Y-68250000D01*
X34790000Y-62850000D02*
X34790000Y-68250000D01*
X29045000Y-75720000D02*
X29045000Y-71635000D01*
X29045000Y-71635000D02*
X27175000Y-71635000D01*
X27175000Y-71635000D02*
X27175000Y-75720000D01*
X32750000Y-60670000D02*
X32750000Y-59340000D01*
X32750000Y-59340000D02*
X34080000Y-59340000D01*
X35350000Y-59340000D02*
X43030000Y-59340000D01*
X43030000Y-62000000D02*
X43030000Y-59340000D01*
X35350000Y-62000000D02*
X43030000Y-62000000D01*
X35350000Y-62000000D02*
X35350000Y-59340000D01*
D11*
X30380000Y-43840000D02*
G75*
G03*
X30380000Y-43840000I-100000J0D01*
G01*
D12*
X29930000Y-44490000D02*
X33930000Y-44490000D01*
X29930000Y-49590000D02*
X33930000Y-49590000D01*
D10*
X35915000Y-53275000D02*
X35915000Y-56725000D01*
X35915000Y-53275000D02*
X35915000Y-51325000D01*
X41035000Y-53275000D02*
X41035000Y-55225000D01*
X41035000Y-53275000D02*
X41035000Y-51325000D01*
X37680000Y-47317064D02*
X37680000Y-45862936D01*
X39500000Y-47317064D02*
X39500000Y-45862936D01*
X44800000Y-47650000D02*
X41500000Y-47650000D01*
X41500000Y-47650000D02*
X41500000Y-53050000D01*
X44800000Y-47650000D02*
X44800000Y-53050000D01*
X40030000Y-47160000D02*
X43330000Y-47160000D01*
X43330000Y-47160000D02*
X43330000Y-41760000D01*
X40030000Y-47160000D02*
X40030000Y-41760000D01*
X29960000Y-42550000D02*
X29960000Y-41490000D01*
X31020000Y-42550000D02*
X29960000Y-42550000D01*
X32020000Y-42550000D02*
X32020000Y-40430000D01*
X32020000Y-40430000D02*
X38080000Y-40430000D01*
X32020000Y-42550000D02*
X38080000Y-42550000D01*
X38080000Y-42550000D02*
X38080000Y-40430000D01*
X24930000Y-43617064D02*
X24930000Y-42162936D01*
X26750000Y-43617064D02*
X26750000Y-42162936D01*
X33597064Y-52570000D02*
X32142936Y-52570000D01*
X33597064Y-54390000D02*
X32142936Y-54390000D01*
X27160000Y-66932936D02*
X27160000Y-68387064D01*
X28980000Y-66932936D02*
X28980000Y-68387064D01*
X33445000Y-55175000D02*
X29360000Y-55175000D01*
X33445000Y-57045000D02*
X33445000Y-55175000D01*
X29360000Y-57045000D02*
X33445000Y-57045000D01*
D12*
X23445000Y-60900000D02*
X23445000Y-65400000D01*
X26475000Y-60900000D02*
X26475000Y-65400000D01*
D11*
X26435000Y-58710000D02*
G75*
G03*
X26435000Y-58710000I-100000J0D01*
G01*
D10*
X30420000Y-62530000D02*
X30420000Y-60730000D01*
X27200000Y-60730000D02*
X27200000Y-63680000D01*
X27820000Y-50157064D02*
X27820000Y-48702936D01*
X26000000Y-50157064D02*
X26000000Y-48702936D01*
X25425000Y-57255000D02*
X25425000Y-53170000D01*
X23255000Y-57255000D02*
X25425000Y-57255000D01*
X23255000Y-53170000D02*
X23255000Y-57255000D01*
X27985000Y-57255000D02*
X27985000Y-53170000D01*
X25815000Y-57255000D02*
X27985000Y-57255000D01*
X25815000Y-53170000D02*
X25815000Y-57255000D01*
X25285000Y-51020000D02*
X25285000Y-46935000D01*
X25285000Y-46935000D02*
X23415000Y-46935000D01*
X23415000Y-46935000D02*
X23415000Y-51020000D01*
X31370000Y-51995000D02*
X35455000Y-51995000D01*
X35455000Y-51995000D02*
X35455000Y-50125000D01*
X35455000Y-50125000D02*
X31370000Y-50125000D01*
X20440000Y-47500000D02*
X22560000Y-47500000D01*
X20440000Y-47500000D02*
X20440000Y-69560000D01*
X20440000Y-69560000D02*
X22560000Y-69560000D01*
X22560000Y-47500000D02*
X22560000Y-69560000D01*
X22560000Y-45440000D02*
X22560000Y-46500000D01*
X21500000Y-45440000D02*
X22560000Y-45440000D01*
X45440000Y-47500000D02*
X47560000Y-47500000D01*
X45440000Y-47500000D02*
X45440000Y-69560000D01*
X45440000Y-69560000D02*
X47560000Y-69560000D01*
X47560000Y-47500000D02*
X47560000Y-69560000D01*
X47560000Y-45440000D02*
X47560000Y-46500000D01*
X46500000Y-45440000D02*
X47560000Y-45440000D01*
D13*
X45506666Y-72310000D02*
X45173333Y-72543333D01*
X45506666Y-72710000D02*
X44806666Y-72710000D01*
X44806666Y-72443333D01*
X44840000Y-72376666D01*
X44873333Y-72343333D01*
X44940000Y-72310000D01*
X45040000Y-72310000D01*
X45106666Y-72343333D01*
X45140000Y-72376666D01*
X45173333Y-72443333D01*
X45173333Y-72710000D01*
X45040000Y-71710000D02*
X45506666Y-71710000D01*
X45040000Y-72010000D02*
X45406666Y-72010000D01*
X45473333Y-71976666D01*
X45506666Y-71910000D01*
X45506666Y-71810000D01*
X45473333Y-71743333D01*
X45440000Y-71710000D01*
X45040000Y-71376666D02*
X45740000Y-71376666D01*
X45073333Y-71376666D02*
X45040000Y-71310000D01*
X45040000Y-71176666D01*
X45073333Y-71110000D01*
X45106666Y-71076666D01*
X45173333Y-71043333D01*
X45373333Y-71043333D01*
X45440000Y-71076666D01*
X45473333Y-71110000D01*
X45506666Y-71176666D01*
X45506666Y-71310000D01*
X45473333Y-71376666D01*
X44873333Y-70776666D02*
X44840000Y-70743333D01*
X44806666Y-70676666D01*
X44806666Y-70510000D01*
X44840000Y-70443333D01*
X44873333Y-70410000D01*
X44940000Y-70376666D01*
X45006666Y-70376666D01*
X45106666Y-70410000D01*
X45506666Y-70810000D01*
X45506666Y-70376666D01*
X44486666Y-61990000D02*
X44153333Y-62223333D01*
X44486666Y-62390000D02*
X43786666Y-62390000D01*
X43786666Y-62123333D01*
X43820000Y-62056666D01*
X43853333Y-62023333D01*
X43920000Y-61990000D01*
X44020000Y-61990000D01*
X44086666Y-62023333D01*
X44120000Y-62056666D01*
X44153333Y-62123333D01*
X44153333Y-62390000D01*
X44486666Y-61390000D02*
X43786666Y-61390000D01*
X44453333Y-61390000D02*
X44486666Y-61456666D01*
X44486666Y-61590000D01*
X44453333Y-61656666D01*
X44420000Y-61690000D01*
X44353333Y-61723333D01*
X44153333Y-61723333D01*
X44086666Y-61690000D01*
X44053333Y-61656666D01*
X44020000Y-61590000D01*
X44020000Y-61456666D01*
X44053333Y-61390000D01*
X44486666Y-60956666D02*
X44453333Y-61023333D01*
X44420000Y-61056666D01*
X44353333Y-61090000D01*
X44153333Y-61090000D01*
X44086666Y-61056666D01*
X44053333Y-61023333D01*
X44020000Y-60956666D01*
X44020000Y-60856666D01*
X44053333Y-60790000D01*
X44086666Y-60756666D01*
X44153333Y-60723333D01*
X44353333Y-60723333D01*
X44420000Y-60756666D01*
X44453333Y-60790000D01*
X44486666Y-60856666D01*
X44486666Y-60956666D01*
X43853333Y-60456666D02*
X43820000Y-60423333D01*
X43786666Y-60356666D01*
X43786666Y-60190000D01*
X43820000Y-60123333D01*
X43853333Y-60090000D01*
X43920000Y-60056666D01*
X43986666Y-60056666D01*
X44086666Y-60090000D01*
X44486666Y-60490000D01*
X44486666Y-60056666D01*
X32363333Y-77706666D02*
X32130000Y-77373333D01*
X31963333Y-77706666D02*
X31963333Y-77006666D01*
X32230000Y-77006666D01*
X32296666Y-77040000D01*
X32330000Y-77073333D01*
X32363333Y-77140000D01*
X32363333Y-77240000D01*
X32330000Y-77306666D01*
X32296666Y-77340000D01*
X32230000Y-77373333D01*
X31963333Y-77373333D01*
X32563333Y-77006666D02*
X32796666Y-77706666D01*
X33030000Y-77006666D01*
X33630000Y-77706666D02*
X33230000Y-77706666D01*
X33430000Y-77706666D02*
X33430000Y-77006666D01*
X33363333Y-77106666D01*
X33296666Y-77173333D01*
X33230000Y-77206666D01*
X24623333Y-71170000D02*
X24590000Y-71203333D01*
X24490000Y-71236666D01*
X24423333Y-71236666D01*
X24323333Y-71203333D01*
X24256666Y-71136666D01*
X24223333Y-71070000D01*
X24190000Y-70936666D01*
X24190000Y-70836666D01*
X24223333Y-70703333D01*
X24256666Y-70636666D01*
X24323333Y-70570000D01*
X24423333Y-70536666D01*
X24490000Y-70536666D01*
X24590000Y-70570000D01*
X24623333Y-70603333D01*
X24890000Y-71203333D02*
X24956666Y-71236666D01*
X25090000Y-71236666D01*
X25156666Y-71203333D01*
X25190000Y-71136666D01*
X25190000Y-71103333D01*
X25156666Y-71036666D01*
X25090000Y-71003333D01*
X24990000Y-71003333D01*
X24923333Y-70970000D01*
X24890000Y-70903333D01*
X24890000Y-70870000D01*
X24923333Y-70803333D01*
X24990000Y-70770000D01*
X25090000Y-70770000D01*
X25156666Y-70803333D01*
X25790000Y-70770000D02*
X25790000Y-71236666D01*
X25490000Y-70770000D02*
X25490000Y-71136666D01*
X25523333Y-71203333D01*
X25590000Y-71236666D01*
X25690000Y-71236666D01*
X25756666Y-71203333D01*
X25790000Y-71170000D01*
X26090000Y-70603333D02*
X26123333Y-70570000D01*
X26190000Y-70536666D01*
X26356666Y-70536666D01*
X26423333Y-70570000D01*
X26456666Y-70603333D01*
X26490000Y-70670000D01*
X26490000Y-70736666D01*
X26456666Y-70836666D01*
X26056666Y-71236666D01*
X26490000Y-71236666D01*
X35726666Y-63632380D02*
X35393333Y-63632380D01*
X35393333Y-62632380D01*
X35960000Y-63632380D02*
X35960000Y-62965714D01*
X35960000Y-62632380D02*
X35926666Y-62680000D01*
X35960000Y-62727619D01*
X35993333Y-62680000D01*
X35960000Y-62632380D01*
X35960000Y-62727619D01*
X36660000Y-63632380D02*
X36260000Y-63632380D01*
X36460000Y-63632380D02*
X36460000Y-62632380D01*
X36393333Y-62775238D01*
X36326666Y-62870476D01*
X36260000Y-62918095D01*
X39426666Y-76826666D02*
X39426666Y-77393333D01*
X39460000Y-77460000D01*
X39493333Y-77493333D01*
X39560000Y-77526666D01*
X39693333Y-77526666D01*
X39760000Y-77493333D01*
X39793333Y-77460000D01*
X39826666Y-77393333D01*
X39826666Y-76826666D01*
X40126666Y-77493333D02*
X40193333Y-77526666D01*
X40326666Y-77526666D01*
X40393333Y-77493333D01*
X40426666Y-77426666D01*
X40426666Y-77393333D01*
X40393333Y-77326666D01*
X40326666Y-77293333D01*
X40226666Y-77293333D01*
X40160000Y-77260000D01*
X40126666Y-77193333D01*
X40126666Y-77160000D01*
X40160000Y-77093333D01*
X40226666Y-77060000D01*
X40326666Y-77060000D01*
X40393333Y-77093333D01*
X41026666Y-77060000D02*
X41026666Y-77526666D01*
X40726666Y-77060000D02*
X40726666Y-77426666D01*
X40760000Y-77493333D01*
X40826666Y-77526666D01*
X40926666Y-77526666D01*
X40993333Y-77493333D01*
X41026666Y-77460000D01*
X41726666Y-77526666D02*
X41326666Y-77526666D01*
X41526666Y-77526666D02*
X41526666Y-76826666D01*
X41460000Y-76926666D01*
X41393333Y-76993333D01*
X41326666Y-77026666D01*
X37400000Y-71216666D02*
X37166666Y-70883333D01*
X37000000Y-71216666D02*
X37000000Y-70516666D01*
X37266666Y-70516666D01*
X37333333Y-70550000D01*
X37366666Y-70583333D01*
X37400000Y-70650000D01*
X37400000Y-70750000D01*
X37366666Y-70816666D01*
X37333333Y-70850000D01*
X37266666Y-70883333D01*
X37000000Y-70883333D01*
X38000000Y-70750000D02*
X38000000Y-71216666D01*
X37700000Y-70750000D02*
X37700000Y-71116666D01*
X37733333Y-71183333D01*
X37800000Y-71216666D01*
X37900000Y-71216666D01*
X37966666Y-71183333D01*
X38000000Y-71150000D01*
X38333333Y-70750000D02*
X38333333Y-71450000D01*
X38333333Y-70783333D02*
X38400000Y-70750000D01*
X38533333Y-70750000D01*
X38600000Y-70783333D01*
X38633333Y-70816666D01*
X38666666Y-70883333D01*
X38666666Y-71083333D01*
X38633333Y-71150000D01*
X38600000Y-71183333D01*
X38533333Y-71216666D01*
X38400000Y-71216666D01*
X38333333Y-71183333D01*
X39333333Y-71216666D02*
X38933333Y-71216666D01*
X39133333Y-71216666D02*
X39133333Y-70516666D01*
X39066666Y-70616666D01*
X39000000Y-70683333D01*
X38933333Y-70716666D01*
X34730000Y-71216666D02*
X34496666Y-70883333D01*
X34330000Y-71216666D02*
X34330000Y-70516666D01*
X34596666Y-70516666D01*
X34663333Y-70550000D01*
X34696666Y-70583333D01*
X34730000Y-70650000D01*
X34730000Y-70750000D01*
X34696666Y-70816666D01*
X34663333Y-70850000D01*
X34596666Y-70883333D01*
X34330000Y-70883333D01*
X35330000Y-71216666D02*
X35330000Y-70516666D01*
X35330000Y-71183333D02*
X35263333Y-71216666D01*
X35130000Y-71216666D01*
X35063333Y-71183333D01*
X35030000Y-71150000D01*
X34996666Y-71083333D01*
X34996666Y-70883333D01*
X35030000Y-70816666D01*
X35063333Y-70783333D01*
X35130000Y-70750000D01*
X35263333Y-70750000D01*
X35330000Y-70783333D01*
X35763333Y-71216666D02*
X35696666Y-71183333D01*
X35663333Y-71150000D01*
X35630000Y-71083333D01*
X35630000Y-70883333D01*
X35663333Y-70816666D01*
X35696666Y-70783333D01*
X35763333Y-70750000D01*
X35863333Y-70750000D01*
X35930000Y-70783333D01*
X35963333Y-70816666D01*
X35996666Y-70883333D01*
X35996666Y-71083333D01*
X35963333Y-71150000D01*
X35930000Y-71183333D01*
X35863333Y-71216666D01*
X35763333Y-71216666D01*
X36663333Y-71216666D02*
X36263333Y-71216666D01*
X36463333Y-71216666D02*
X36463333Y-70516666D01*
X36396666Y-70616666D01*
X36330000Y-70683333D01*
X36263333Y-70716666D01*
X30946666Y-67316666D02*
X30246666Y-67316666D01*
X30246666Y-67150000D01*
X30280000Y-67050000D01*
X30346666Y-66983333D01*
X30413333Y-66950000D01*
X30546666Y-66916666D01*
X30646666Y-66916666D01*
X30780000Y-66950000D01*
X30846666Y-66983333D01*
X30913333Y-67050000D01*
X30946666Y-67150000D01*
X30946666Y-67316666D01*
X30913333Y-66650000D02*
X30946666Y-66583333D01*
X30946666Y-66450000D01*
X30913333Y-66383333D01*
X30846666Y-66350000D01*
X30813333Y-66350000D01*
X30746666Y-66383333D01*
X30713333Y-66450000D01*
X30713333Y-66550000D01*
X30680000Y-66616666D01*
X30613333Y-66650000D01*
X30580000Y-66650000D01*
X30513333Y-66616666D01*
X30480000Y-66550000D01*
X30480000Y-66450000D01*
X30513333Y-66383333D01*
X30480000Y-65750000D02*
X30946666Y-65750000D01*
X30480000Y-66050000D02*
X30846666Y-66050000D01*
X30913333Y-66016666D01*
X30946666Y-65950000D01*
X30946666Y-65850000D01*
X30913333Y-65783333D01*
X30880000Y-65750000D01*
X30946666Y-65050000D02*
X30946666Y-65450000D01*
X30946666Y-65250000D02*
X30246666Y-65250000D01*
X30346666Y-65316666D01*
X30413333Y-65383333D01*
X30446666Y-65450000D01*
X27323333Y-71170000D02*
X27290000Y-71203333D01*
X27190000Y-71236666D01*
X27123333Y-71236666D01*
X27023333Y-71203333D01*
X26956666Y-71136666D01*
X26923333Y-71070000D01*
X26890000Y-70936666D01*
X26890000Y-70836666D01*
X26923333Y-70703333D01*
X26956666Y-70636666D01*
X27023333Y-70570000D01*
X27123333Y-70536666D01*
X27190000Y-70536666D01*
X27290000Y-70570000D01*
X27323333Y-70603333D01*
X27590000Y-71203333D02*
X27656666Y-71236666D01*
X27790000Y-71236666D01*
X27856666Y-71203333D01*
X27890000Y-71136666D01*
X27890000Y-71103333D01*
X27856666Y-71036666D01*
X27790000Y-71003333D01*
X27690000Y-71003333D01*
X27623333Y-70970000D01*
X27590000Y-70903333D01*
X27590000Y-70870000D01*
X27623333Y-70803333D01*
X27690000Y-70770000D01*
X27790000Y-70770000D01*
X27856666Y-70803333D01*
X28490000Y-70770000D02*
X28490000Y-71236666D01*
X28190000Y-70770000D02*
X28190000Y-71136666D01*
X28223333Y-71203333D01*
X28290000Y-71236666D01*
X28390000Y-71236666D01*
X28456666Y-71203333D01*
X28490000Y-71170000D01*
X29190000Y-71236666D02*
X28790000Y-71236666D01*
X28990000Y-71236666D02*
X28990000Y-70536666D01*
X28923333Y-70636666D01*
X28856666Y-70703333D01*
X28790000Y-70736666D01*
X40803333Y-58473333D02*
X40903333Y-58506666D01*
X41070000Y-58506666D01*
X41136666Y-58473333D01*
X41170000Y-58440000D01*
X41203333Y-58373333D01*
X41203333Y-58306666D01*
X41170000Y-58240000D01*
X41136666Y-58206666D01*
X41070000Y-58173333D01*
X40936666Y-58140000D01*
X40870000Y-58106666D01*
X40836666Y-58073333D01*
X40803333Y-58006666D01*
X40803333Y-57940000D01*
X40836666Y-57873333D01*
X40870000Y-57840000D01*
X40936666Y-57806666D01*
X41103333Y-57806666D01*
X41203333Y-57840000D01*
X41803333Y-58040000D02*
X41803333Y-58506666D01*
X41503333Y-58040000D02*
X41503333Y-58406666D01*
X41536666Y-58473333D01*
X41603333Y-58506666D01*
X41703333Y-58506666D01*
X41770000Y-58473333D01*
X41803333Y-58440000D01*
X42136666Y-58040000D02*
X42136666Y-58740000D01*
X42136666Y-58073333D02*
X42203333Y-58040000D01*
X42336666Y-58040000D01*
X42403333Y-58073333D01*
X42436666Y-58106666D01*
X42470000Y-58173333D01*
X42470000Y-58373333D01*
X42436666Y-58440000D01*
X42403333Y-58473333D01*
X42336666Y-58506666D01*
X42203333Y-58506666D01*
X42136666Y-58473333D01*
X43136666Y-58506666D02*
X42736666Y-58506666D01*
X42936666Y-58506666D02*
X42936666Y-57806666D01*
X42870000Y-57906666D01*
X42803333Y-57973333D01*
X42736666Y-58006666D01*
X28420476Y-43196904D02*
X28420476Y-43844523D01*
X28458571Y-43920714D01*
X28496666Y-43958809D01*
X28572857Y-43996904D01*
X28725238Y-43996904D01*
X28801428Y-43958809D01*
X28839523Y-43920714D01*
X28877619Y-43844523D01*
X28877619Y-43196904D01*
X29220476Y-43273095D02*
X29258571Y-43235000D01*
X29334761Y-43196904D01*
X29525238Y-43196904D01*
X29601428Y-43235000D01*
X29639523Y-43273095D01*
X29677619Y-43349285D01*
X29677619Y-43425476D01*
X29639523Y-43539761D01*
X29182380Y-43996904D01*
X29677619Y-43996904D01*
X36223333Y-49133333D02*
X36156666Y-49100000D01*
X36090000Y-49033333D01*
X35990000Y-48933333D01*
X35923333Y-48900000D01*
X35856666Y-48900000D01*
X35890000Y-49066666D02*
X35823333Y-49033333D01*
X35756666Y-48966666D01*
X35723333Y-48833333D01*
X35723333Y-48600000D01*
X35756666Y-48466666D01*
X35823333Y-48400000D01*
X35890000Y-48366666D01*
X36023333Y-48366666D01*
X36090000Y-48400000D01*
X36156666Y-48466666D01*
X36190000Y-48600000D01*
X36190000Y-48833333D01*
X36156666Y-48966666D01*
X36090000Y-49033333D01*
X36023333Y-49066666D01*
X35890000Y-49066666D01*
X36756666Y-49033333D02*
X36690000Y-49066666D01*
X36556666Y-49066666D01*
X36490000Y-49033333D01*
X36456666Y-48966666D01*
X36456666Y-48700000D01*
X36490000Y-48633333D01*
X36556666Y-48600000D01*
X36690000Y-48600000D01*
X36756666Y-48633333D01*
X36790000Y-48700000D01*
X36790000Y-48766666D01*
X36456666Y-48833333D01*
X37456666Y-49066666D02*
X37056666Y-49066666D01*
X37256666Y-49066666D02*
X37256666Y-48366666D01*
X37190000Y-48466666D01*
X37123333Y-48533333D01*
X37056666Y-48566666D01*
X37086666Y-47323333D02*
X36753333Y-47556666D01*
X37086666Y-47723333D02*
X36386666Y-47723333D01*
X36386666Y-47456666D01*
X36420000Y-47390000D01*
X36453333Y-47356666D01*
X36520000Y-47323333D01*
X36620000Y-47323333D01*
X36686666Y-47356666D01*
X36720000Y-47390000D01*
X36753333Y-47456666D01*
X36753333Y-47723333D01*
X36620000Y-46723333D02*
X37186666Y-46723333D01*
X37253333Y-46756666D01*
X37286666Y-46790000D01*
X37320000Y-46856666D01*
X37320000Y-46956666D01*
X37286666Y-47023333D01*
X37053333Y-46723333D02*
X37086666Y-46790000D01*
X37086666Y-46923333D01*
X37053333Y-46990000D01*
X37020000Y-47023333D01*
X36953333Y-47056666D01*
X36753333Y-47056666D01*
X36686666Y-47023333D01*
X36653333Y-46990000D01*
X36620000Y-46923333D01*
X36620000Y-46790000D01*
X36653333Y-46723333D01*
X37053333Y-46123333D02*
X37086666Y-46190000D01*
X37086666Y-46323333D01*
X37053333Y-46390000D01*
X36986666Y-46423333D01*
X36720000Y-46423333D01*
X36653333Y-46390000D01*
X36620000Y-46323333D01*
X36620000Y-46190000D01*
X36653333Y-46123333D01*
X36720000Y-46090000D01*
X36786666Y-46090000D01*
X36853333Y-46423333D01*
X37086666Y-45423333D02*
X37086666Y-45823333D01*
X37086666Y-45623333D02*
X36386666Y-45623333D01*
X36486666Y-45690000D01*
X36553333Y-45756666D01*
X36586666Y-45823333D01*
X45966666Y-51883333D02*
X45266666Y-51883333D01*
X45266666Y-51716666D01*
X45300000Y-51616666D01*
X45366666Y-51550000D01*
X45433333Y-51516666D01*
X45566666Y-51483333D01*
X45666666Y-51483333D01*
X45800000Y-51516666D01*
X45866666Y-51550000D01*
X45933333Y-51616666D01*
X45966666Y-51716666D01*
X45966666Y-51883333D01*
X45966666Y-51183333D02*
X45266666Y-51183333D01*
X45533333Y-51183333D02*
X45500000Y-51116666D01*
X45500000Y-50983333D01*
X45533333Y-50916666D01*
X45566666Y-50883333D01*
X45633333Y-50850000D01*
X45833333Y-50850000D01*
X45900000Y-50883333D01*
X45933333Y-50916666D01*
X45966666Y-50983333D01*
X45966666Y-51116666D01*
X45933333Y-51183333D01*
X45966666Y-50183333D02*
X45966666Y-50583333D01*
X45966666Y-50383333D02*
X45266666Y-50383333D01*
X45366666Y-50450000D01*
X45433333Y-50516666D01*
X45466666Y-50583333D01*
X39556666Y-42513333D02*
X38856666Y-42513333D01*
X38856666Y-42346666D01*
X38890000Y-42246666D01*
X38956666Y-42180000D01*
X39023333Y-42146666D01*
X39156666Y-42113333D01*
X39256666Y-42113333D01*
X39390000Y-42146666D01*
X39456666Y-42180000D01*
X39523333Y-42246666D01*
X39556666Y-42346666D01*
X39556666Y-42513333D01*
X39556666Y-41513333D02*
X39190000Y-41513333D01*
X39123333Y-41546666D01*
X39090000Y-41613333D01*
X39090000Y-41746666D01*
X39123333Y-41813333D01*
X39523333Y-41513333D02*
X39556666Y-41580000D01*
X39556666Y-41746666D01*
X39523333Y-41813333D01*
X39456666Y-41846666D01*
X39390000Y-41846666D01*
X39323333Y-41813333D01*
X39290000Y-41746666D01*
X39290000Y-41580000D01*
X39256666Y-41513333D01*
X39556666Y-40813333D02*
X39556666Y-41213333D01*
X39556666Y-41013333D02*
X38856666Y-41013333D01*
X38956666Y-41080000D01*
X39023333Y-41146666D01*
X39056666Y-41213333D01*
X32706666Y-39036666D02*
X32706666Y-39536666D01*
X32673333Y-39636666D01*
X32606666Y-39703333D01*
X32506666Y-39736666D01*
X32440000Y-39736666D01*
X33340000Y-39703333D02*
X33273333Y-39736666D01*
X33140000Y-39736666D01*
X33073333Y-39703333D01*
X33040000Y-39670000D01*
X33006666Y-39603333D01*
X33006666Y-39403333D01*
X33040000Y-39336666D01*
X33073333Y-39303333D01*
X33140000Y-39270000D01*
X33273333Y-39270000D01*
X33340000Y-39303333D01*
X33740000Y-39736666D02*
X33673333Y-39703333D01*
X33640000Y-39670000D01*
X33606666Y-39603333D01*
X33606666Y-39403333D01*
X33640000Y-39336666D01*
X33673333Y-39303333D01*
X33740000Y-39270000D01*
X33840000Y-39270000D01*
X33906666Y-39303333D01*
X33940000Y-39336666D01*
X33973333Y-39403333D01*
X33973333Y-39603333D01*
X33940000Y-39670000D01*
X33906666Y-39703333D01*
X33840000Y-39736666D01*
X33740000Y-39736666D01*
X34273333Y-39270000D02*
X34273333Y-39736666D01*
X34273333Y-39336666D02*
X34306666Y-39303333D01*
X34373333Y-39270000D01*
X34473333Y-39270000D01*
X34540000Y-39303333D01*
X34573333Y-39370000D01*
X34573333Y-39736666D01*
X34906666Y-39270000D02*
X34906666Y-39736666D01*
X34906666Y-39336666D02*
X34940000Y-39303333D01*
X35006666Y-39270000D01*
X35106666Y-39270000D01*
X35173333Y-39303333D01*
X35206666Y-39370000D01*
X35206666Y-39736666D01*
X35906666Y-39736666D02*
X35506666Y-39736666D01*
X35706666Y-39736666D02*
X35706666Y-39036666D01*
X35640000Y-39136666D01*
X35573333Y-39203333D01*
X35506666Y-39236666D01*
X27956666Y-41990000D02*
X27623333Y-42223333D01*
X27956666Y-42390000D02*
X27256666Y-42390000D01*
X27256666Y-42123333D01*
X27290000Y-42056666D01*
X27323333Y-42023333D01*
X27390000Y-41990000D01*
X27490000Y-41990000D01*
X27556666Y-42023333D01*
X27590000Y-42056666D01*
X27623333Y-42123333D01*
X27623333Y-42390000D01*
X27490000Y-41690000D02*
X28190000Y-41690000D01*
X27523333Y-41690000D02*
X27490000Y-41623333D01*
X27490000Y-41490000D01*
X27523333Y-41423333D01*
X27556666Y-41390000D01*
X27623333Y-41356666D01*
X27823333Y-41356666D01*
X27890000Y-41390000D01*
X27923333Y-41423333D01*
X27956666Y-41490000D01*
X27956666Y-41623333D01*
X27923333Y-41690000D01*
X27490000Y-40756666D02*
X28056666Y-40756666D01*
X28123333Y-40790000D01*
X28156666Y-40823333D01*
X28190000Y-40890000D01*
X28190000Y-40990000D01*
X28156666Y-41056666D01*
X27923333Y-40756666D02*
X27956666Y-40823333D01*
X27956666Y-40956666D01*
X27923333Y-41023333D01*
X27890000Y-41056666D01*
X27823333Y-41090000D01*
X27623333Y-41090000D01*
X27556666Y-41056666D01*
X27523333Y-41023333D01*
X27490000Y-40956666D01*
X27490000Y-40823333D01*
X27523333Y-40756666D01*
X27956666Y-40056666D02*
X27956666Y-40456666D01*
X27956666Y-40256666D02*
X27256666Y-40256666D01*
X27356666Y-40323333D01*
X27423333Y-40390000D01*
X27456666Y-40456666D01*
X44348809Y-39702380D02*
X44348809Y-38702380D01*
X44348809Y-39178571D02*
X44920238Y-39178571D01*
X44920238Y-39702380D02*
X44920238Y-38702380D01*
X45396428Y-39702380D02*
X45396428Y-39035714D01*
X45396428Y-39226190D02*
X45444047Y-39130952D01*
X45491666Y-39083333D01*
X45586904Y-39035714D01*
X45682142Y-39035714D01*
X45967857Y-39654761D02*
X46063095Y-39702380D01*
X46253571Y-39702380D01*
X46348809Y-39654761D01*
X46396428Y-39559523D01*
X46396428Y-39511904D01*
X46348809Y-39416666D01*
X46253571Y-39369047D01*
X46110714Y-39369047D01*
X46015476Y-39321428D01*
X45967857Y-39226190D01*
X45967857Y-39178571D01*
X46015476Y-39083333D01*
X46110714Y-39035714D01*
X46253571Y-39035714D01*
X46348809Y-39083333D01*
X46777380Y-38797619D02*
X46825000Y-38750000D01*
X46920238Y-38702380D01*
X47158333Y-38702380D01*
X47253571Y-38750000D01*
X47301190Y-38797619D01*
X47348809Y-38892857D01*
X47348809Y-38988095D01*
X47301190Y-39130952D01*
X46729761Y-39702380D01*
X47348809Y-39702380D01*
X20745238Y-39702380D02*
X20745238Y-38702380D01*
X20745238Y-39178571D02*
X21316666Y-39178571D01*
X21316666Y-39702380D02*
X21316666Y-38702380D01*
X21792857Y-39702380D02*
X21792857Y-39035714D01*
X21792857Y-38702380D02*
X21745238Y-38750000D01*
X21792857Y-38797619D01*
X21840476Y-38750000D01*
X21792857Y-38702380D01*
X21792857Y-38797619D01*
X22221428Y-39654761D02*
X22316666Y-39702380D01*
X22507142Y-39702380D01*
X22602380Y-39654761D01*
X22650000Y-39559523D01*
X22650000Y-39511904D01*
X22602380Y-39416666D01*
X22507142Y-39369047D01*
X22364285Y-39369047D01*
X22269047Y-39321428D01*
X22221428Y-39226190D01*
X22221428Y-39178571D01*
X22269047Y-39083333D01*
X22364285Y-39035714D01*
X22507142Y-39035714D01*
X22602380Y-39083333D01*
X23030952Y-38797619D02*
X23078571Y-38750000D01*
X23173809Y-38702380D01*
X23411904Y-38702380D01*
X23507142Y-38750000D01*
X23554761Y-38797619D01*
X23602380Y-38892857D01*
X23602380Y-38988095D01*
X23554761Y-39130952D01*
X22983333Y-39702380D01*
X23602380Y-39702380D01*
X20697619Y-80477380D02*
X20697619Y-79477380D01*
X20697619Y-79953571D02*
X21269047Y-79953571D01*
X21269047Y-80477380D02*
X21269047Y-79477380D01*
X21745238Y-80477380D02*
X21745238Y-79810714D01*
X21745238Y-79477380D02*
X21697619Y-79525000D01*
X21745238Y-79572619D01*
X21792857Y-79525000D01*
X21745238Y-79477380D01*
X21745238Y-79572619D01*
X22650000Y-80477380D02*
X22650000Y-79477380D01*
X22650000Y-80429761D02*
X22554761Y-80477380D01*
X22364285Y-80477380D01*
X22269047Y-80429761D01*
X22221428Y-80382142D01*
X22173809Y-80286904D01*
X22173809Y-80001190D01*
X22221428Y-79905952D01*
X22269047Y-79858333D01*
X22364285Y-79810714D01*
X22554761Y-79810714D01*
X22650000Y-79858333D01*
X23078571Y-79572619D02*
X23126190Y-79525000D01*
X23221428Y-79477380D01*
X23459523Y-79477380D01*
X23554761Y-79525000D01*
X23602380Y-79572619D01*
X23650000Y-79667857D01*
X23650000Y-79763095D01*
X23602380Y-79905952D01*
X23030952Y-80477380D01*
X23650000Y-80477380D01*
X44183333Y-80352380D02*
X44183333Y-79352380D01*
X44183333Y-79828571D02*
X44754761Y-79828571D01*
X44754761Y-80352380D02*
X44754761Y-79352380D01*
X45659523Y-80352380D02*
X45659523Y-79352380D01*
X45659523Y-80304761D02*
X45564285Y-80352380D01*
X45373809Y-80352380D01*
X45278571Y-80304761D01*
X45230952Y-80257142D01*
X45183333Y-80161904D01*
X45183333Y-79876190D01*
X45230952Y-79780952D01*
X45278571Y-79733333D01*
X45373809Y-79685714D01*
X45564285Y-79685714D01*
X45659523Y-79733333D01*
X46564285Y-80352380D02*
X46564285Y-79352380D01*
X46564285Y-80304761D02*
X46469047Y-80352380D01*
X46278571Y-80352380D01*
X46183333Y-80304761D01*
X46135714Y-80257142D01*
X46088095Y-80161904D01*
X46088095Y-79876190D01*
X46135714Y-79780952D01*
X46183333Y-79733333D01*
X46278571Y-79685714D01*
X46469047Y-79685714D01*
X46564285Y-79733333D01*
X46992857Y-79447619D02*
X47040476Y-79400000D01*
X47135714Y-79352380D01*
X47373809Y-79352380D01*
X47469047Y-79400000D01*
X47516666Y-79447619D01*
X47564285Y-79542857D01*
X47564285Y-79638095D01*
X47516666Y-79780952D01*
X46945238Y-80352380D01*
X47564285Y-80352380D01*
X30086666Y-54270000D02*
X29753333Y-54503333D01*
X30086666Y-54670000D02*
X29386666Y-54670000D01*
X29386666Y-54403333D01*
X29420000Y-54336666D01*
X29453333Y-54303333D01*
X29520000Y-54270000D01*
X29620000Y-54270000D01*
X29686666Y-54303333D01*
X29720000Y-54336666D01*
X29753333Y-54403333D01*
X29753333Y-54670000D01*
X30086666Y-53670000D02*
X29386666Y-53670000D01*
X30053333Y-53670000D02*
X30086666Y-53736666D01*
X30086666Y-53870000D01*
X30053333Y-53936666D01*
X30020000Y-53970000D01*
X29953333Y-54003333D01*
X29753333Y-54003333D01*
X29686666Y-53970000D01*
X29653333Y-53936666D01*
X29620000Y-53870000D01*
X29620000Y-53736666D01*
X29653333Y-53670000D01*
X29620000Y-53403333D02*
X30086666Y-53270000D01*
X29753333Y-53136666D01*
X30086666Y-53003333D01*
X29620000Y-52870000D01*
X30086666Y-52236666D02*
X30086666Y-52636666D01*
X30086666Y-52436666D02*
X29386666Y-52436666D01*
X29486666Y-52503333D01*
X29553333Y-52570000D01*
X29586666Y-52636666D01*
X27450000Y-64986666D02*
X27216666Y-64653333D01*
X27050000Y-64986666D02*
X27050000Y-64286666D01*
X27316666Y-64286666D01*
X27383333Y-64320000D01*
X27416666Y-64353333D01*
X27450000Y-64420000D01*
X27450000Y-64520000D01*
X27416666Y-64586666D01*
X27383333Y-64620000D01*
X27316666Y-64653333D01*
X27050000Y-64653333D01*
X28050000Y-64953333D02*
X27983333Y-64986666D01*
X27850000Y-64986666D01*
X27783333Y-64953333D01*
X27750000Y-64920000D01*
X27716666Y-64853333D01*
X27716666Y-64653333D01*
X27750000Y-64586666D01*
X27783333Y-64553333D01*
X27850000Y-64520000D01*
X27983333Y-64520000D01*
X28050000Y-64553333D01*
X28316666Y-64953333D02*
X28383333Y-64986666D01*
X28516666Y-64986666D01*
X28583333Y-64953333D01*
X28616666Y-64886666D01*
X28616666Y-64853333D01*
X28583333Y-64786666D01*
X28516666Y-64753333D01*
X28416666Y-64753333D01*
X28350000Y-64720000D01*
X28316666Y-64653333D01*
X28316666Y-64620000D01*
X28350000Y-64553333D01*
X28416666Y-64520000D01*
X28516666Y-64520000D01*
X28583333Y-64553333D01*
X29283333Y-64986666D02*
X28883333Y-64986666D01*
X29083333Y-64986666D02*
X29083333Y-64286666D01*
X29016666Y-64386666D01*
X28950000Y-64453333D01*
X28883333Y-64486666D01*
X34710000Y-56840000D02*
X34743333Y-56873333D01*
X34776666Y-56973333D01*
X34776666Y-57040000D01*
X34743333Y-57140000D01*
X34676666Y-57206666D01*
X34610000Y-57240000D01*
X34476666Y-57273333D01*
X34376666Y-57273333D01*
X34243333Y-57240000D01*
X34176666Y-57206666D01*
X34110000Y-57140000D01*
X34076666Y-57040000D01*
X34076666Y-56973333D01*
X34110000Y-56873333D01*
X34143333Y-56840000D01*
X34776666Y-56240000D02*
X34076666Y-56240000D01*
X34743333Y-56240000D02*
X34776666Y-56306666D01*
X34776666Y-56440000D01*
X34743333Y-56506666D01*
X34710000Y-56540000D01*
X34643333Y-56573333D01*
X34443333Y-56573333D01*
X34376666Y-56540000D01*
X34343333Y-56506666D01*
X34310000Y-56440000D01*
X34310000Y-56306666D01*
X34343333Y-56240000D01*
X34310000Y-55973333D02*
X34776666Y-55840000D01*
X34443333Y-55706666D01*
X34776666Y-55573333D01*
X34310000Y-55440000D01*
X34776666Y-54806666D02*
X34776666Y-55206666D01*
X34776666Y-55006666D02*
X34076666Y-55006666D01*
X34176666Y-55073333D01*
X34243333Y-55140000D01*
X34276666Y-55206666D01*
X25113333Y-63021666D02*
X25080000Y-63088333D01*
X25013333Y-63155000D01*
X24913333Y-63255000D01*
X24880000Y-63321666D01*
X24880000Y-63388333D01*
X25046666Y-63355000D02*
X25013333Y-63421666D01*
X24946666Y-63488333D01*
X24813333Y-63521666D01*
X24580000Y-63521666D01*
X24446666Y-63488333D01*
X24380000Y-63421666D01*
X24346666Y-63355000D01*
X24346666Y-63221666D01*
X24380000Y-63155000D01*
X24446666Y-63088333D01*
X24580000Y-63055000D01*
X24813333Y-63055000D01*
X24946666Y-63088333D01*
X25013333Y-63155000D01*
X25046666Y-63221666D01*
X25046666Y-63355000D01*
X25046666Y-62388333D02*
X25046666Y-62788333D01*
X25046666Y-62588333D02*
X24346666Y-62588333D01*
X24446666Y-62655000D01*
X24513333Y-62721666D01*
X24546666Y-62788333D01*
X28116666Y-58806666D02*
X28116666Y-58106666D01*
X28850000Y-58740000D02*
X28816666Y-58773333D01*
X28716666Y-58806666D01*
X28650000Y-58806666D01*
X28550000Y-58773333D01*
X28483333Y-58706666D01*
X28450000Y-58640000D01*
X28416666Y-58506666D01*
X28416666Y-58406666D01*
X28450000Y-58273333D01*
X28483333Y-58206666D01*
X28550000Y-58140000D01*
X28650000Y-58106666D01*
X28716666Y-58106666D01*
X28816666Y-58140000D01*
X28850000Y-58173333D01*
X29116666Y-58173333D02*
X29150000Y-58140000D01*
X29216666Y-58106666D01*
X29383333Y-58106666D01*
X29450000Y-58140000D01*
X29483333Y-58173333D01*
X29516666Y-58240000D01*
X29516666Y-58306666D01*
X29483333Y-58406666D01*
X29083333Y-58806666D01*
X29516666Y-58806666D01*
X26046666Y-46596666D02*
X25813333Y-46263333D01*
X25646666Y-46596666D02*
X25646666Y-45896666D01*
X25913333Y-45896666D01*
X25980000Y-45930000D01*
X26013333Y-45963333D01*
X26046666Y-46030000D01*
X26046666Y-46130000D01*
X26013333Y-46196666D01*
X25980000Y-46230000D01*
X25913333Y-46263333D01*
X25646666Y-46263333D01*
X26646666Y-46563333D02*
X26580000Y-46596666D01*
X26446666Y-46596666D01*
X26380000Y-46563333D01*
X26346666Y-46530000D01*
X26313333Y-46463333D01*
X26313333Y-46263333D01*
X26346666Y-46196666D01*
X26380000Y-46163333D01*
X26446666Y-46130000D01*
X26580000Y-46130000D01*
X26646666Y-46163333D01*
X26946666Y-46596666D02*
X26946666Y-45896666D01*
X27246666Y-46596666D02*
X27246666Y-46230000D01*
X27213333Y-46163333D01*
X27146666Y-46130000D01*
X27046666Y-46130000D01*
X26980000Y-46163333D01*
X26946666Y-46196666D01*
X27946666Y-46596666D02*
X27546666Y-46596666D01*
X27746666Y-46596666D02*
X27746666Y-45896666D01*
X27680000Y-45996666D01*
X27613333Y-46063333D01*
X27546666Y-46096666D01*
X23198333Y-58161666D02*
X23198333Y-57461666D01*
X23365000Y-57461666D01*
X23465000Y-57495000D01*
X23531666Y-57561666D01*
X23565000Y-57628333D01*
X23598333Y-57761666D01*
X23598333Y-57861666D01*
X23565000Y-57995000D01*
X23531666Y-58061666D01*
X23465000Y-58128333D01*
X23365000Y-58161666D01*
X23198333Y-58161666D01*
X23865000Y-58128333D02*
X23931666Y-58161666D01*
X24065000Y-58161666D01*
X24131666Y-58128333D01*
X24165000Y-58061666D01*
X24165000Y-58028333D01*
X24131666Y-57961666D01*
X24065000Y-57928333D01*
X23965000Y-57928333D01*
X23898333Y-57895000D01*
X23865000Y-57828333D01*
X23865000Y-57795000D01*
X23898333Y-57728333D01*
X23965000Y-57695000D01*
X24065000Y-57695000D01*
X24131666Y-57728333D01*
X24465000Y-58161666D02*
X24465000Y-57461666D01*
X24465000Y-57728333D02*
X24531666Y-57695000D01*
X24665000Y-57695000D01*
X24731666Y-57728333D01*
X24765000Y-57761666D01*
X24798333Y-57828333D01*
X24798333Y-58028333D01*
X24765000Y-58095000D01*
X24731666Y-58128333D01*
X24665000Y-58161666D01*
X24531666Y-58161666D01*
X24465000Y-58128333D01*
X25465000Y-58161666D02*
X25065000Y-58161666D01*
X25265000Y-58161666D02*
X25265000Y-57461666D01*
X25198333Y-57561666D01*
X25131666Y-57628333D01*
X25065000Y-57661666D01*
X25766666Y-58211666D02*
X25766666Y-57511666D01*
X25933333Y-57511666D01*
X26033333Y-57545000D01*
X26100000Y-57611666D01*
X26133333Y-57678333D01*
X26166666Y-57811666D01*
X26166666Y-57911666D01*
X26133333Y-58045000D01*
X26100000Y-58111666D01*
X26033333Y-58178333D01*
X25933333Y-58211666D01*
X25766666Y-58211666D01*
X26766666Y-58178333D02*
X26700000Y-58211666D01*
X26566666Y-58211666D01*
X26500000Y-58178333D01*
X26466666Y-58145000D01*
X26433333Y-58078333D01*
X26433333Y-57878333D01*
X26466666Y-57811666D01*
X26500000Y-57778333D01*
X26566666Y-57745000D01*
X26700000Y-57745000D01*
X26766666Y-57778333D01*
X27066666Y-58211666D02*
X27066666Y-57511666D01*
X27366666Y-58211666D02*
X27366666Y-57845000D01*
X27333333Y-57778333D01*
X27266666Y-57745000D01*
X27166666Y-57745000D01*
X27100000Y-57778333D01*
X27066666Y-57811666D01*
X28066666Y-58211666D02*
X27666666Y-58211666D01*
X27866666Y-58211666D02*
X27866666Y-57511666D01*
X27800000Y-57611666D01*
X27733333Y-57678333D01*
X27666666Y-57711666D01*
X23490000Y-46480000D02*
X23456666Y-46513333D01*
X23356666Y-46546666D01*
X23290000Y-46546666D01*
X23190000Y-46513333D01*
X23123333Y-46446666D01*
X23090000Y-46380000D01*
X23056666Y-46246666D01*
X23056666Y-46146666D01*
X23090000Y-46013333D01*
X23123333Y-45946666D01*
X23190000Y-45880000D01*
X23290000Y-45846666D01*
X23356666Y-45846666D01*
X23456666Y-45880000D01*
X23490000Y-45913333D01*
X23790000Y-46546666D02*
X23790000Y-46080000D01*
X23790000Y-45846666D02*
X23756666Y-45880000D01*
X23790000Y-45913333D01*
X23823333Y-45880000D01*
X23790000Y-45846666D01*
X23790000Y-45913333D01*
X24123333Y-46080000D02*
X24123333Y-46546666D01*
X24123333Y-46146666D02*
X24156666Y-46113333D01*
X24223333Y-46080000D01*
X24323333Y-46080000D01*
X24390000Y-46113333D01*
X24423333Y-46180000D01*
X24423333Y-46546666D01*
X25123333Y-46546666D02*
X24723333Y-46546666D01*
X24923333Y-46546666D02*
X24923333Y-45846666D01*
X24856666Y-45946666D01*
X24790000Y-46013333D01*
X24723333Y-46046666D01*
X30020000Y-51643333D02*
X30053333Y-51676666D01*
X30086666Y-51776666D01*
X30086666Y-51843333D01*
X30053333Y-51943333D01*
X29986666Y-52010000D01*
X29920000Y-52043333D01*
X29786666Y-52076666D01*
X29686666Y-52076666D01*
X29553333Y-52043333D01*
X29486666Y-52010000D01*
X29420000Y-51943333D01*
X29386666Y-51843333D01*
X29386666Y-51776666D01*
X29420000Y-51676666D01*
X29453333Y-51643333D01*
X30086666Y-51343333D02*
X29386666Y-51343333D01*
X29653333Y-51343333D02*
X29620000Y-51276666D01*
X29620000Y-51143333D01*
X29653333Y-51076666D01*
X29686666Y-51043333D01*
X29753333Y-51010000D01*
X29953333Y-51010000D01*
X30020000Y-51043333D01*
X30053333Y-51076666D01*
X30086666Y-51143333D01*
X30086666Y-51276666D01*
X30053333Y-51343333D01*
X29620000Y-50810000D02*
X29620000Y-50543333D01*
X29386666Y-50710000D02*
X29986666Y-50710000D01*
X30053333Y-50676666D01*
X30086666Y-50610000D01*
X30086666Y-50543333D01*
X30086666Y-49943333D02*
X30086666Y-50343333D01*
X30086666Y-50143333D02*
X29386666Y-50143333D01*
X29486666Y-50210000D01*
X29553333Y-50276666D01*
X29586666Y-50343333D01*
X12595238Y-50952380D02*
X12595238Y-51666666D01*
X12547619Y-51809523D01*
X12452380Y-51904761D01*
X12309523Y-51952380D01*
X12214285Y-51952380D01*
X13071428Y-51952380D02*
X13071428Y-50952380D01*
X13309523Y-52047619D02*
X14071428Y-52047619D01*
X14309523Y-51285714D02*
X14309523Y-52285714D01*
X14309523Y-51333333D02*
X14404761Y-51285714D01*
X14595238Y-51285714D01*
X14690476Y-51333333D01*
X14738095Y-51380952D01*
X14785714Y-51476190D01*
X14785714Y-51761904D01*
X14738095Y-51857142D01*
X14690476Y-51904761D01*
X14595238Y-51952380D01*
X14404761Y-51952380D01*
X14309523Y-51904761D01*
X15119047Y-51285714D02*
X15309523Y-51952380D01*
X15500000Y-51476190D01*
X15690476Y-51952380D01*
X15880952Y-51285714D01*
X16261904Y-51952380D02*
X16261904Y-51285714D01*
X16261904Y-51476190D02*
X16309523Y-51380952D01*
X16357142Y-51333333D01*
X16452380Y-51285714D01*
X16547619Y-51285714D01*
X16880952Y-51952380D02*
X16880952Y-51285714D01*
X16880952Y-51380952D02*
X16928571Y-51333333D01*
X17023809Y-51285714D01*
X17166666Y-51285714D01*
X17261904Y-51333333D01*
X17309523Y-51428571D01*
X17309523Y-51952380D01*
X17309523Y-51428571D02*
X17357142Y-51333333D01*
X17452380Y-51285714D01*
X17595238Y-51285714D01*
X17690476Y-51333333D01*
X17738095Y-51428571D01*
X17738095Y-51952380D01*
X18738095Y-51952380D02*
X18166666Y-51952380D01*
X18452380Y-51952380D02*
X18452380Y-50952380D01*
X18357142Y-51095238D01*
X18261904Y-51190476D01*
X18166666Y-51238095D01*
X49013333Y-45882380D02*
X49013333Y-46596666D01*
X48965714Y-46739523D01*
X48870476Y-46834761D01*
X48727619Y-46882380D01*
X48632380Y-46882380D01*
X49489523Y-46882380D02*
X49489523Y-45882380D01*
X49727619Y-45882380D01*
X49870476Y-45930000D01*
X49965714Y-46025238D01*
X50013333Y-46120476D01*
X50060952Y-46310952D01*
X50060952Y-46453809D01*
X50013333Y-46644285D01*
X49965714Y-46739523D01*
X49870476Y-46834761D01*
X49727619Y-46882380D01*
X49489523Y-46882380D01*
X50251428Y-46977619D02*
X51013333Y-46977619D01*
X51251428Y-46215714D02*
X51251428Y-47215714D01*
X51251428Y-46263333D02*
X51346666Y-46215714D01*
X51537142Y-46215714D01*
X51632380Y-46263333D01*
X51679999Y-46310952D01*
X51727619Y-46406190D01*
X51727619Y-46691904D01*
X51679999Y-46787142D01*
X51632380Y-46834761D01*
X51537142Y-46882380D01*
X51346666Y-46882380D01*
X51251428Y-46834761D01*
X52060952Y-46215714D02*
X52251428Y-46882380D01*
X52441904Y-46406190D01*
X52632380Y-46882380D01*
X52822857Y-46215714D01*
X53203809Y-46882380D02*
X53203809Y-46215714D01*
X53203809Y-46406190D02*
X53251428Y-46310952D01*
X53299047Y-46263333D01*
X53394285Y-46215714D01*
X53489523Y-46215714D01*
X53822857Y-46882380D02*
X53822857Y-46215714D01*
X53822857Y-46310952D02*
X53870476Y-46263333D01*
X53965714Y-46215714D01*
X54108571Y-46215714D01*
X54203809Y-46263333D01*
X54251428Y-46358571D01*
X54251428Y-46882380D01*
X54251428Y-46358571D02*
X54299047Y-46263333D01*
X54394285Y-46215714D01*
X54537142Y-46215714D01*
X54632380Y-46263333D01*
X54680000Y-46358571D01*
X54680000Y-46882380D01*
X55680000Y-46882380D02*
X55108571Y-46882380D01*
X55394285Y-46882380D02*
X55394285Y-45882380D01*
X55299047Y-46025238D01*
X55203809Y-46120476D01*
X55108571Y-46168095D01*
%LPC*%
G36*
G01*
X42855000Y-70960000D02*
X44105000Y-70960000D01*
G75*
G02*
X44355000Y-71210000I0J-250000D01*
G01*
X44355000Y-72010000D01*
G75*
G02*
X44105000Y-72260000I-250000J0D01*
G01*
X42855000Y-72260000D01*
G75*
G02*
X42605000Y-72010000I0J250000D01*
G01*
X42605000Y-71210000D01*
G75*
G02*
X42855000Y-70960000I250000J0D01*
G01*
G37*
G36*
G01*
X42855000Y-67860000D02*
X44105000Y-67860000D01*
G75*
G02*
X44355000Y-68110000I0J-250000D01*
G01*
X44355000Y-68910000D01*
G75*
G02*
X44105000Y-69160000I-250000J0D01*
G01*
X42855000Y-69160000D01*
G75*
G02*
X42605000Y-68910000I0J250000D01*
G01*
X42605000Y-68110000D01*
G75*
G02*
X42855000Y-67860000I250000J0D01*
G01*
G37*
G36*
G01*
X42845000Y-65870000D02*
X44095000Y-65870000D01*
G75*
G02*
X44345000Y-66120000I0J-250000D01*
G01*
X44345000Y-66920000D01*
G75*
G02*
X44095000Y-67170000I-250000J0D01*
G01*
X42845000Y-67170000D01*
G75*
G02*
X42595000Y-66920000I0J250000D01*
G01*
X42595000Y-66120000D01*
G75*
G02*
X42845000Y-65870000I250000J0D01*
G01*
G37*
G36*
G01*
X42845000Y-62770000D02*
X44095000Y-62770000D01*
G75*
G02*
X44345000Y-63020000I0J-250000D01*
G01*
X44345000Y-63820000D01*
G75*
G02*
X44095000Y-64070000I-250000J0D01*
G01*
X42845000Y-64070000D01*
G75*
G02*
X42595000Y-63820000I0J250000D01*
G01*
X42595000Y-63020000D01*
G75*
G02*
X42845000Y-62770000I250000J0D01*
G01*
G37*
D14*
X31790000Y-75740000D03*
D15*
X30790000Y-72490000D03*
X32790000Y-72490000D03*
G36*
G01*
X25064999Y-74770000D02*
X25915001Y-74770000D01*
G75*
G02*
X26165000Y-75019999I0J-249999D01*
G01*
X26165000Y-76095001D01*
G75*
G02*
X25915001Y-76345000I-249999J0D01*
G01*
X25064999Y-76345000D01*
G75*
G02*
X24815000Y-76095001I0J249999D01*
G01*
X24815000Y-75019999D01*
G75*
G02*
X25064999Y-74770000I249999J0D01*
G01*
G37*
G36*
G01*
X25064999Y-71895000D02*
X25915001Y-71895000D01*
G75*
G02*
X26165000Y-72144999I0J-249999D01*
G01*
X26165000Y-73220001D01*
G75*
G02*
X25915001Y-73470000I-249999J0D01*
G01*
X25064999Y-73470000D01*
G75*
G02*
X24815000Y-73220001I0J249999D01*
G01*
X24815000Y-72144999D01*
G75*
G02*
X25064999Y-71895000I249999J0D01*
G01*
G37*
D16*
X40370000Y-66920000D03*
X36670000Y-66920000D03*
D17*
X42390000Y-74740000D03*
X42390000Y-73790000D03*
X42390000Y-75690000D03*
X40190000Y-75690000D03*
X40190000Y-74740000D03*
X40190000Y-73790000D03*
G36*
G01*
X38505000Y-73140000D02*
X37255000Y-73140000D01*
G75*
G02*
X37005000Y-72890000I0J250000D01*
G01*
X37005000Y-72090000D01*
G75*
G02*
X37255000Y-71840000I250000J0D01*
G01*
X38505000Y-71840000D01*
G75*
G02*
X38755000Y-72090000I0J-250000D01*
G01*
X38755000Y-72890000D01*
G75*
G02*
X38505000Y-73140000I-250000J0D01*
G01*
G37*
G36*
G01*
X38505000Y-76240000D02*
X37255000Y-76240000D01*
G75*
G02*
X37005000Y-75990000I0J250000D01*
G01*
X37005000Y-75190000D01*
G75*
G02*
X37255000Y-74940000I250000J0D01*
G01*
X38505000Y-74940000D01*
G75*
G02*
X38755000Y-75190000I0J-250000D01*
G01*
X38755000Y-75990000D01*
G75*
G02*
X38505000Y-76240000I-250000J0D01*
G01*
G37*
G36*
G01*
X34805000Y-74930000D02*
X36055000Y-74930000D01*
G75*
G02*
X36305000Y-75180000I0J-250000D01*
G01*
X36305000Y-75980000D01*
G75*
G02*
X36055000Y-76230000I-250000J0D01*
G01*
X34805000Y-76230000D01*
G75*
G02*
X34555000Y-75980000I0J250000D01*
G01*
X34555000Y-75180000D01*
G75*
G02*
X34805000Y-74930000I250000J0D01*
G01*
G37*
G36*
G01*
X34805000Y-71830000D02*
X36055000Y-71830000D01*
G75*
G02*
X36305000Y-72080000I0J-250000D01*
G01*
X36305000Y-72880000D01*
G75*
G02*
X36055000Y-73130000I-250000J0D01*
G01*
X34805000Y-73130000D01*
G75*
G02*
X34555000Y-72880000I0J250000D01*
G01*
X34555000Y-72080000D01*
G75*
G02*
X34805000Y-71830000I250000J0D01*
G01*
G37*
D18*
X33140000Y-68250000D03*
X33140000Y-64250000D03*
G36*
G01*
X27684999Y-74770000D02*
X28535001Y-74770000D01*
G75*
G02*
X28785000Y-75019999I0J-249999D01*
G01*
X28785000Y-76095001D01*
G75*
G02*
X28535001Y-76345000I-249999J0D01*
G01*
X27684999Y-76345000D01*
G75*
G02*
X27435000Y-76095001I0J249999D01*
G01*
X27435000Y-75019999D01*
G75*
G02*
X27684999Y-74770000I249999J0D01*
G01*
G37*
G36*
G01*
X27684999Y-71895000D02*
X28535001Y-71895000D01*
G75*
G02*
X28785000Y-72144999I0J-249999D01*
G01*
X28785000Y-73220001D01*
G75*
G02*
X28535001Y-73470000I-249999J0D01*
G01*
X27684999Y-73470000D01*
G75*
G02*
X27435000Y-73220001I0J249999D01*
G01*
X27435000Y-72144999D01*
G75*
G02*
X27684999Y-71895000I249999J0D01*
G01*
G37*
D19*
X41700000Y-60670000D03*
X39160000Y-60670000D03*
X36620000Y-60670000D03*
D20*
X34080000Y-60670000D03*
G36*
G01*
X28470000Y-45393000D02*
X28470000Y-44877000D01*
G75*
G02*
X28512000Y-44835000I42000J0D01*
G01*
X30398000Y-44835000D01*
G75*
G02*
X30440000Y-44877000I0J-42000D01*
G01*
X30440000Y-45393000D01*
G75*
G02*
X30398000Y-45435000I-42000J0D01*
G01*
X28512000Y-45435000D01*
G75*
G02*
X28470000Y-45393000I0J42000D01*
G01*
G37*
G36*
G01*
X28470000Y-46663000D02*
X28470000Y-46147000D01*
G75*
G02*
X28512000Y-46105000I42000J0D01*
G01*
X30398000Y-46105000D01*
G75*
G02*
X30440000Y-46147000I0J-42000D01*
G01*
X30440000Y-46663000D01*
G75*
G02*
X30398000Y-46705000I-42000J0D01*
G01*
X28512000Y-46705000D01*
G75*
G02*
X28470000Y-46663000I0J42000D01*
G01*
G37*
G36*
G01*
X28470000Y-47933000D02*
X28470000Y-47417000D01*
G75*
G02*
X28512000Y-47375000I42000J0D01*
G01*
X30398000Y-47375000D01*
G75*
G02*
X30440000Y-47417000I0J-42000D01*
G01*
X30440000Y-47933000D01*
G75*
G02*
X30398000Y-47975000I-42000J0D01*
G01*
X28512000Y-47975000D01*
G75*
G02*
X28470000Y-47933000I0J42000D01*
G01*
G37*
G36*
G01*
X28470000Y-49203000D02*
X28470000Y-48687000D01*
G75*
G02*
X28512000Y-48645000I42000J0D01*
G01*
X30398000Y-48645000D01*
G75*
G02*
X30440000Y-48687000I0J-42000D01*
G01*
X30440000Y-49203000D01*
G75*
G02*
X30398000Y-49245000I-42000J0D01*
G01*
X28512000Y-49245000D01*
G75*
G02*
X28470000Y-49203000I0J42000D01*
G01*
G37*
G36*
G01*
X33420000Y-49203000D02*
X33420000Y-48687000D01*
G75*
G02*
X33462000Y-48645000I42000J0D01*
G01*
X35348000Y-48645000D01*
G75*
G02*
X35390000Y-48687000I0J-42000D01*
G01*
X35390000Y-49203000D01*
G75*
G02*
X35348000Y-49245000I-42000J0D01*
G01*
X33462000Y-49245000D01*
G75*
G02*
X33420000Y-49203000I0J42000D01*
G01*
G37*
G36*
G01*
X33420000Y-47933000D02*
X33420000Y-47417000D01*
G75*
G02*
X33462000Y-47375000I42000J0D01*
G01*
X35348000Y-47375000D01*
G75*
G02*
X35390000Y-47417000I0J-42000D01*
G01*
X35390000Y-47933000D01*
G75*
G02*
X35348000Y-47975000I-42000J0D01*
G01*
X33462000Y-47975000D01*
G75*
G02*
X33420000Y-47933000I0J42000D01*
G01*
G37*
G36*
G01*
X33420000Y-46663000D02*
X33420000Y-46147000D01*
G75*
G02*
X33462000Y-46105000I42000J0D01*
G01*
X35348000Y-46105000D01*
G75*
G02*
X35390000Y-46147000I0J-42000D01*
G01*
X35390000Y-46663000D01*
G75*
G02*
X35348000Y-46705000I-42000J0D01*
G01*
X33462000Y-46705000D01*
G75*
G02*
X33420000Y-46663000I0J42000D01*
G01*
G37*
G36*
G01*
X33420000Y-45393000D02*
X33420000Y-44877000D01*
G75*
G02*
X33462000Y-44835000I42000J0D01*
G01*
X35348000Y-44835000D01*
G75*
G02*
X35390000Y-44877000I0J-42000D01*
G01*
X35390000Y-45393000D01*
G75*
G02*
X35348000Y-45435000I-42000J0D01*
G01*
X33462000Y-45435000D01*
G75*
G02*
X33420000Y-45393000I0J42000D01*
G01*
G37*
D21*
X31930000Y-47040000D03*
G36*
G01*
X36720000Y-51575000D02*
X36420000Y-51575000D01*
G75*
G02*
X36270000Y-51425000I0J150000D01*
G01*
X36270000Y-49975000D01*
G75*
G02*
X36420000Y-49825000I150000J0D01*
G01*
X36720000Y-49825000D01*
G75*
G02*
X36870000Y-49975000I0J-150000D01*
G01*
X36870000Y-51425000D01*
G75*
G02*
X36720000Y-51575000I-150000J0D01*
G01*
G37*
G36*
G01*
X37990000Y-51575000D02*
X37690000Y-51575000D01*
G75*
G02*
X37540000Y-51425000I0J150000D01*
G01*
X37540000Y-49975000D01*
G75*
G02*
X37690000Y-49825000I150000J0D01*
G01*
X37990000Y-49825000D01*
G75*
G02*
X38140000Y-49975000I0J-150000D01*
G01*
X38140000Y-51425000D01*
G75*
G02*
X37990000Y-51575000I-150000J0D01*
G01*
G37*
G36*
G01*
X39260000Y-51575000D02*
X38960000Y-51575000D01*
G75*
G02*
X38810000Y-51425000I0J150000D01*
G01*
X38810000Y-49975000D01*
G75*
G02*
X38960000Y-49825000I150000J0D01*
G01*
X39260000Y-49825000D01*
G75*
G02*
X39410000Y-49975000I0J-150000D01*
G01*
X39410000Y-51425000D01*
G75*
G02*
X39260000Y-51575000I-150000J0D01*
G01*
G37*
G36*
G01*
X40530000Y-51575000D02*
X40230000Y-51575000D01*
G75*
G02*
X40080000Y-51425000I0J150000D01*
G01*
X40080000Y-49975000D01*
G75*
G02*
X40230000Y-49825000I150000J0D01*
G01*
X40530000Y-49825000D01*
G75*
G02*
X40680000Y-49975000I0J-150000D01*
G01*
X40680000Y-51425000D01*
G75*
G02*
X40530000Y-51575000I-150000J0D01*
G01*
G37*
G36*
G01*
X40530000Y-56725000D02*
X40230000Y-56725000D01*
G75*
G02*
X40080000Y-56575000I0J150000D01*
G01*
X40080000Y-55125000D01*
G75*
G02*
X40230000Y-54975000I150000J0D01*
G01*
X40530000Y-54975000D01*
G75*
G02*
X40680000Y-55125000I0J-150000D01*
G01*
X40680000Y-56575000D01*
G75*
G02*
X40530000Y-56725000I-150000J0D01*
G01*
G37*
G36*
G01*
X39260000Y-56725000D02*
X38960000Y-56725000D01*
G75*
G02*
X38810000Y-56575000I0J150000D01*
G01*
X38810000Y-55125000D01*
G75*
G02*
X38960000Y-54975000I150000J0D01*
G01*
X39260000Y-54975000D01*
G75*
G02*
X39410000Y-55125000I0J-150000D01*
G01*
X39410000Y-56575000D01*
G75*
G02*
X39260000Y-56725000I-150000J0D01*
G01*
G37*
G36*
G01*
X37990000Y-56725000D02*
X37690000Y-56725000D01*
G75*
G02*
X37540000Y-56575000I0J150000D01*
G01*
X37540000Y-55125000D01*
G75*
G02*
X37690000Y-54975000I150000J0D01*
G01*
X37990000Y-54975000D01*
G75*
G02*
X38140000Y-55125000I0J-150000D01*
G01*
X38140000Y-56575000D01*
G75*
G02*
X37990000Y-56725000I-150000J0D01*
G01*
G37*
G36*
G01*
X36720000Y-56725000D02*
X36420000Y-56725000D01*
G75*
G02*
X36270000Y-56575000I0J150000D01*
G01*
X36270000Y-55125000D01*
G75*
G02*
X36420000Y-54975000I150000J0D01*
G01*
X36720000Y-54975000D01*
G75*
G02*
X36870000Y-55125000I0J-150000D01*
G01*
X36870000Y-56575000D01*
G75*
G02*
X36720000Y-56725000I-150000J0D01*
G01*
G37*
G36*
G01*
X39215000Y-45690000D02*
X37965000Y-45690000D01*
G75*
G02*
X37715000Y-45440000I0J250000D01*
G01*
X37715000Y-44640000D01*
G75*
G02*
X37965000Y-44390000I250000J0D01*
G01*
X39215000Y-44390000D01*
G75*
G02*
X39465000Y-44640000I0J-250000D01*
G01*
X39465000Y-45440000D01*
G75*
G02*
X39215000Y-45690000I-250000J0D01*
G01*
G37*
G36*
G01*
X39215000Y-48790000D02*
X37965000Y-48790000D01*
G75*
G02*
X37715000Y-48540000I0J250000D01*
G01*
X37715000Y-47740000D01*
G75*
G02*
X37965000Y-47490000I250000J0D01*
G01*
X39215000Y-47490000D01*
G75*
G02*
X39465000Y-47740000I0J-250000D01*
G01*
X39465000Y-48540000D01*
G75*
G02*
X39215000Y-48790000I-250000J0D01*
G01*
G37*
D18*
X43150000Y-53050000D03*
X43150000Y-49050000D03*
X41680000Y-41760000D03*
X41680000Y-45760000D03*
D22*
X37020000Y-41490000D03*
X35020000Y-41490000D03*
X33020000Y-41490000D03*
D23*
X31020000Y-41490000D03*
G36*
G01*
X26465000Y-45090000D02*
X25215000Y-45090000D01*
G75*
G02*
X24965000Y-44840000I0J250000D01*
G01*
X24965000Y-44040000D01*
G75*
G02*
X25215000Y-43790000I250000J0D01*
G01*
X26465000Y-43790000D01*
G75*
G02*
X26715000Y-44040000I0J-250000D01*
G01*
X26715000Y-44840000D01*
G75*
G02*
X26465000Y-45090000I-250000J0D01*
G01*
G37*
G36*
G01*
X26465000Y-41990000D02*
X25215000Y-41990000D01*
G75*
G02*
X24965000Y-41740000I0J250000D01*
G01*
X24965000Y-40940000D01*
G75*
G02*
X25215000Y-40690000I250000J0D01*
G01*
X26465000Y-40690000D01*
G75*
G02*
X26715000Y-40940000I0J-250000D01*
G01*
X26715000Y-41740000D01*
G75*
G02*
X26465000Y-41990000I-250000J0D01*
G01*
G37*
D24*
X45850000Y-42150000D03*
X22150000Y-42175000D03*
X22150000Y-76850000D03*
X45850000Y-76850000D03*
G36*
G01*
X31970000Y-52855000D02*
X31970000Y-54105000D01*
G75*
G02*
X31720000Y-54355000I-250000J0D01*
G01*
X30920000Y-54355000D01*
G75*
G02*
X30670000Y-54105000I0J250000D01*
G01*
X30670000Y-52855000D01*
G75*
G02*
X30920000Y-52605000I250000J0D01*
G01*
X31720000Y-52605000D01*
G75*
G02*
X31970000Y-52855000I0J-250000D01*
G01*
G37*
G36*
G01*
X35070000Y-52855000D02*
X35070000Y-54105000D01*
G75*
G02*
X34820000Y-54355000I-250000J0D01*
G01*
X34020000Y-54355000D01*
G75*
G02*
X33770000Y-54105000I0J250000D01*
G01*
X33770000Y-52855000D01*
G75*
G02*
X34020000Y-52605000I250000J0D01*
G01*
X34820000Y-52605000D01*
G75*
G02*
X35070000Y-52855000I0J-250000D01*
G01*
G37*
G36*
G01*
X27445000Y-68560000D02*
X28695000Y-68560000D01*
G75*
G02*
X28945000Y-68810000I0J-250000D01*
G01*
X28945000Y-69610000D01*
G75*
G02*
X28695000Y-69860000I-250000J0D01*
G01*
X27445000Y-69860000D01*
G75*
G02*
X27195000Y-69610000I0J250000D01*
G01*
X27195000Y-68810000D01*
G75*
G02*
X27445000Y-68560000I250000J0D01*
G01*
G37*
G36*
G01*
X27445000Y-65460000D02*
X28695000Y-65460000D01*
G75*
G02*
X28945000Y-65710000I0J-250000D01*
G01*
X28945000Y-66510000D01*
G75*
G02*
X28695000Y-66760000I-250000J0D01*
G01*
X27445000Y-66760000D01*
G75*
G02*
X27195000Y-66510000I0J250000D01*
G01*
X27195000Y-65710000D01*
G75*
G02*
X27445000Y-65460000I250000J0D01*
G01*
G37*
G36*
G01*
X30310000Y-55684999D02*
X30310000Y-56535001D01*
G75*
G02*
X30060001Y-56785000I-249999J0D01*
G01*
X28984999Y-56785000D01*
G75*
G02*
X28735000Y-56535001I0J249999D01*
G01*
X28735000Y-55684999D01*
G75*
G02*
X28984999Y-55435000I249999J0D01*
G01*
X30060001Y-55435000D01*
G75*
G02*
X30310000Y-55684999I0J-249999D01*
G01*
G37*
G36*
G01*
X33185000Y-55684999D02*
X33185000Y-56535001D01*
G75*
G02*
X32935001Y-56785000I-249999J0D01*
G01*
X31859999Y-56785000D01*
G75*
G02*
X31610000Y-56535001I0J249999D01*
G01*
X31610000Y-55684999D01*
G75*
G02*
X31859999Y-55435000I249999J0D01*
G01*
X32935001Y-55435000D01*
G75*
G02*
X33185000Y-55684999I0J-249999D01*
G01*
G37*
G36*
G01*
X25755000Y-59490000D02*
X26115000Y-59490000D01*
G75*
G02*
X26135000Y-59510000I0J-20000D01*
G01*
X26135000Y-61030000D01*
G75*
G02*
X26115000Y-61050000I-20000J0D01*
G01*
X25755000Y-61050000D01*
G75*
G02*
X25735000Y-61030000I0J20000D01*
G01*
X25735000Y-59510000D01*
G75*
G02*
X25755000Y-59490000I20000J0D01*
G01*
G37*
G36*
G01*
X25105000Y-59490000D02*
X25465000Y-59490000D01*
G75*
G02*
X25485000Y-59510000I0J-20000D01*
G01*
X25485000Y-61030000D01*
G75*
G02*
X25465000Y-61050000I-20000J0D01*
G01*
X25105000Y-61050000D01*
G75*
G02*
X25085000Y-61030000I0J20000D01*
G01*
X25085000Y-59510000D01*
G75*
G02*
X25105000Y-59490000I20000J0D01*
G01*
G37*
G36*
G01*
X24455000Y-59490000D02*
X24815000Y-59490000D01*
G75*
G02*
X24835000Y-59510000I0J-20000D01*
G01*
X24835000Y-61030000D01*
G75*
G02*
X24815000Y-61050000I-20000J0D01*
G01*
X24455000Y-61050000D01*
G75*
G02*
X24435000Y-61030000I0J20000D01*
G01*
X24435000Y-59510000D01*
G75*
G02*
X24455000Y-59490000I20000J0D01*
G01*
G37*
G36*
G01*
X23805000Y-59490000D02*
X24165000Y-59490000D01*
G75*
G02*
X24185000Y-59510000I0J-20000D01*
G01*
X24185000Y-61030000D01*
G75*
G02*
X24165000Y-61050000I-20000J0D01*
G01*
X23805000Y-61050000D01*
G75*
G02*
X23785000Y-61030000I0J20000D01*
G01*
X23785000Y-59510000D01*
G75*
G02*
X23805000Y-59490000I20000J0D01*
G01*
G37*
G36*
G01*
X23805000Y-65250000D02*
X24165000Y-65250000D01*
G75*
G02*
X24185000Y-65270000I0J-20000D01*
G01*
X24185000Y-66790000D01*
G75*
G02*
X24165000Y-66810000I-20000J0D01*
G01*
X23805000Y-66810000D01*
G75*
G02*
X23785000Y-66790000I0J20000D01*
G01*
X23785000Y-65270000D01*
G75*
G02*
X23805000Y-65250000I20000J0D01*
G01*
G37*
G36*
G01*
X24455000Y-65250000D02*
X24815000Y-65250000D01*
G75*
G02*
X24835000Y-65270000I0J-20000D01*
G01*
X24835000Y-66790000D01*
G75*
G02*
X24815000Y-66810000I-20000J0D01*
G01*
X24455000Y-66810000D01*
G75*
G02*
X24435000Y-66790000I0J20000D01*
G01*
X24435000Y-65270000D01*
G75*
G02*
X24455000Y-65250000I20000J0D01*
G01*
G37*
G36*
G01*
X25105000Y-65250000D02*
X25465000Y-65250000D01*
G75*
G02*
X25485000Y-65270000I0J-20000D01*
G01*
X25485000Y-66790000D01*
G75*
G02*
X25465000Y-66810000I-20000J0D01*
G01*
X25105000Y-66810000D01*
G75*
G02*
X25085000Y-66790000I0J20000D01*
G01*
X25085000Y-65270000D01*
G75*
G02*
X25105000Y-65250000I20000J0D01*
G01*
G37*
G36*
G01*
X25755000Y-65250000D02*
X26115000Y-65250000D01*
G75*
G02*
X26135000Y-65270000I0J-20000D01*
G01*
X26135000Y-66790000D01*
G75*
G02*
X26115000Y-66810000I-20000J0D01*
G01*
X25755000Y-66810000D01*
G75*
G02*
X25735000Y-66790000I0J20000D01*
G01*
X25735000Y-65270000D01*
G75*
G02*
X25755000Y-65250000I20000J0D01*
G01*
G37*
D25*
X28810000Y-60280000D03*
X27860000Y-60280000D03*
X29760000Y-60280000D03*
X29760000Y-62980000D03*
X28810000Y-62980000D03*
X27860000Y-62980000D03*
G36*
G01*
X27535000Y-48530000D02*
X26285000Y-48530000D01*
G75*
G02*
X26035000Y-48280000I0J250000D01*
G01*
X26035000Y-47480000D01*
G75*
G02*
X26285000Y-47230000I250000J0D01*
G01*
X27535000Y-47230000D01*
G75*
G02*
X27785000Y-47480000I0J-250000D01*
G01*
X27785000Y-48280000D01*
G75*
G02*
X27535000Y-48530000I-250000J0D01*
G01*
G37*
G36*
G01*
X27535000Y-51630000D02*
X26285000Y-51630000D01*
G75*
G02*
X26035000Y-51380000I0J250000D01*
G01*
X26035000Y-50580000D01*
G75*
G02*
X26285000Y-50330000I250000J0D01*
G01*
X27535000Y-50330000D01*
G75*
G02*
X27785000Y-50580000I0J-250000D01*
G01*
X27785000Y-51380000D01*
G75*
G02*
X27535000Y-51630000I-250000J0D01*
G01*
G37*
G36*
G01*
X24915000Y-54145000D02*
X23765000Y-54145000D01*
G75*
G02*
X23515000Y-53895000I0J250000D01*
G01*
X23515000Y-52795000D01*
G75*
G02*
X23765000Y-52545000I250000J0D01*
G01*
X24915000Y-52545000D01*
G75*
G02*
X25165000Y-52795000I0J-250000D01*
G01*
X25165000Y-53895000D01*
G75*
G02*
X24915000Y-54145000I-250000J0D01*
G01*
G37*
G36*
G01*
X24915000Y-56995000D02*
X23765000Y-56995000D01*
G75*
G02*
X23515000Y-56745000I0J250000D01*
G01*
X23515000Y-55645000D01*
G75*
G02*
X23765000Y-55395000I250000J0D01*
G01*
X24915000Y-55395000D01*
G75*
G02*
X25165000Y-55645000I0J-250000D01*
G01*
X25165000Y-56745000D01*
G75*
G02*
X24915000Y-56995000I-250000J0D01*
G01*
G37*
G36*
G01*
X27475000Y-54145000D02*
X26325000Y-54145000D01*
G75*
G02*
X26075000Y-53895000I0J250000D01*
G01*
X26075000Y-52795000D01*
G75*
G02*
X26325000Y-52545000I250000J0D01*
G01*
X27475000Y-52545000D01*
G75*
G02*
X27725000Y-52795000I0J-250000D01*
G01*
X27725000Y-53895000D01*
G75*
G02*
X27475000Y-54145000I-250000J0D01*
G01*
G37*
G36*
G01*
X27475000Y-56995000D02*
X26325000Y-56995000D01*
G75*
G02*
X26075000Y-56745000I0J250000D01*
G01*
X26075000Y-55645000D01*
G75*
G02*
X26325000Y-55395000I250000J0D01*
G01*
X27475000Y-55395000D01*
G75*
G02*
X27725000Y-55645000I0J-250000D01*
G01*
X27725000Y-56745000D01*
G75*
G02*
X27475000Y-56995000I-250000J0D01*
G01*
G37*
G36*
G01*
X23924999Y-47195000D02*
X24775001Y-47195000D01*
G75*
G02*
X25025000Y-47444999I0J-249999D01*
G01*
X25025000Y-48520001D01*
G75*
G02*
X24775001Y-48770000I-249999J0D01*
G01*
X23924999Y-48770000D01*
G75*
G02*
X23675000Y-48520001I0J249999D01*
G01*
X23675000Y-47444999D01*
G75*
G02*
X23924999Y-47195000I249999J0D01*
G01*
G37*
G36*
G01*
X23924999Y-50070000D02*
X24775001Y-50070000D01*
G75*
G02*
X25025000Y-50319999I0J-249999D01*
G01*
X25025000Y-51395001D01*
G75*
G02*
X24775001Y-51645000I-249999J0D01*
G01*
X23924999Y-51645000D01*
G75*
G02*
X23675000Y-51395001I0J249999D01*
G01*
X23675000Y-50319999D01*
G75*
G02*
X23924999Y-50070000I249999J0D01*
G01*
G37*
G36*
G01*
X35195000Y-50634999D02*
X35195000Y-51485001D01*
G75*
G02*
X34945001Y-51735000I-249999J0D01*
G01*
X33869999Y-51735000D01*
G75*
G02*
X33620000Y-51485001I0J249999D01*
G01*
X33620000Y-50634999D01*
G75*
G02*
X33869999Y-50385000I249999J0D01*
G01*
X34945001Y-50385000D01*
G75*
G02*
X35195000Y-50634999I0J-249999D01*
G01*
G37*
G36*
G01*
X32320000Y-50634999D02*
X32320000Y-51485001D01*
G75*
G02*
X32070001Y-51735000I-249999J0D01*
G01*
X30994999Y-51735000D01*
G75*
G02*
X30745000Y-51485001I0J249999D01*
G01*
X30745000Y-50634999D01*
G75*
G02*
X30994999Y-50385000I249999J0D01*
G01*
X32070001Y-50385000D01*
G75*
G02*
X32320000Y-50634999I0J-249999D01*
G01*
G37*
D22*
X21500000Y-68500000D03*
X21500000Y-66500000D03*
X21500000Y-64500000D03*
X21500000Y-62500000D03*
X21500000Y-60500000D03*
X21500000Y-58500000D03*
X21500000Y-56500000D03*
X21500000Y-54500000D03*
X21500000Y-52500000D03*
X21500000Y-50500000D03*
X21500000Y-48500000D03*
D23*
X21500000Y-46500000D03*
D22*
X46500000Y-68500000D03*
X46500000Y-66500000D03*
X46500000Y-64500000D03*
X46500000Y-62500000D03*
X46500000Y-60500000D03*
X46500000Y-58500000D03*
X46500000Y-56500000D03*
X46500000Y-54500000D03*
X46500000Y-52500000D03*
X46500000Y-50500000D03*
X46500000Y-48500000D03*
D23*
X46500000Y-46500000D03*
M02*
