%TF.GenerationSoftware,KiCad,Pcbnew,5.1.7-a382d34a8~88~ubuntu18.04.1*%
%TF.CreationDate,2022-07-15T15:30:23-05:00*%
%TF.ProjectId,Global_Val_Sen,476c6f62-616c-45f5-9661-6c5f53656e2e,rev?*%
%TF.SameCoordinates,Original*%
%TF.FileFunction,Copper,L1,Top*%
%TF.FilePolarity,Positive*%
%FSLAX46Y46*%
G04 Gerber Fmt 4.6, Leading zero omitted, Abs format (unit mm)*
G04 Created by KiCad (PCBNEW 5.1.7-a382d34a8~88~ubuntu18.04.1) date 2022-07-15 15:30:23*
%MOMM*%
%LPD*%
G01*
G04 APERTURE LIST*
%TA.AperFunction,SMDPad,CuDef*%
%ADD10R,1.600000X1.500000*%
%TD*%
%TA.AperFunction,SMDPad,CuDef*%
%ADD11R,1.200000X1.200000*%
%TD*%
%TA.AperFunction,SMDPad,CuDef*%
%ADD12R,1.800000X5.000000*%
%TD*%
%TA.AperFunction,SMDPad,CuDef*%
%ADD13R,1.060000X0.650000*%
%TD*%
%TA.AperFunction,SMDPad,CuDef*%
%ADD14R,1.800000X2.500000*%
%TD*%
%TA.AperFunction,ComponentPad*%
%ADD15O,1.700000X1.700000*%
%TD*%
%TA.AperFunction,ComponentPad*%
%ADD16R,1.700000X1.700000*%
%TD*%
%TA.AperFunction,SMDPad,CuDef*%
%ADD17R,2.413000X3.302000*%
%TD*%
%TA.AperFunction,ComponentPad*%
%ADD18O,1.350000X1.350000*%
%TD*%
%TA.AperFunction,ComponentPad*%
%ADD19R,1.350000X1.350000*%
%TD*%
%TA.AperFunction,SMDPad,CuDef*%
%ADD20R,0.650000X1.560000*%
%TD*%
%TA.AperFunction,ViaPad*%
%ADD21C,0.600000*%
%TD*%
%TA.AperFunction,ViaPad*%
%ADD22C,0.800000*%
%TD*%
%TA.AperFunction,ViaPad*%
%ADD23C,1.000000*%
%TD*%
%TA.AperFunction,ViaPad*%
%ADD24C,0.425000*%
%TD*%
%TA.AperFunction,Conductor*%
%ADD25C,0.700000*%
%TD*%
%TA.AperFunction,Conductor*%
%ADD26C,0.600000*%
%TD*%
%TA.AperFunction,Conductor*%
%ADD27C,0.425000*%
%TD*%
%TA.AperFunction,Conductor*%
%ADD28C,0.400000*%
%TD*%
%TA.AperFunction,Conductor*%
%ADD29C,0.450000*%
%TD*%
%TA.AperFunction,Conductor*%
%ADD30C,1.400000*%
%TD*%
%TA.AperFunction,Conductor*%
%ADD31C,1.000000*%
%TD*%
%TA.AperFunction,Conductor*%
%ADD32C,1.100000*%
%TD*%
%TA.AperFunction,Conductor*%
%ADD33C,0.254000*%
%TD*%
%TA.AperFunction,Conductor*%
%ADD34C,0.100000*%
%TD*%
G04 APERTURE END LIST*
%TA.AperFunction,SMDPad,CuDef*%
G36*
G01*
X42855000Y-70960000D02*
X44105000Y-70960000D01*
G75*
G02*
X44355000Y-71210000I0J-250000D01*
G01*
X44355000Y-72010000D01*
G75*
G02*
X44105000Y-72260000I-250000J0D01*
G01*
X42855000Y-72260000D01*
G75*
G02*
X42605000Y-72010000I0J250000D01*
G01*
X42605000Y-71210000D01*
G75*
G02*
X42855000Y-70960000I250000J0D01*
G01*
G37*
%TD.AperFunction*%
%TA.AperFunction,SMDPad,CuDef*%
G36*
G01*
X42855000Y-67860000D02*
X44105000Y-67860000D01*
G75*
G02*
X44355000Y-68110000I0J-250000D01*
G01*
X44355000Y-68910000D01*
G75*
G02*
X44105000Y-69160000I-250000J0D01*
G01*
X42855000Y-69160000D01*
G75*
G02*
X42605000Y-68910000I0J250000D01*
G01*
X42605000Y-68110000D01*
G75*
G02*
X42855000Y-67860000I250000J0D01*
G01*
G37*
%TD.AperFunction*%
%TA.AperFunction,SMDPad,CuDef*%
G36*
G01*
X42845000Y-65870000D02*
X44095000Y-65870000D01*
G75*
G02*
X44345000Y-66120000I0J-250000D01*
G01*
X44345000Y-66920000D01*
G75*
G02*
X44095000Y-67170000I-250000J0D01*
G01*
X42845000Y-67170000D01*
G75*
G02*
X42595000Y-66920000I0J250000D01*
G01*
X42595000Y-66120000D01*
G75*
G02*
X42845000Y-65870000I250000J0D01*
G01*
G37*
%TD.AperFunction*%
%TA.AperFunction,SMDPad,CuDef*%
G36*
G01*
X42845000Y-62770000D02*
X44095000Y-62770000D01*
G75*
G02*
X44345000Y-63020000I0J-250000D01*
G01*
X44345000Y-63820000D01*
G75*
G02*
X44095000Y-64070000I-250000J0D01*
G01*
X42845000Y-64070000D01*
G75*
G02*
X42595000Y-63820000I0J250000D01*
G01*
X42595000Y-63020000D01*
G75*
G02*
X42845000Y-62770000I250000J0D01*
G01*
G37*
%TD.AperFunction*%
D10*
X31790000Y-75740000D03*
D11*
X30790000Y-72490000D03*
X32790000Y-72490000D03*
%TA.AperFunction,SMDPad,CuDef*%
G36*
G01*
X25064999Y-74770000D02*
X25915001Y-74770000D01*
G75*
G02*
X26165000Y-75019999I0J-249999D01*
G01*
X26165000Y-76095001D01*
G75*
G02*
X25915001Y-76345000I-249999J0D01*
G01*
X25064999Y-76345000D01*
G75*
G02*
X24815000Y-76095001I0J249999D01*
G01*
X24815000Y-75019999D01*
G75*
G02*
X25064999Y-74770000I249999J0D01*
G01*
G37*
%TD.AperFunction*%
%TA.AperFunction,SMDPad,CuDef*%
G36*
G01*
X25064999Y-71895000D02*
X25915001Y-71895000D01*
G75*
G02*
X26165000Y-72144999I0J-249999D01*
G01*
X26165000Y-73220001D01*
G75*
G02*
X25915001Y-73470000I-249999J0D01*
G01*
X25064999Y-73470000D01*
G75*
G02*
X24815000Y-73220001I0J249999D01*
G01*
X24815000Y-72144999D01*
G75*
G02*
X25064999Y-71895000I249999J0D01*
G01*
G37*
%TD.AperFunction*%
D12*
X40370000Y-66920000D03*
X36670000Y-66920000D03*
D13*
X42390000Y-74740000D03*
X42390000Y-73790000D03*
X42390000Y-75690000D03*
X40190000Y-75690000D03*
X40190000Y-74740000D03*
X40190000Y-73790000D03*
%TA.AperFunction,SMDPad,CuDef*%
G36*
G01*
X38505000Y-73140000D02*
X37255000Y-73140000D01*
G75*
G02*
X37005000Y-72890000I0J250000D01*
G01*
X37005000Y-72090000D01*
G75*
G02*
X37255000Y-71840000I250000J0D01*
G01*
X38505000Y-71840000D01*
G75*
G02*
X38755000Y-72090000I0J-250000D01*
G01*
X38755000Y-72890000D01*
G75*
G02*
X38505000Y-73140000I-250000J0D01*
G01*
G37*
%TD.AperFunction*%
%TA.AperFunction,SMDPad,CuDef*%
G36*
G01*
X38505000Y-76240000D02*
X37255000Y-76240000D01*
G75*
G02*
X37005000Y-75990000I0J250000D01*
G01*
X37005000Y-75190000D01*
G75*
G02*
X37255000Y-74940000I250000J0D01*
G01*
X38505000Y-74940000D01*
G75*
G02*
X38755000Y-75190000I0J-250000D01*
G01*
X38755000Y-75990000D01*
G75*
G02*
X38505000Y-76240000I-250000J0D01*
G01*
G37*
%TD.AperFunction*%
%TA.AperFunction,SMDPad,CuDef*%
G36*
G01*
X34805000Y-74930000D02*
X36055000Y-74930000D01*
G75*
G02*
X36305000Y-75180000I0J-250000D01*
G01*
X36305000Y-75980000D01*
G75*
G02*
X36055000Y-76230000I-250000J0D01*
G01*
X34805000Y-76230000D01*
G75*
G02*
X34555000Y-75980000I0J250000D01*
G01*
X34555000Y-75180000D01*
G75*
G02*
X34805000Y-74930000I250000J0D01*
G01*
G37*
%TD.AperFunction*%
%TA.AperFunction,SMDPad,CuDef*%
G36*
G01*
X34805000Y-71830000D02*
X36055000Y-71830000D01*
G75*
G02*
X36305000Y-72080000I0J-250000D01*
G01*
X36305000Y-72880000D01*
G75*
G02*
X36055000Y-73130000I-250000J0D01*
G01*
X34805000Y-73130000D01*
G75*
G02*
X34555000Y-72880000I0J250000D01*
G01*
X34555000Y-72080000D01*
G75*
G02*
X34805000Y-71830000I250000J0D01*
G01*
G37*
%TD.AperFunction*%
D14*
X33140000Y-68250000D03*
X33140000Y-64250000D03*
%TA.AperFunction,SMDPad,CuDef*%
G36*
G01*
X27684999Y-74770000D02*
X28535001Y-74770000D01*
G75*
G02*
X28785000Y-75019999I0J-249999D01*
G01*
X28785000Y-76095001D01*
G75*
G02*
X28535001Y-76345000I-249999J0D01*
G01*
X27684999Y-76345000D01*
G75*
G02*
X27435000Y-76095001I0J249999D01*
G01*
X27435000Y-75019999D01*
G75*
G02*
X27684999Y-74770000I249999J0D01*
G01*
G37*
%TD.AperFunction*%
%TA.AperFunction,SMDPad,CuDef*%
G36*
G01*
X27684999Y-71895000D02*
X28535001Y-71895000D01*
G75*
G02*
X28785000Y-72144999I0J-249999D01*
G01*
X28785000Y-73220001D01*
G75*
G02*
X28535001Y-73470000I-249999J0D01*
G01*
X27684999Y-73470000D01*
G75*
G02*
X27435000Y-73220001I0J249999D01*
G01*
X27435000Y-72144999D01*
G75*
G02*
X27684999Y-71895000I249999J0D01*
G01*
G37*
%TD.AperFunction*%
D15*
X41700000Y-60670000D03*
X39160000Y-60670000D03*
X36620000Y-60670000D03*
D16*
X34080000Y-60670000D03*
%TA.AperFunction,SMDPad,CuDef*%
G36*
G01*
X28470000Y-45393000D02*
X28470000Y-44877000D01*
G75*
G02*
X28512000Y-44835000I42000J0D01*
G01*
X30398000Y-44835000D01*
G75*
G02*
X30440000Y-44877000I0J-42000D01*
G01*
X30440000Y-45393000D01*
G75*
G02*
X30398000Y-45435000I-42000J0D01*
G01*
X28512000Y-45435000D01*
G75*
G02*
X28470000Y-45393000I0J42000D01*
G01*
G37*
%TD.AperFunction*%
%TA.AperFunction,SMDPad,CuDef*%
G36*
G01*
X28470000Y-46663000D02*
X28470000Y-46147000D01*
G75*
G02*
X28512000Y-46105000I42000J0D01*
G01*
X30398000Y-46105000D01*
G75*
G02*
X30440000Y-46147000I0J-42000D01*
G01*
X30440000Y-46663000D01*
G75*
G02*
X30398000Y-46705000I-42000J0D01*
G01*
X28512000Y-46705000D01*
G75*
G02*
X28470000Y-46663000I0J42000D01*
G01*
G37*
%TD.AperFunction*%
%TA.AperFunction,SMDPad,CuDef*%
G36*
G01*
X28470000Y-47933000D02*
X28470000Y-47417000D01*
G75*
G02*
X28512000Y-47375000I42000J0D01*
G01*
X30398000Y-47375000D01*
G75*
G02*
X30440000Y-47417000I0J-42000D01*
G01*
X30440000Y-47933000D01*
G75*
G02*
X30398000Y-47975000I-42000J0D01*
G01*
X28512000Y-47975000D01*
G75*
G02*
X28470000Y-47933000I0J42000D01*
G01*
G37*
%TD.AperFunction*%
%TA.AperFunction,SMDPad,CuDef*%
G36*
G01*
X28470000Y-49203000D02*
X28470000Y-48687000D01*
G75*
G02*
X28512000Y-48645000I42000J0D01*
G01*
X30398000Y-48645000D01*
G75*
G02*
X30440000Y-48687000I0J-42000D01*
G01*
X30440000Y-49203000D01*
G75*
G02*
X30398000Y-49245000I-42000J0D01*
G01*
X28512000Y-49245000D01*
G75*
G02*
X28470000Y-49203000I0J42000D01*
G01*
G37*
%TD.AperFunction*%
%TA.AperFunction,SMDPad,CuDef*%
G36*
G01*
X33420000Y-49203000D02*
X33420000Y-48687000D01*
G75*
G02*
X33462000Y-48645000I42000J0D01*
G01*
X35348000Y-48645000D01*
G75*
G02*
X35390000Y-48687000I0J-42000D01*
G01*
X35390000Y-49203000D01*
G75*
G02*
X35348000Y-49245000I-42000J0D01*
G01*
X33462000Y-49245000D01*
G75*
G02*
X33420000Y-49203000I0J42000D01*
G01*
G37*
%TD.AperFunction*%
%TA.AperFunction,SMDPad,CuDef*%
G36*
G01*
X33420000Y-47933000D02*
X33420000Y-47417000D01*
G75*
G02*
X33462000Y-47375000I42000J0D01*
G01*
X35348000Y-47375000D01*
G75*
G02*
X35390000Y-47417000I0J-42000D01*
G01*
X35390000Y-47933000D01*
G75*
G02*
X35348000Y-47975000I-42000J0D01*
G01*
X33462000Y-47975000D01*
G75*
G02*
X33420000Y-47933000I0J42000D01*
G01*
G37*
%TD.AperFunction*%
%TA.AperFunction,SMDPad,CuDef*%
G36*
G01*
X33420000Y-46663000D02*
X33420000Y-46147000D01*
G75*
G02*
X33462000Y-46105000I42000J0D01*
G01*
X35348000Y-46105000D01*
G75*
G02*
X35390000Y-46147000I0J-42000D01*
G01*
X35390000Y-46663000D01*
G75*
G02*
X35348000Y-46705000I-42000J0D01*
G01*
X33462000Y-46705000D01*
G75*
G02*
X33420000Y-46663000I0J42000D01*
G01*
G37*
%TD.AperFunction*%
%TA.AperFunction,SMDPad,CuDef*%
G36*
G01*
X33420000Y-45393000D02*
X33420000Y-44877000D01*
G75*
G02*
X33462000Y-44835000I42000J0D01*
G01*
X35348000Y-44835000D01*
G75*
G02*
X35390000Y-44877000I0J-42000D01*
G01*
X35390000Y-45393000D01*
G75*
G02*
X35348000Y-45435000I-42000J0D01*
G01*
X33462000Y-45435000D01*
G75*
G02*
X33420000Y-45393000I0J42000D01*
G01*
G37*
%TD.AperFunction*%
D17*
X31930000Y-47040000D03*
%TA.AperFunction,SMDPad,CuDef*%
G36*
G01*
X36720000Y-51575000D02*
X36420000Y-51575000D01*
G75*
G02*
X36270000Y-51425000I0J150000D01*
G01*
X36270000Y-49975000D01*
G75*
G02*
X36420000Y-49825000I150000J0D01*
G01*
X36720000Y-49825000D01*
G75*
G02*
X36870000Y-49975000I0J-150000D01*
G01*
X36870000Y-51425000D01*
G75*
G02*
X36720000Y-51575000I-150000J0D01*
G01*
G37*
%TD.AperFunction*%
%TA.AperFunction,SMDPad,CuDef*%
G36*
G01*
X37990000Y-51575000D02*
X37690000Y-51575000D01*
G75*
G02*
X37540000Y-51425000I0J150000D01*
G01*
X37540000Y-49975000D01*
G75*
G02*
X37690000Y-49825000I150000J0D01*
G01*
X37990000Y-49825000D01*
G75*
G02*
X38140000Y-49975000I0J-150000D01*
G01*
X38140000Y-51425000D01*
G75*
G02*
X37990000Y-51575000I-150000J0D01*
G01*
G37*
%TD.AperFunction*%
%TA.AperFunction,SMDPad,CuDef*%
G36*
G01*
X39260000Y-51575000D02*
X38960000Y-51575000D01*
G75*
G02*
X38810000Y-51425000I0J150000D01*
G01*
X38810000Y-49975000D01*
G75*
G02*
X38960000Y-49825000I150000J0D01*
G01*
X39260000Y-49825000D01*
G75*
G02*
X39410000Y-49975000I0J-150000D01*
G01*
X39410000Y-51425000D01*
G75*
G02*
X39260000Y-51575000I-150000J0D01*
G01*
G37*
%TD.AperFunction*%
%TA.AperFunction,SMDPad,CuDef*%
G36*
G01*
X40530000Y-51575000D02*
X40230000Y-51575000D01*
G75*
G02*
X40080000Y-51425000I0J150000D01*
G01*
X40080000Y-49975000D01*
G75*
G02*
X40230000Y-49825000I150000J0D01*
G01*
X40530000Y-49825000D01*
G75*
G02*
X40680000Y-49975000I0J-150000D01*
G01*
X40680000Y-51425000D01*
G75*
G02*
X40530000Y-51575000I-150000J0D01*
G01*
G37*
%TD.AperFunction*%
%TA.AperFunction,SMDPad,CuDef*%
G36*
G01*
X40530000Y-56725000D02*
X40230000Y-56725000D01*
G75*
G02*
X40080000Y-56575000I0J150000D01*
G01*
X40080000Y-55125000D01*
G75*
G02*
X40230000Y-54975000I150000J0D01*
G01*
X40530000Y-54975000D01*
G75*
G02*
X40680000Y-55125000I0J-150000D01*
G01*
X40680000Y-56575000D01*
G75*
G02*
X40530000Y-56725000I-150000J0D01*
G01*
G37*
%TD.AperFunction*%
%TA.AperFunction,SMDPad,CuDef*%
G36*
G01*
X39260000Y-56725000D02*
X38960000Y-56725000D01*
G75*
G02*
X38810000Y-56575000I0J150000D01*
G01*
X38810000Y-55125000D01*
G75*
G02*
X38960000Y-54975000I150000J0D01*
G01*
X39260000Y-54975000D01*
G75*
G02*
X39410000Y-55125000I0J-150000D01*
G01*
X39410000Y-56575000D01*
G75*
G02*
X39260000Y-56725000I-150000J0D01*
G01*
G37*
%TD.AperFunction*%
%TA.AperFunction,SMDPad,CuDef*%
G36*
G01*
X37990000Y-56725000D02*
X37690000Y-56725000D01*
G75*
G02*
X37540000Y-56575000I0J150000D01*
G01*
X37540000Y-55125000D01*
G75*
G02*
X37690000Y-54975000I150000J0D01*
G01*
X37990000Y-54975000D01*
G75*
G02*
X38140000Y-55125000I0J-150000D01*
G01*
X38140000Y-56575000D01*
G75*
G02*
X37990000Y-56725000I-150000J0D01*
G01*
G37*
%TD.AperFunction*%
%TA.AperFunction,SMDPad,CuDef*%
G36*
G01*
X36720000Y-56725000D02*
X36420000Y-56725000D01*
G75*
G02*
X36270000Y-56575000I0J150000D01*
G01*
X36270000Y-55125000D01*
G75*
G02*
X36420000Y-54975000I150000J0D01*
G01*
X36720000Y-54975000D01*
G75*
G02*
X36870000Y-55125000I0J-150000D01*
G01*
X36870000Y-56575000D01*
G75*
G02*
X36720000Y-56725000I-150000J0D01*
G01*
G37*
%TD.AperFunction*%
%TA.AperFunction,SMDPad,CuDef*%
G36*
G01*
X39215000Y-45690000D02*
X37965000Y-45690000D01*
G75*
G02*
X37715000Y-45440000I0J250000D01*
G01*
X37715000Y-44640000D01*
G75*
G02*
X37965000Y-44390000I250000J0D01*
G01*
X39215000Y-44390000D01*
G75*
G02*
X39465000Y-44640000I0J-250000D01*
G01*
X39465000Y-45440000D01*
G75*
G02*
X39215000Y-45690000I-250000J0D01*
G01*
G37*
%TD.AperFunction*%
%TA.AperFunction,SMDPad,CuDef*%
G36*
G01*
X39215000Y-48790000D02*
X37965000Y-48790000D01*
G75*
G02*
X37715000Y-48540000I0J250000D01*
G01*
X37715000Y-47740000D01*
G75*
G02*
X37965000Y-47490000I250000J0D01*
G01*
X39215000Y-47490000D01*
G75*
G02*
X39465000Y-47740000I0J-250000D01*
G01*
X39465000Y-48540000D01*
G75*
G02*
X39215000Y-48790000I-250000J0D01*
G01*
G37*
%TD.AperFunction*%
D14*
X43150000Y-53050000D03*
X43150000Y-49050000D03*
X41680000Y-41760000D03*
X41680000Y-45760000D03*
D18*
X37020000Y-41490000D03*
X35020000Y-41490000D03*
X33020000Y-41490000D03*
D19*
X31020000Y-41490000D03*
%TA.AperFunction,SMDPad,CuDef*%
G36*
G01*
X26465000Y-45090000D02*
X25215000Y-45090000D01*
G75*
G02*
X24965000Y-44840000I0J250000D01*
G01*
X24965000Y-44040000D01*
G75*
G02*
X25215000Y-43790000I250000J0D01*
G01*
X26465000Y-43790000D01*
G75*
G02*
X26715000Y-44040000I0J-250000D01*
G01*
X26715000Y-44840000D01*
G75*
G02*
X26465000Y-45090000I-250000J0D01*
G01*
G37*
%TD.AperFunction*%
%TA.AperFunction,SMDPad,CuDef*%
G36*
G01*
X26465000Y-41990000D02*
X25215000Y-41990000D01*
G75*
G02*
X24965000Y-41740000I0J250000D01*
G01*
X24965000Y-40940000D01*
G75*
G02*
X25215000Y-40690000I250000J0D01*
G01*
X26465000Y-40690000D01*
G75*
G02*
X26715000Y-40940000I0J-250000D01*
G01*
X26715000Y-41740000D01*
G75*
G02*
X26465000Y-41990000I-250000J0D01*
G01*
G37*
%TD.AperFunction*%
%TA.AperFunction,SMDPad,CuDef*%
G36*
G01*
X31970000Y-52855000D02*
X31970000Y-54105000D01*
G75*
G02*
X31720000Y-54355000I-250000J0D01*
G01*
X30920000Y-54355000D01*
G75*
G02*
X30670000Y-54105000I0J250000D01*
G01*
X30670000Y-52855000D01*
G75*
G02*
X30920000Y-52605000I250000J0D01*
G01*
X31720000Y-52605000D01*
G75*
G02*
X31970000Y-52855000I0J-250000D01*
G01*
G37*
%TD.AperFunction*%
%TA.AperFunction,SMDPad,CuDef*%
G36*
G01*
X35070000Y-52855000D02*
X35070000Y-54105000D01*
G75*
G02*
X34820000Y-54355000I-250000J0D01*
G01*
X34020000Y-54355000D01*
G75*
G02*
X33770000Y-54105000I0J250000D01*
G01*
X33770000Y-52855000D01*
G75*
G02*
X34020000Y-52605000I250000J0D01*
G01*
X34820000Y-52605000D01*
G75*
G02*
X35070000Y-52855000I0J-250000D01*
G01*
G37*
%TD.AperFunction*%
%TA.AperFunction,SMDPad,CuDef*%
G36*
G01*
X27445000Y-68560000D02*
X28695000Y-68560000D01*
G75*
G02*
X28945000Y-68810000I0J-250000D01*
G01*
X28945000Y-69610000D01*
G75*
G02*
X28695000Y-69860000I-250000J0D01*
G01*
X27445000Y-69860000D01*
G75*
G02*
X27195000Y-69610000I0J250000D01*
G01*
X27195000Y-68810000D01*
G75*
G02*
X27445000Y-68560000I250000J0D01*
G01*
G37*
%TD.AperFunction*%
%TA.AperFunction,SMDPad,CuDef*%
G36*
G01*
X27445000Y-65460000D02*
X28695000Y-65460000D01*
G75*
G02*
X28945000Y-65710000I0J-250000D01*
G01*
X28945000Y-66510000D01*
G75*
G02*
X28695000Y-66760000I-250000J0D01*
G01*
X27445000Y-66760000D01*
G75*
G02*
X27195000Y-66510000I0J250000D01*
G01*
X27195000Y-65710000D01*
G75*
G02*
X27445000Y-65460000I250000J0D01*
G01*
G37*
%TD.AperFunction*%
%TA.AperFunction,SMDPad,CuDef*%
G36*
G01*
X30310000Y-55684999D02*
X30310000Y-56535001D01*
G75*
G02*
X30060001Y-56785000I-249999J0D01*
G01*
X28984999Y-56785000D01*
G75*
G02*
X28735000Y-56535001I0J249999D01*
G01*
X28735000Y-55684999D01*
G75*
G02*
X28984999Y-55435000I249999J0D01*
G01*
X30060001Y-55435000D01*
G75*
G02*
X30310000Y-55684999I0J-249999D01*
G01*
G37*
%TD.AperFunction*%
%TA.AperFunction,SMDPad,CuDef*%
G36*
G01*
X33185000Y-55684999D02*
X33185000Y-56535001D01*
G75*
G02*
X32935001Y-56785000I-249999J0D01*
G01*
X31859999Y-56785000D01*
G75*
G02*
X31610000Y-56535001I0J249999D01*
G01*
X31610000Y-55684999D01*
G75*
G02*
X31859999Y-55435000I249999J0D01*
G01*
X32935001Y-55435000D01*
G75*
G02*
X33185000Y-55684999I0J-249999D01*
G01*
G37*
%TD.AperFunction*%
%TA.AperFunction,SMDPad,CuDef*%
G36*
G01*
X25755000Y-59490000D02*
X26115000Y-59490000D01*
G75*
G02*
X26135000Y-59510000I0J-20000D01*
G01*
X26135000Y-61030000D01*
G75*
G02*
X26115000Y-61050000I-20000J0D01*
G01*
X25755000Y-61050000D01*
G75*
G02*
X25735000Y-61030000I0J20000D01*
G01*
X25735000Y-59510000D01*
G75*
G02*
X25755000Y-59490000I20000J0D01*
G01*
G37*
%TD.AperFunction*%
%TA.AperFunction,SMDPad,CuDef*%
G36*
G01*
X25105000Y-59490000D02*
X25465000Y-59490000D01*
G75*
G02*
X25485000Y-59510000I0J-20000D01*
G01*
X25485000Y-61030000D01*
G75*
G02*
X25465000Y-61050000I-20000J0D01*
G01*
X25105000Y-61050000D01*
G75*
G02*
X25085000Y-61030000I0J20000D01*
G01*
X25085000Y-59510000D01*
G75*
G02*
X25105000Y-59490000I20000J0D01*
G01*
G37*
%TD.AperFunction*%
%TA.AperFunction,SMDPad,CuDef*%
G36*
G01*
X24455000Y-59490000D02*
X24815000Y-59490000D01*
G75*
G02*
X24835000Y-59510000I0J-20000D01*
G01*
X24835000Y-61030000D01*
G75*
G02*
X24815000Y-61050000I-20000J0D01*
G01*
X24455000Y-61050000D01*
G75*
G02*
X24435000Y-61030000I0J20000D01*
G01*
X24435000Y-59510000D01*
G75*
G02*
X24455000Y-59490000I20000J0D01*
G01*
G37*
%TD.AperFunction*%
%TA.AperFunction,SMDPad,CuDef*%
G36*
G01*
X23805000Y-59490000D02*
X24165000Y-59490000D01*
G75*
G02*
X24185000Y-59510000I0J-20000D01*
G01*
X24185000Y-61030000D01*
G75*
G02*
X24165000Y-61050000I-20000J0D01*
G01*
X23805000Y-61050000D01*
G75*
G02*
X23785000Y-61030000I0J20000D01*
G01*
X23785000Y-59510000D01*
G75*
G02*
X23805000Y-59490000I20000J0D01*
G01*
G37*
%TD.AperFunction*%
%TA.AperFunction,SMDPad,CuDef*%
G36*
G01*
X23805000Y-65250000D02*
X24165000Y-65250000D01*
G75*
G02*
X24185000Y-65270000I0J-20000D01*
G01*
X24185000Y-66790000D01*
G75*
G02*
X24165000Y-66810000I-20000J0D01*
G01*
X23805000Y-66810000D01*
G75*
G02*
X23785000Y-66790000I0J20000D01*
G01*
X23785000Y-65270000D01*
G75*
G02*
X23805000Y-65250000I20000J0D01*
G01*
G37*
%TD.AperFunction*%
%TA.AperFunction,SMDPad,CuDef*%
G36*
G01*
X24455000Y-65250000D02*
X24815000Y-65250000D01*
G75*
G02*
X24835000Y-65270000I0J-20000D01*
G01*
X24835000Y-66790000D01*
G75*
G02*
X24815000Y-66810000I-20000J0D01*
G01*
X24455000Y-66810000D01*
G75*
G02*
X24435000Y-66790000I0J20000D01*
G01*
X24435000Y-65270000D01*
G75*
G02*
X24455000Y-65250000I20000J0D01*
G01*
G37*
%TD.AperFunction*%
%TA.AperFunction,SMDPad,CuDef*%
G36*
G01*
X25105000Y-65250000D02*
X25465000Y-65250000D01*
G75*
G02*
X25485000Y-65270000I0J-20000D01*
G01*
X25485000Y-66790000D01*
G75*
G02*
X25465000Y-66810000I-20000J0D01*
G01*
X25105000Y-66810000D01*
G75*
G02*
X25085000Y-66790000I0J20000D01*
G01*
X25085000Y-65270000D01*
G75*
G02*
X25105000Y-65250000I20000J0D01*
G01*
G37*
%TD.AperFunction*%
%TA.AperFunction,SMDPad,CuDef*%
G36*
G01*
X25755000Y-65250000D02*
X26115000Y-65250000D01*
G75*
G02*
X26135000Y-65270000I0J-20000D01*
G01*
X26135000Y-66790000D01*
G75*
G02*
X26115000Y-66810000I-20000J0D01*
G01*
X25755000Y-66810000D01*
G75*
G02*
X25735000Y-66790000I0J20000D01*
G01*
X25735000Y-65270000D01*
G75*
G02*
X25755000Y-65250000I20000J0D01*
G01*
G37*
%TD.AperFunction*%
D20*
X28810000Y-60280000D03*
X27860000Y-60280000D03*
X29760000Y-60280000D03*
X29760000Y-62980000D03*
X28810000Y-62980000D03*
X27860000Y-62980000D03*
%TA.AperFunction,SMDPad,CuDef*%
G36*
G01*
X27535000Y-48530000D02*
X26285000Y-48530000D01*
G75*
G02*
X26035000Y-48280000I0J250000D01*
G01*
X26035000Y-47480000D01*
G75*
G02*
X26285000Y-47230000I250000J0D01*
G01*
X27535000Y-47230000D01*
G75*
G02*
X27785000Y-47480000I0J-250000D01*
G01*
X27785000Y-48280000D01*
G75*
G02*
X27535000Y-48530000I-250000J0D01*
G01*
G37*
%TD.AperFunction*%
%TA.AperFunction,SMDPad,CuDef*%
G36*
G01*
X27535000Y-51630000D02*
X26285000Y-51630000D01*
G75*
G02*
X26035000Y-51380000I0J250000D01*
G01*
X26035000Y-50580000D01*
G75*
G02*
X26285000Y-50330000I250000J0D01*
G01*
X27535000Y-50330000D01*
G75*
G02*
X27785000Y-50580000I0J-250000D01*
G01*
X27785000Y-51380000D01*
G75*
G02*
X27535000Y-51630000I-250000J0D01*
G01*
G37*
%TD.AperFunction*%
%TA.AperFunction,SMDPad,CuDef*%
G36*
G01*
X24915000Y-54145000D02*
X23765000Y-54145000D01*
G75*
G02*
X23515000Y-53895000I0J250000D01*
G01*
X23515000Y-52795000D01*
G75*
G02*
X23765000Y-52545000I250000J0D01*
G01*
X24915000Y-52545000D01*
G75*
G02*
X25165000Y-52795000I0J-250000D01*
G01*
X25165000Y-53895000D01*
G75*
G02*
X24915000Y-54145000I-250000J0D01*
G01*
G37*
%TD.AperFunction*%
%TA.AperFunction,SMDPad,CuDef*%
G36*
G01*
X24915000Y-56995000D02*
X23765000Y-56995000D01*
G75*
G02*
X23515000Y-56745000I0J250000D01*
G01*
X23515000Y-55645000D01*
G75*
G02*
X23765000Y-55395000I250000J0D01*
G01*
X24915000Y-55395000D01*
G75*
G02*
X25165000Y-55645000I0J-250000D01*
G01*
X25165000Y-56745000D01*
G75*
G02*
X24915000Y-56995000I-250000J0D01*
G01*
G37*
%TD.AperFunction*%
%TA.AperFunction,SMDPad,CuDef*%
G36*
G01*
X27475000Y-54145000D02*
X26325000Y-54145000D01*
G75*
G02*
X26075000Y-53895000I0J250000D01*
G01*
X26075000Y-52795000D01*
G75*
G02*
X26325000Y-52545000I250000J0D01*
G01*
X27475000Y-52545000D01*
G75*
G02*
X27725000Y-52795000I0J-250000D01*
G01*
X27725000Y-53895000D01*
G75*
G02*
X27475000Y-54145000I-250000J0D01*
G01*
G37*
%TD.AperFunction*%
%TA.AperFunction,SMDPad,CuDef*%
G36*
G01*
X27475000Y-56995000D02*
X26325000Y-56995000D01*
G75*
G02*
X26075000Y-56745000I0J250000D01*
G01*
X26075000Y-55645000D01*
G75*
G02*
X26325000Y-55395000I250000J0D01*
G01*
X27475000Y-55395000D01*
G75*
G02*
X27725000Y-55645000I0J-250000D01*
G01*
X27725000Y-56745000D01*
G75*
G02*
X27475000Y-56995000I-250000J0D01*
G01*
G37*
%TD.AperFunction*%
%TA.AperFunction,SMDPad,CuDef*%
G36*
G01*
X23924999Y-47195000D02*
X24775001Y-47195000D01*
G75*
G02*
X25025000Y-47444999I0J-249999D01*
G01*
X25025000Y-48520001D01*
G75*
G02*
X24775001Y-48770000I-249999J0D01*
G01*
X23924999Y-48770000D01*
G75*
G02*
X23675000Y-48520001I0J249999D01*
G01*
X23675000Y-47444999D01*
G75*
G02*
X23924999Y-47195000I249999J0D01*
G01*
G37*
%TD.AperFunction*%
%TA.AperFunction,SMDPad,CuDef*%
G36*
G01*
X23924999Y-50070000D02*
X24775001Y-50070000D01*
G75*
G02*
X25025000Y-50319999I0J-249999D01*
G01*
X25025000Y-51395001D01*
G75*
G02*
X24775001Y-51645000I-249999J0D01*
G01*
X23924999Y-51645000D01*
G75*
G02*
X23675000Y-51395001I0J249999D01*
G01*
X23675000Y-50319999D01*
G75*
G02*
X23924999Y-50070000I249999J0D01*
G01*
G37*
%TD.AperFunction*%
%TA.AperFunction,SMDPad,CuDef*%
G36*
G01*
X35195000Y-50634999D02*
X35195000Y-51485001D01*
G75*
G02*
X34945001Y-51735000I-249999J0D01*
G01*
X33869999Y-51735000D01*
G75*
G02*
X33620000Y-51485001I0J249999D01*
G01*
X33620000Y-50634999D01*
G75*
G02*
X33869999Y-50385000I249999J0D01*
G01*
X34945001Y-50385000D01*
G75*
G02*
X35195000Y-50634999I0J-249999D01*
G01*
G37*
%TD.AperFunction*%
%TA.AperFunction,SMDPad,CuDef*%
G36*
G01*
X32320000Y-50634999D02*
X32320000Y-51485001D01*
G75*
G02*
X32070001Y-51735000I-249999J0D01*
G01*
X30994999Y-51735000D01*
G75*
G02*
X30745000Y-51485001I0J249999D01*
G01*
X30745000Y-50634999D01*
G75*
G02*
X30994999Y-50385000I249999J0D01*
G01*
X32070001Y-50385000D01*
G75*
G02*
X32320000Y-50634999I0J-249999D01*
G01*
G37*
%TD.AperFunction*%
D18*
X21500000Y-68500000D03*
X21500000Y-66500000D03*
X21500000Y-64500000D03*
X21500000Y-62500000D03*
X21500000Y-60500000D03*
X21500000Y-58500000D03*
X21500000Y-56500000D03*
X21500000Y-54500000D03*
X21500000Y-52500000D03*
X21500000Y-50500000D03*
X21500000Y-48500000D03*
D19*
X21500000Y-46500000D03*
D18*
X46500000Y-68500000D03*
X46500000Y-66500000D03*
X46500000Y-64500000D03*
X46500000Y-62500000D03*
X46500000Y-60500000D03*
X46500000Y-58500000D03*
X46500000Y-56500000D03*
X46500000Y-54500000D03*
X46500000Y-52500000D03*
X46500000Y-50500000D03*
X46500000Y-48500000D03*
D19*
X46500000Y-46500000D03*
D21*
X31600000Y-59020000D03*
D22*
X40310000Y-57840000D03*
D21*
X43450000Y-72660000D03*
X41240000Y-77460000D03*
X36660000Y-59020000D03*
D23*
X34870000Y-62700000D03*
D21*
X29350000Y-43500000D03*
X43150000Y-65270000D03*
X37240000Y-46380000D03*
X26900000Y-56195000D03*
D24*
X25940000Y-61410000D03*
X25940000Y-64650000D03*
D21*
X36110000Y-47670000D03*
X24340000Y-56195000D03*
D23*
X39110000Y-54430000D03*
D21*
X40400000Y-48700000D03*
X40400000Y-54200000D03*
D25*
X30790000Y-74740000D02*
X31790000Y-75740000D01*
X30790000Y-72490000D02*
X30790000Y-74740000D01*
D26*
X40190000Y-74740000D02*
X39370000Y-74740000D01*
X39370000Y-74740000D02*
X38840000Y-74210000D01*
D27*
X25285000Y-66030000D02*
X25285000Y-64545000D01*
X25285000Y-64545000D02*
X25130000Y-64390000D01*
X25130000Y-64390000D02*
X24700000Y-64390000D01*
X24635000Y-64455000D02*
X24635000Y-66030000D01*
X24700000Y-64390000D02*
X24635000Y-64455000D01*
D26*
X43480000Y-71610000D02*
X43480000Y-72450000D01*
X36660000Y-59020000D02*
X31600000Y-59020000D01*
D28*
X28649256Y-47675000D02*
X27174256Y-46200000D01*
X29455000Y-47675000D02*
X28649256Y-47675000D01*
X27174256Y-46200000D02*
X26240000Y-46200000D01*
D29*
X24350000Y-50857500D02*
X24350000Y-50550000D01*
X24350000Y-50550000D02*
X25250000Y-49650000D01*
X27734682Y-49650000D02*
X28144682Y-50060000D01*
X25250000Y-49650000D02*
X27734682Y-49650000D01*
X28144682Y-50060000D02*
X28680000Y-50060000D01*
X28680000Y-50060000D02*
X28680000Y-50070000D01*
X29740000Y-51130000D02*
X31522500Y-51130000D01*
X28680000Y-50070000D02*
X29740000Y-51130000D01*
X43599612Y-65270000D02*
X45150000Y-63719612D01*
X43150000Y-65270000D02*
X43599612Y-65270000D01*
X45150000Y-63719612D02*
X45150000Y-62160000D01*
D30*
X41670000Y-45770000D02*
X41680000Y-45760000D01*
D31*
X42420000Y-46500000D02*
X41680000Y-45760000D01*
X46500000Y-46500000D02*
X42420000Y-46500000D01*
X43150000Y-47230000D02*
X41680000Y-45760000D01*
X43150000Y-49050000D02*
X43150000Y-47230000D01*
D26*
X46500000Y-68500000D02*
X46500000Y-72410000D01*
X43220000Y-75690000D02*
X42390000Y-75690000D01*
X46500000Y-72410000D02*
X43220000Y-75690000D01*
D25*
X43480000Y-66530000D02*
X43470000Y-66520000D01*
X43480000Y-68510000D02*
X43480000Y-66530000D01*
D26*
X43470000Y-66520000D02*
X43470000Y-66460000D01*
D29*
X44480000Y-66520000D02*
X46500000Y-64500000D01*
X43470000Y-66520000D02*
X44480000Y-66520000D01*
D26*
X34397500Y-48952500D02*
X34405000Y-48945000D01*
D31*
X34400000Y-56760000D02*
X35660000Y-58020000D01*
X35660000Y-58020000D02*
X38150000Y-58020000D01*
X39160000Y-59030000D02*
X39160000Y-60670000D01*
X38150000Y-58020000D02*
X39160000Y-59030000D01*
D32*
X39160000Y-65710000D02*
X40370000Y-66920000D01*
X39180000Y-63420000D02*
X39160000Y-63400000D01*
X43470000Y-63420000D02*
X39180000Y-63420000D01*
X39160000Y-60670000D02*
X39160000Y-63400000D01*
X39160000Y-63400000D02*
X39160000Y-65710000D01*
D25*
X40370000Y-67556388D02*
X40370000Y-66920000D01*
D26*
X41584998Y-74740000D02*
X41320000Y-74475002D01*
X42390000Y-74740000D02*
X41584998Y-74740000D01*
X41320000Y-67870000D02*
X40370000Y-66920000D01*
X41320000Y-74475002D02*
X41320000Y-67870000D01*
D32*
X21500000Y-68500000D02*
X21500000Y-66500000D01*
D27*
X34405000Y-51057500D02*
X34407500Y-51060000D01*
X34405000Y-48945000D02*
X34405000Y-51057500D01*
D31*
X34407500Y-53467500D02*
X34420000Y-53480000D01*
X34407500Y-51060000D02*
X34407500Y-53467500D01*
X34420000Y-56740000D02*
X34400000Y-56760000D01*
X34420000Y-53480000D02*
X34420000Y-56740000D01*
X26930000Y-51000000D02*
X26910000Y-50980000D01*
D32*
X24340000Y-53345000D02*
X26900000Y-53345000D01*
X26910000Y-53335000D02*
X26900000Y-53345000D01*
X26910000Y-50980000D02*
X26910000Y-53335000D01*
D26*
X34405000Y-46405000D02*
X37215000Y-46405000D01*
X37215000Y-46405000D02*
X37240000Y-46380000D01*
D27*
X28810000Y-64020000D02*
X28810000Y-62980000D01*
X28070000Y-64760000D02*
X28810000Y-64020000D01*
X28070000Y-66110000D02*
X28070000Y-64760000D01*
X25935000Y-60270000D02*
X25935000Y-61405000D01*
X25935000Y-61405000D02*
X25940000Y-61410000D01*
X25940000Y-66025000D02*
X25935000Y-66030000D01*
X25940000Y-64650000D02*
X25940000Y-66025000D01*
D31*
X21500000Y-58500000D02*
X23260000Y-58500000D01*
D28*
X24635000Y-60145000D02*
X24640000Y-60140000D01*
X24635000Y-60270000D02*
X24635000Y-60145000D01*
X25285000Y-60270000D02*
X24635000Y-60270000D01*
D27*
X27860000Y-58127500D02*
X27682500Y-57950000D01*
X27860000Y-60280000D02*
X27860000Y-58127500D01*
D28*
X25285000Y-60270000D02*
X25285000Y-58305000D01*
X24640000Y-60140000D02*
X24640000Y-57950000D01*
D31*
X23260000Y-58500000D02*
X23810000Y-57950000D01*
X23810000Y-57950000D02*
X24640000Y-57950000D01*
D28*
X25285000Y-58305000D02*
X25640000Y-57950000D01*
D31*
X24640000Y-57950000D02*
X25640000Y-57950000D01*
D27*
X25675000Y-57985000D02*
X25640000Y-57950000D01*
X26325000Y-58115000D02*
X26490000Y-57950000D01*
D31*
X26490000Y-57950000D02*
X27682500Y-57950000D01*
X25640000Y-57950000D02*
X26490000Y-57950000D01*
X27682500Y-57950000D02*
X29522500Y-56110000D01*
D26*
X34405000Y-47675000D02*
X36105000Y-47675000D01*
X36105000Y-47675000D02*
X36110000Y-47670000D01*
X31020000Y-42265000D02*
X32095000Y-43340000D01*
X31020000Y-41490000D02*
X31020000Y-42265000D01*
D31*
X40574999Y-42865001D02*
X40574999Y-42905001D01*
X41680000Y-41760000D02*
X40574999Y-42865001D01*
X40574999Y-42905001D02*
X39950000Y-43530000D01*
X32285000Y-43530000D02*
X31020000Y-42265000D01*
D26*
X33565000Y-43605000D02*
X33490000Y-43530000D01*
D31*
X33490000Y-43530000D02*
X32285000Y-43530000D01*
X39950000Y-43530000D02*
X38570000Y-43530000D01*
X38590000Y-43550000D02*
X38570000Y-43530000D01*
X38590000Y-45040000D02*
X38590000Y-43550000D01*
X21500000Y-46500000D02*
X23217500Y-46500000D01*
X38570000Y-43530000D02*
X34490000Y-43530000D01*
X34490000Y-43530000D02*
X33490000Y-43530000D01*
D26*
X34405000Y-43615000D02*
X34490000Y-43530000D01*
X34405000Y-45135000D02*
X34405000Y-43615000D01*
X26910000Y-47880000D02*
X26990000Y-47880000D01*
D31*
X26832500Y-47802500D02*
X26910000Y-47880000D01*
X26892500Y-47782500D02*
X26930000Y-47820000D01*
D26*
X29455000Y-48945000D02*
X28055000Y-48945000D01*
X26990000Y-47880000D02*
X28055000Y-48945000D01*
D31*
X23217500Y-46500000D02*
X24520000Y-47802500D01*
D32*
X24452500Y-47880000D02*
X24350000Y-47982500D01*
X26910000Y-47880000D02*
X24452500Y-47880000D01*
D26*
X26370000Y-44440000D02*
X25840000Y-44440000D01*
X29455000Y-46405000D02*
X28715000Y-46405000D01*
X26750000Y-44440000D02*
X25840000Y-44440000D01*
X28715000Y-46405000D02*
X26750000Y-44440000D01*
X31310000Y-53670000D02*
X31300000Y-53660000D01*
X31590000Y-53660000D02*
X31300000Y-53660000D01*
D31*
X32397500Y-54757500D02*
X31300000Y-53660000D01*
X32397500Y-56110000D02*
X32397500Y-54757500D01*
D27*
X28810000Y-60280000D02*
X28810000Y-59150000D01*
X28810000Y-59150000D02*
X29850000Y-58110000D01*
X29850000Y-58110000D02*
X31860000Y-58110000D01*
X32397500Y-57572500D02*
X32397500Y-56110000D01*
X31860000Y-58110000D02*
X32397500Y-57572500D01*
D30*
X42730000Y-53050000D02*
X40380000Y-50700000D01*
X43150000Y-53050000D02*
X42730000Y-53050000D01*
X37840000Y-50700000D02*
X40380000Y-50700000D01*
D26*
X36570000Y-50700000D02*
X37840000Y-50700000D01*
D27*
X23985000Y-66030000D02*
X23985000Y-67215000D01*
X23992510Y-67222510D02*
X24022510Y-67222510D01*
X23985000Y-67215000D02*
X23992510Y-67222510D01*
X24022510Y-67222510D02*
X24327490Y-67527490D01*
X24327490Y-67527490D02*
X28852510Y-67527490D01*
X29760000Y-66620000D02*
X29760000Y-62980000D01*
X28852510Y-67527490D02*
X29760000Y-66620000D01*
X23985000Y-60270000D02*
X23985000Y-62075000D01*
X23985000Y-62075000D02*
X24890000Y-62980000D01*
X27860000Y-62980000D02*
X24890000Y-62980000D01*
D31*
X37840000Y-55850000D02*
X36570000Y-55850000D01*
D26*
X37840000Y-55850000D02*
X39110000Y-55850000D01*
D31*
X39110000Y-55850000D02*
X39110000Y-54430000D01*
D32*
X33140000Y-61610000D02*
X34080000Y-60670000D01*
X33140000Y-64250000D02*
X33140000Y-61610000D01*
X25490000Y-72682500D02*
X28110000Y-72682500D01*
X33140000Y-64250000D02*
X32310000Y-64250000D01*
X32310000Y-65431194D02*
X30900000Y-66841194D01*
X32310000Y-64250000D02*
X32310000Y-65431194D01*
X30900000Y-66841194D02*
X30900000Y-69570000D01*
X28110000Y-72360000D02*
X28110000Y-72682500D01*
X30900000Y-69570000D02*
X28110000Y-72360000D01*
D26*
X38590000Y-48140000D02*
X39920000Y-48140000D01*
X39920000Y-48140000D02*
X40400000Y-48620000D01*
X40400000Y-48620000D02*
X40400000Y-48700000D01*
X40400000Y-55830000D02*
X40380000Y-55850000D01*
X40400000Y-54200000D02*
X40400000Y-55830000D01*
D32*
X35340000Y-68250000D02*
X36670000Y-66920000D01*
X33140000Y-68250000D02*
X35340000Y-68250000D01*
X37880000Y-68130000D02*
X36670000Y-66920000D01*
X37880000Y-72490000D02*
X37880000Y-68130000D01*
D26*
X37880000Y-72490000D02*
X40050000Y-72490000D01*
X40190000Y-72630000D02*
X40190000Y-73790000D01*
X40050000Y-72490000D02*
X40190000Y-72630000D01*
D25*
X37980000Y-75690000D02*
X37880000Y-75590000D01*
X40190000Y-75690000D02*
X37980000Y-75690000D01*
X37870000Y-75580000D02*
X37880000Y-75590000D01*
X35430000Y-75580000D02*
X37870000Y-75580000D01*
D32*
X32790000Y-72490000D02*
X35420000Y-72490000D01*
D33*
X23074580Y-60132635D02*
X23065500Y-60224828D01*
X23065501Y-62029818D01*
X23061051Y-62075000D01*
X23078804Y-62255253D01*
X23131383Y-62428580D01*
X23192273Y-62542497D01*
X23216765Y-62588319D01*
X23331670Y-62728331D01*
X23366763Y-62757131D01*
X24207868Y-63598237D01*
X24236669Y-63633331D01*
X24376681Y-63748236D01*
X24536420Y-63833618D01*
X24695136Y-63881764D01*
X24709746Y-63886196D01*
X24889999Y-63903949D01*
X24935172Y-63899500D01*
X25405070Y-63899500D01*
X25391587Y-63910565D01*
X25353853Y-63935778D01*
X25321763Y-63967868D01*
X25286669Y-63996669D01*
X25257870Y-64031761D01*
X25225778Y-64063853D01*
X25200562Y-64101591D01*
X25171764Y-64136682D01*
X25150367Y-64176714D01*
X25125150Y-64214453D01*
X25107780Y-64256388D01*
X25086382Y-64296421D01*
X25073205Y-64339859D01*
X25055836Y-64381792D01*
X25046981Y-64426307D01*
X25033804Y-64469747D01*
X25029355Y-64514921D01*
X25020500Y-64559437D01*
X25020500Y-64618557D01*
X24960000Y-64625129D01*
X24866750Y-64615000D01*
X24799501Y-64682249D01*
X24722870Y-64724645D01*
X24684445Y-64757121D01*
X24681485Y-64753515D01*
X24570800Y-64662678D01*
X24444520Y-64595180D01*
X24307498Y-64553615D01*
X24165000Y-64539580D01*
X23805000Y-64539580D01*
X23662502Y-64553615D01*
X23525480Y-64595180D01*
X23399200Y-64662678D01*
X23288515Y-64753515D01*
X23197678Y-64864200D01*
X23130180Y-64990480D01*
X23088615Y-65127502D01*
X23074580Y-65270000D01*
X23074580Y-65892635D01*
X23065500Y-65984828D01*
X23065501Y-67169818D01*
X23061051Y-67215000D01*
X23078804Y-67395253D01*
X23131383Y-67568580D01*
X23214838Y-67724713D01*
X23216765Y-67728319D01*
X23331670Y-67868331D01*
X23335792Y-67871714D01*
X23339179Y-67875841D01*
X23479191Y-67990746D01*
X23503224Y-68003592D01*
X23645354Y-68145722D01*
X23674159Y-68180821D01*
X23814171Y-68295726D01*
X23973910Y-68381108D01*
X24142225Y-68432166D01*
X24147236Y-68433686D01*
X24327490Y-68451439D01*
X24372662Y-68446990D01*
X26568058Y-68446990D01*
X26556928Y-68560000D01*
X26560000Y-68924250D01*
X26718750Y-69083000D01*
X27943000Y-69083000D01*
X27943000Y-69063000D01*
X28197000Y-69063000D01*
X28197000Y-69083000D01*
X28217000Y-69083000D01*
X28217000Y-69337000D01*
X28197000Y-69337000D01*
X28197000Y-70336250D01*
X28276542Y-70415792D01*
X27485674Y-71206661D01*
X27317463Y-71257688D01*
X27151419Y-71346440D01*
X27055083Y-71425500D01*
X26544917Y-71425500D01*
X26448581Y-71346440D01*
X26282537Y-71257688D01*
X26102369Y-71203034D01*
X25915001Y-71184580D01*
X25064999Y-71184580D01*
X24877631Y-71203034D01*
X24697463Y-71257688D01*
X24531419Y-71346440D01*
X24385880Y-71465880D01*
X24266440Y-71611419D01*
X24177688Y-71777463D01*
X24123034Y-71957631D01*
X24104580Y-72144999D01*
X24104580Y-73220001D01*
X24123034Y-73407369D01*
X24177688Y-73587537D01*
X24266440Y-73753581D01*
X24385880Y-73899120D01*
X24531419Y-74018560D01*
X24697463Y-74107312D01*
X24787529Y-74134634D01*
X24690518Y-74144188D01*
X24570820Y-74180498D01*
X24460506Y-74239463D01*
X24363815Y-74318815D01*
X24284463Y-74415506D01*
X24225498Y-74525820D01*
X24189188Y-74645518D01*
X24176928Y-74770000D01*
X24180000Y-75271750D01*
X24338750Y-75430500D01*
X25363000Y-75430500D01*
X25363000Y-75410500D01*
X25617000Y-75410500D01*
X25617000Y-75430500D01*
X26641250Y-75430500D01*
X26800000Y-75271750D01*
X26958750Y-75430500D01*
X27983000Y-75430500D01*
X27983000Y-75410500D01*
X28237000Y-75410500D01*
X28237000Y-75430500D01*
X29261250Y-75430500D01*
X29420000Y-75271750D01*
X29421725Y-74990000D01*
X30351928Y-74990000D01*
X30355000Y-75454250D01*
X30513750Y-75613000D01*
X31663000Y-75613000D01*
X31663000Y-74513750D01*
X31917000Y-74513750D01*
X31917000Y-75613000D01*
X33066250Y-75613000D01*
X33225000Y-75454250D01*
X33228072Y-74990000D01*
X33215812Y-74865518D01*
X33179502Y-74745820D01*
X33120537Y-74635506D01*
X33041185Y-74538815D01*
X32944494Y-74459463D01*
X32834180Y-74400498D01*
X32714482Y-74364188D01*
X32590000Y-74351928D01*
X32075750Y-74355000D01*
X31917000Y-74513750D01*
X31663000Y-74513750D01*
X31504250Y-74355000D01*
X30990000Y-74351928D01*
X30865518Y-74364188D01*
X30745820Y-74400498D01*
X30635506Y-74459463D01*
X30538815Y-74538815D01*
X30459463Y-74635506D01*
X30400498Y-74745820D01*
X30364188Y-74865518D01*
X30351928Y-74990000D01*
X29421725Y-74990000D01*
X29423072Y-74770000D01*
X29410812Y-74645518D01*
X29374502Y-74525820D01*
X29315537Y-74415506D01*
X29236185Y-74318815D01*
X29139494Y-74239463D01*
X29029180Y-74180498D01*
X28909482Y-74144188D01*
X28812471Y-74134634D01*
X28902537Y-74107312D01*
X29068581Y-74018560D01*
X29214120Y-73899120D01*
X29333560Y-73753581D01*
X29422312Y-73587537D01*
X29476966Y-73407369D01*
X29495420Y-73220001D01*
X29495420Y-72752245D01*
X29630663Y-72617002D01*
X29713748Y-72617002D01*
X29555000Y-72775750D01*
X29551928Y-73090000D01*
X29564188Y-73214482D01*
X29600498Y-73334180D01*
X29659463Y-73444494D01*
X29738815Y-73541185D01*
X29835506Y-73620537D01*
X29945820Y-73679502D01*
X30065518Y-73715812D01*
X30190000Y-73728072D01*
X30504250Y-73725000D01*
X30663000Y-73566250D01*
X30663000Y-72617000D01*
X30643000Y-72617000D01*
X30643000Y-72363000D01*
X30663000Y-72363000D01*
X30663000Y-72343000D01*
X30917000Y-72343000D01*
X30917000Y-72363000D01*
X30937000Y-72363000D01*
X30937000Y-72617000D01*
X30917000Y-72617000D01*
X30917000Y-73566250D01*
X31075750Y-73725000D01*
X31390000Y-73728072D01*
X31514482Y-73715812D01*
X31634180Y-73679502D01*
X31730879Y-73627814D01*
X31795312Y-73680693D01*
X31918134Y-73746342D01*
X32051404Y-73786769D01*
X32190000Y-73800420D01*
X33390000Y-73800420D01*
X33528596Y-73786769D01*
X33659697Y-73747000D01*
X34399462Y-73747000D01*
X34437463Y-73767312D01*
X34617631Y-73821966D01*
X34805000Y-73840420D01*
X36055000Y-73840420D01*
X36242369Y-73821966D01*
X36422537Y-73767312D01*
X36588581Y-73678560D01*
X36648908Y-73629051D01*
X36721419Y-73688560D01*
X36887463Y-73777312D01*
X37067631Y-73831966D01*
X37255000Y-73850420D01*
X38505000Y-73850420D01*
X38692369Y-73831966D01*
X38872537Y-73777312D01*
X38949580Y-73736132D01*
X38949580Y-74115000D01*
X38963231Y-74253596D01*
X38998556Y-74370046D01*
X38872537Y-74302688D01*
X38692369Y-74248034D01*
X38505000Y-74229580D01*
X37255000Y-74229580D01*
X37067631Y-74248034D01*
X36887463Y-74302688D01*
X36721419Y-74391440D01*
X36661092Y-74440949D01*
X36588581Y-74381440D01*
X36422537Y-74292688D01*
X36242369Y-74238034D01*
X36055000Y-74219580D01*
X34805000Y-74219580D01*
X34617631Y-74238034D01*
X34437463Y-74292688D01*
X34271419Y-74381440D01*
X34125881Y-74500881D01*
X34006440Y-74646419D01*
X33917688Y-74812463D01*
X33863034Y-74992631D01*
X33844580Y-75180000D01*
X33844580Y-75980000D01*
X33863034Y-76167369D01*
X33917688Y-76347537D01*
X34006440Y-76513581D01*
X34125881Y-76659119D01*
X34271419Y-76778560D01*
X34437463Y-76867312D01*
X34617631Y-76921966D01*
X34805000Y-76940420D01*
X36055000Y-76940420D01*
X36242369Y-76921966D01*
X36422537Y-76867312D01*
X36588581Y-76778560D01*
X36648908Y-76729051D01*
X36721419Y-76788560D01*
X36887463Y-76877312D01*
X37067631Y-76931966D01*
X37255000Y-76950420D01*
X38505000Y-76950420D01*
X38692369Y-76931966D01*
X38872537Y-76877312D01*
X39038581Y-76788560D01*
X39089222Y-76747000D01*
X40241924Y-76747000D01*
X40397208Y-76731706D01*
X40417930Y-76725420D01*
X40720000Y-76725420D01*
X40858596Y-76711769D01*
X40991866Y-76671342D01*
X41114688Y-76605693D01*
X41222343Y-76517343D01*
X41290000Y-76434903D01*
X41357657Y-76517343D01*
X41465312Y-76605693D01*
X41588134Y-76671342D01*
X41721404Y-76711769D01*
X41860000Y-76725420D01*
X42920000Y-76725420D01*
X43058596Y-76711769D01*
X43107283Y-76697000D01*
X43170534Y-76697000D01*
X43220000Y-76701872D01*
X43417406Y-76682429D01*
X43454212Y-76671264D01*
X43607227Y-76624848D01*
X43782166Y-76531341D01*
X43935502Y-76405502D01*
X43967043Y-76367069D01*
X44184036Y-76150076D01*
X44112442Y-76322918D01*
X44043000Y-76672026D01*
X44043000Y-77027974D01*
X44112442Y-77377082D01*
X44248658Y-77705935D01*
X44446412Y-78001895D01*
X44698105Y-78253588D01*
X44719674Y-78268000D01*
X23280326Y-78268000D01*
X23301895Y-78253588D01*
X23553588Y-78001895D01*
X23751342Y-77705935D01*
X23887558Y-77377082D01*
X23957000Y-77027974D01*
X23957000Y-76672026D01*
X23891951Y-76345000D01*
X24176928Y-76345000D01*
X24189188Y-76469482D01*
X24225498Y-76589180D01*
X24284463Y-76699494D01*
X24363815Y-76796185D01*
X24460506Y-76875537D01*
X24570820Y-76934502D01*
X24690518Y-76970812D01*
X24815000Y-76983072D01*
X25204250Y-76980000D01*
X25363000Y-76821250D01*
X25363000Y-75684500D01*
X25617000Y-75684500D01*
X25617000Y-76821250D01*
X25775750Y-76980000D01*
X26165000Y-76983072D01*
X26289482Y-76970812D01*
X26409180Y-76934502D01*
X26519494Y-76875537D01*
X26616185Y-76796185D01*
X26695537Y-76699494D01*
X26754502Y-76589180D01*
X26790812Y-76469482D01*
X26800000Y-76376192D01*
X26809188Y-76469482D01*
X26845498Y-76589180D01*
X26904463Y-76699494D01*
X26983815Y-76796185D01*
X27080506Y-76875537D01*
X27190820Y-76934502D01*
X27310518Y-76970812D01*
X27435000Y-76983072D01*
X27824250Y-76980000D01*
X27983000Y-76821250D01*
X27983000Y-75684500D01*
X28237000Y-75684500D01*
X28237000Y-76821250D01*
X28395750Y-76980000D01*
X28785000Y-76983072D01*
X28909482Y-76970812D01*
X29029180Y-76934502D01*
X29139494Y-76875537D01*
X29236185Y-76796185D01*
X29315537Y-76699494D01*
X29374502Y-76589180D01*
X29404587Y-76490000D01*
X30351928Y-76490000D01*
X30364188Y-76614482D01*
X30400498Y-76734180D01*
X30459463Y-76844494D01*
X30538815Y-76941185D01*
X30635506Y-77020537D01*
X30745820Y-77079502D01*
X30865518Y-77115812D01*
X30990000Y-77128072D01*
X31504250Y-77125000D01*
X31663000Y-76966250D01*
X31663000Y-75867000D01*
X31917000Y-75867000D01*
X31917000Y-76966250D01*
X32075750Y-77125000D01*
X32590000Y-77128072D01*
X32714482Y-77115812D01*
X32834180Y-77079502D01*
X32944494Y-77020537D01*
X33041185Y-76941185D01*
X33120537Y-76844494D01*
X33179502Y-76734180D01*
X33215812Y-76614482D01*
X33228072Y-76490000D01*
X33225000Y-76025750D01*
X33066250Y-75867000D01*
X31917000Y-75867000D01*
X31663000Y-75867000D01*
X30513750Y-75867000D01*
X30355000Y-76025750D01*
X30351928Y-76490000D01*
X29404587Y-76490000D01*
X29410812Y-76469482D01*
X29423072Y-76345000D01*
X29420000Y-75843250D01*
X29261250Y-75684500D01*
X28237000Y-75684500D01*
X27983000Y-75684500D01*
X26958750Y-75684500D01*
X26800000Y-75843250D01*
X26641250Y-75684500D01*
X25617000Y-75684500D01*
X25363000Y-75684500D01*
X24338750Y-75684500D01*
X24180000Y-75843250D01*
X24176928Y-76345000D01*
X23891951Y-76345000D01*
X23887558Y-76322918D01*
X23751342Y-75994065D01*
X23553588Y-75698105D01*
X23301895Y-75446412D01*
X23005935Y-75248658D01*
X22677082Y-75112442D01*
X22327974Y-75043000D01*
X21972026Y-75043000D01*
X21622918Y-75112442D01*
X21294065Y-75248658D01*
X20998105Y-75446412D01*
X20746412Y-75698105D01*
X20732000Y-75719674D01*
X20732000Y-69648957D01*
X20845377Y-69724713D01*
X21096885Y-69828891D01*
X21363885Y-69882000D01*
X21636115Y-69882000D01*
X21746717Y-69860000D01*
X26556928Y-69860000D01*
X26569188Y-69984482D01*
X26605498Y-70104180D01*
X26664463Y-70214494D01*
X26743815Y-70311185D01*
X26840506Y-70390537D01*
X26950820Y-70449502D01*
X27070518Y-70485812D01*
X27195000Y-70498072D01*
X27784250Y-70495000D01*
X27943000Y-70336250D01*
X27943000Y-69337000D01*
X26718750Y-69337000D01*
X26560000Y-69495750D01*
X26556928Y-69860000D01*
X21746717Y-69860000D01*
X21903115Y-69828891D01*
X22154623Y-69724713D01*
X22380974Y-69573470D01*
X22573470Y-69380974D01*
X22724713Y-69154623D01*
X22828891Y-68903115D01*
X22882000Y-68636115D01*
X22882000Y-68363885D01*
X22828891Y-68096885D01*
X22757000Y-67923325D01*
X22757000Y-67076675D01*
X22828891Y-66903115D01*
X22882000Y-66636115D01*
X22882000Y-66363885D01*
X22828891Y-66096885D01*
X22724713Y-65845377D01*
X22573470Y-65619026D01*
X22454444Y-65500000D01*
X22573470Y-65380974D01*
X22724713Y-65154623D01*
X22828891Y-64903115D01*
X22882000Y-64636115D01*
X22882000Y-64363885D01*
X22828891Y-64096885D01*
X22724713Y-63845377D01*
X22573470Y-63619026D01*
X22454444Y-63500000D01*
X22573470Y-63380974D01*
X22724713Y-63154623D01*
X22828891Y-62903115D01*
X22882000Y-62636115D01*
X22882000Y-62363885D01*
X22828891Y-62096885D01*
X22724713Y-61845377D01*
X22573470Y-61619026D01*
X22454444Y-61500000D01*
X22573470Y-61380974D01*
X22724713Y-61154623D01*
X22828891Y-60903115D01*
X22882000Y-60636115D01*
X22882000Y-60363885D01*
X22828891Y-60096885D01*
X22724713Y-59845377D01*
X22632252Y-59707000D01*
X23074580Y-59707000D01*
X23074580Y-60132635D01*
%TA.AperFunction,Conductor*%
D34*
G36*
X23074580Y-60132635D02*
G01*
X23065500Y-60224828D01*
X23065501Y-62029818D01*
X23061051Y-62075000D01*
X23078804Y-62255253D01*
X23131383Y-62428580D01*
X23192273Y-62542497D01*
X23216765Y-62588319D01*
X23331670Y-62728331D01*
X23366763Y-62757131D01*
X24207868Y-63598237D01*
X24236669Y-63633331D01*
X24376681Y-63748236D01*
X24536420Y-63833618D01*
X24695136Y-63881764D01*
X24709746Y-63886196D01*
X24889999Y-63903949D01*
X24935172Y-63899500D01*
X25405070Y-63899500D01*
X25391587Y-63910565D01*
X25353853Y-63935778D01*
X25321763Y-63967868D01*
X25286669Y-63996669D01*
X25257870Y-64031761D01*
X25225778Y-64063853D01*
X25200562Y-64101591D01*
X25171764Y-64136682D01*
X25150367Y-64176714D01*
X25125150Y-64214453D01*
X25107780Y-64256388D01*
X25086382Y-64296421D01*
X25073205Y-64339859D01*
X25055836Y-64381792D01*
X25046981Y-64426307D01*
X25033804Y-64469747D01*
X25029355Y-64514921D01*
X25020500Y-64559437D01*
X25020500Y-64618557D01*
X24960000Y-64625129D01*
X24866750Y-64615000D01*
X24799501Y-64682249D01*
X24722870Y-64724645D01*
X24684445Y-64757121D01*
X24681485Y-64753515D01*
X24570800Y-64662678D01*
X24444520Y-64595180D01*
X24307498Y-64553615D01*
X24165000Y-64539580D01*
X23805000Y-64539580D01*
X23662502Y-64553615D01*
X23525480Y-64595180D01*
X23399200Y-64662678D01*
X23288515Y-64753515D01*
X23197678Y-64864200D01*
X23130180Y-64990480D01*
X23088615Y-65127502D01*
X23074580Y-65270000D01*
X23074580Y-65892635D01*
X23065500Y-65984828D01*
X23065501Y-67169818D01*
X23061051Y-67215000D01*
X23078804Y-67395253D01*
X23131383Y-67568580D01*
X23214838Y-67724713D01*
X23216765Y-67728319D01*
X23331670Y-67868331D01*
X23335792Y-67871714D01*
X23339179Y-67875841D01*
X23479191Y-67990746D01*
X23503224Y-68003592D01*
X23645354Y-68145722D01*
X23674159Y-68180821D01*
X23814171Y-68295726D01*
X23973910Y-68381108D01*
X24142225Y-68432166D01*
X24147236Y-68433686D01*
X24327490Y-68451439D01*
X24372662Y-68446990D01*
X26568058Y-68446990D01*
X26556928Y-68560000D01*
X26560000Y-68924250D01*
X26718750Y-69083000D01*
X27943000Y-69083000D01*
X27943000Y-69063000D01*
X28197000Y-69063000D01*
X28197000Y-69083000D01*
X28217000Y-69083000D01*
X28217000Y-69337000D01*
X28197000Y-69337000D01*
X28197000Y-70336250D01*
X28276542Y-70415792D01*
X27485674Y-71206661D01*
X27317463Y-71257688D01*
X27151419Y-71346440D01*
X27055083Y-71425500D01*
X26544917Y-71425500D01*
X26448581Y-71346440D01*
X26282537Y-71257688D01*
X26102369Y-71203034D01*
X25915001Y-71184580D01*
X25064999Y-71184580D01*
X24877631Y-71203034D01*
X24697463Y-71257688D01*
X24531419Y-71346440D01*
X24385880Y-71465880D01*
X24266440Y-71611419D01*
X24177688Y-71777463D01*
X24123034Y-71957631D01*
X24104580Y-72144999D01*
X24104580Y-73220001D01*
X24123034Y-73407369D01*
X24177688Y-73587537D01*
X24266440Y-73753581D01*
X24385880Y-73899120D01*
X24531419Y-74018560D01*
X24697463Y-74107312D01*
X24787529Y-74134634D01*
X24690518Y-74144188D01*
X24570820Y-74180498D01*
X24460506Y-74239463D01*
X24363815Y-74318815D01*
X24284463Y-74415506D01*
X24225498Y-74525820D01*
X24189188Y-74645518D01*
X24176928Y-74770000D01*
X24180000Y-75271750D01*
X24338750Y-75430500D01*
X25363000Y-75430500D01*
X25363000Y-75410500D01*
X25617000Y-75410500D01*
X25617000Y-75430500D01*
X26641250Y-75430500D01*
X26800000Y-75271750D01*
X26958750Y-75430500D01*
X27983000Y-75430500D01*
X27983000Y-75410500D01*
X28237000Y-75410500D01*
X28237000Y-75430500D01*
X29261250Y-75430500D01*
X29420000Y-75271750D01*
X29421725Y-74990000D01*
X30351928Y-74990000D01*
X30355000Y-75454250D01*
X30513750Y-75613000D01*
X31663000Y-75613000D01*
X31663000Y-74513750D01*
X31917000Y-74513750D01*
X31917000Y-75613000D01*
X33066250Y-75613000D01*
X33225000Y-75454250D01*
X33228072Y-74990000D01*
X33215812Y-74865518D01*
X33179502Y-74745820D01*
X33120537Y-74635506D01*
X33041185Y-74538815D01*
X32944494Y-74459463D01*
X32834180Y-74400498D01*
X32714482Y-74364188D01*
X32590000Y-74351928D01*
X32075750Y-74355000D01*
X31917000Y-74513750D01*
X31663000Y-74513750D01*
X31504250Y-74355000D01*
X30990000Y-74351928D01*
X30865518Y-74364188D01*
X30745820Y-74400498D01*
X30635506Y-74459463D01*
X30538815Y-74538815D01*
X30459463Y-74635506D01*
X30400498Y-74745820D01*
X30364188Y-74865518D01*
X30351928Y-74990000D01*
X29421725Y-74990000D01*
X29423072Y-74770000D01*
X29410812Y-74645518D01*
X29374502Y-74525820D01*
X29315537Y-74415506D01*
X29236185Y-74318815D01*
X29139494Y-74239463D01*
X29029180Y-74180498D01*
X28909482Y-74144188D01*
X28812471Y-74134634D01*
X28902537Y-74107312D01*
X29068581Y-74018560D01*
X29214120Y-73899120D01*
X29333560Y-73753581D01*
X29422312Y-73587537D01*
X29476966Y-73407369D01*
X29495420Y-73220001D01*
X29495420Y-72752245D01*
X29630663Y-72617002D01*
X29713748Y-72617002D01*
X29555000Y-72775750D01*
X29551928Y-73090000D01*
X29564188Y-73214482D01*
X29600498Y-73334180D01*
X29659463Y-73444494D01*
X29738815Y-73541185D01*
X29835506Y-73620537D01*
X29945820Y-73679502D01*
X30065518Y-73715812D01*
X30190000Y-73728072D01*
X30504250Y-73725000D01*
X30663000Y-73566250D01*
X30663000Y-72617000D01*
X30643000Y-72617000D01*
X30643000Y-72363000D01*
X30663000Y-72363000D01*
X30663000Y-72343000D01*
X30917000Y-72343000D01*
X30917000Y-72363000D01*
X30937000Y-72363000D01*
X30937000Y-72617000D01*
X30917000Y-72617000D01*
X30917000Y-73566250D01*
X31075750Y-73725000D01*
X31390000Y-73728072D01*
X31514482Y-73715812D01*
X31634180Y-73679502D01*
X31730879Y-73627814D01*
X31795312Y-73680693D01*
X31918134Y-73746342D01*
X32051404Y-73786769D01*
X32190000Y-73800420D01*
X33390000Y-73800420D01*
X33528596Y-73786769D01*
X33659697Y-73747000D01*
X34399462Y-73747000D01*
X34437463Y-73767312D01*
X34617631Y-73821966D01*
X34805000Y-73840420D01*
X36055000Y-73840420D01*
X36242369Y-73821966D01*
X36422537Y-73767312D01*
X36588581Y-73678560D01*
X36648908Y-73629051D01*
X36721419Y-73688560D01*
X36887463Y-73777312D01*
X37067631Y-73831966D01*
X37255000Y-73850420D01*
X38505000Y-73850420D01*
X38692369Y-73831966D01*
X38872537Y-73777312D01*
X38949580Y-73736132D01*
X38949580Y-74115000D01*
X38963231Y-74253596D01*
X38998556Y-74370046D01*
X38872537Y-74302688D01*
X38692369Y-74248034D01*
X38505000Y-74229580D01*
X37255000Y-74229580D01*
X37067631Y-74248034D01*
X36887463Y-74302688D01*
X36721419Y-74391440D01*
X36661092Y-74440949D01*
X36588581Y-74381440D01*
X36422537Y-74292688D01*
X36242369Y-74238034D01*
X36055000Y-74219580D01*
X34805000Y-74219580D01*
X34617631Y-74238034D01*
X34437463Y-74292688D01*
X34271419Y-74381440D01*
X34125881Y-74500881D01*
X34006440Y-74646419D01*
X33917688Y-74812463D01*
X33863034Y-74992631D01*
X33844580Y-75180000D01*
X33844580Y-75980000D01*
X33863034Y-76167369D01*
X33917688Y-76347537D01*
X34006440Y-76513581D01*
X34125881Y-76659119D01*
X34271419Y-76778560D01*
X34437463Y-76867312D01*
X34617631Y-76921966D01*
X34805000Y-76940420D01*
X36055000Y-76940420D01*
X36242369Y-76921966D01*
X36422537Y-76867312D01*
X36588581Y-76778560D01*
X36648908Y-76729051D01*
X36721419Y-76788560D01*
X36887463Y-76877312D01*
X37067631Y-76931966D01*
X37255000Y-76950420D01*
X38505000Y-76950420D01*
X38692369Y-76931966D01*
X38872537Y-76877312D01*
X39038581Y-76788560D01*
X39089222Y-76747000D01*
X40241924Y-76747000D01*
X40397208Y-76731706D01*
X40417930Y-76725420D01*
X40720000Y-76725420D01*
X40858596Y-76711769D01*
X40991866Y-76671342D01*
X41114688Y-76605693D01*
X41222343Y-76517343D01*
X41290000Y-76434903D01*
X41357657Y-76517343D01*
X41465312Y-76605693D01*
X41588134Y-76671342D01*
X41721404Y-76711769D01*
X41860000Y-76725420D01*
X42920000Y-76725420D01*
X43058596Y-76711769D01*
X43107283Y-76697000D01*
X43170534Y-76697000D01*
X43220000Y-76701872D01*
X43417406Y-76682429D01*
X43454212Y-76671264D01*
X43607227Y-76624848D01*
X43782166Y-76531341D01*
X43935502Y-76405502D01*
X43967043Y-76367069D01*
X44184036Y-76150076D01*
X44112442Y-76322918D01*
X44043000Y-76672026D01*
X44043000Y-77027974D01*
X44112442Y-77377082D01*
X44248658Y-77705935D01*
X44446412Y-78001895D01*
X44698105Y-78253588D01*
X44719674Y-78268000D01*
X23280326Y-78268000D01*
X23301895Y-78253588D01*
X23553588Y-78001895D01*
X23751342Y-77705935D01*
X23887558Y-77377082D01*
X23957000Y-77027974D01*
X23957000Y-76672026D01*
X23891951Y-76345000D01*
X24176928Y-76345000D01*
X24189188Y-76469482D01*
X24225498Y-76589180D01*
X24284463Y-76699494D01*
X24363815Y-76796185D01*
X24460506Y-76875537D01*
X24570820Y-76934502D01*
X24690518Y-76970812D01*
X24815000Y-76983072D01*
X25204250Y-76980000D01*
X25363000Y-76821250D01*
X25363000Y-75684500D01*
X25617000Y-75684500D01*
X25617000Y-76821250D01*
X25775750Y-76980000D01*
X26165000Y-76983072D01*
X26289482Y-76970812D01*
X26409180Y-76934502D01*
X26519494Y-76875537D01*
X26616185Y-76796185D01*
X26695537Y-76699494D01*
X26754502Y-76589180D01*
X26790812Y-76469482D01*
X26800000Y-76376192D01*
X26809188Y-76469482D01*
X26845498Y-76589180D01*
X26904463Y-76699494D01*
X26983815Y-76796185D01*
X27080506Y-76875537D01*
X27190820Y-76934502D01*
X27310518Y-76970812D01*
X27435000Y-76983072D01*
X27824250Y-76980000D01*
X27983000Y-76821250D01*
X27983000Y-75684500D01*
X28237000Y-75684500D01*
X28237000Y-76821250D01*
X28395750Y-76980000D01*
X28785000Y-76983072D01*
X28909482Y-76970812D01*
X29029180Y-76934502D01*
X29139494Y-76875537D01*
X29236185Y-76796185D01*
X29315537Y-76699494D01*
X29374502Y-76589180D01*
X29404587Y-76490000D01*
X30351928Y-76490000D01*
X30364188Y-76614482D01*
X30400498Y-76734180D01*
X30459463Y-76844494D01*
X30538815Y-76941185D01*
X30635506Y-77020537D01*
X30745820Y-77079502D01*
X30865518Y-77115812D01*
X30990000Y-77128072D01*
X31504250Y-77125000D01*
X31663000Y-76966250D01*
X31663000Y-75867000D01*
X31917000Y-75867000D01*
X31917000Y-76966250D01*
X32075750Y-77125000D01*
X32590000Y-77128072D01*
X32714482Y-77115812D01*
X32834180Y-77079502D01*
X32944494Y-77020537D01*
X33041185Y-76941185D01*
X33120537Y-76844494D01*
X33179502Y-76734180D01*
X33215812Y-76614482D01*
X33228072Y-76490000D01*
X33225000Y-76025750D01*
X33066250Y-75867000D01*
X31917000Y-75867000D01*
X31663000Y-75867000D01*
X30513750Y-75867000D01*
X30355000Y-76025750D01*
X30351928Y-76490000D01*
X29404587Y-76490000D01*
X29410812Y-76469482D01*
X29423072Y-76345000D01*
X29420000Y-75843250D01*
X29261250Y-75684500D01*
X28237000Y-75684500D01*
X27983000Y-75684500D01*
X26958750Y-75684500D01*
X26800000Y-75843250D01*
X26641250Y-75684500D01*
X25617000Y-75684500D01*
X25363000Y-75684500D01*
X24338750Y-75684500D01*
X24180000Y-75843250D01*
X24176928Y-76345000D01*
X23891951Y-76345000D01*
X23887558Y-76322918D01*
X23751342Y-75994065D01*
X23553588Y-75698105D01*
X23301895Y-75446412D01*
X23005935Y-75248658D01*
X22677082Y-75112442D01*
X22327974Y-75043000D01*
X21972026Y-75043000D01*
X21622918Y-75112442D01*
X21294065Y-75248658D01*
X20998105Y-75446412D01*
X20746412Y-75698105D01*
X20732000Y-75719674D01*
X20732000Y-69648957D01*
X20845377Y-69724713D01*
X21096885Y-69828891D01*
X21363885Y-69882000D01*
X21636115Y-69882000D01*
X21746717Y-69860000D01*
X26556928Y-69860000D01*
X26569188Y-69984482D01*
X26605498Y-70104180D01*
X26664463Y-70214494D01*
X26743815Y-70311185D01*
X26840506Y-70390537D01*
X26950820Y-70449502D01*
X27070518Y-70485812D01*
X27195000Y-70498072D01*
X27784250Y-70495000D01*
X27943000Y-70336250D01*
X27943000Y-69337000D01*
X26718750Y-69337000D01*
X26560000Y-69495750D01*
X26556928Y-69860000D01*
X21746717Y-69860000D01*
X21903115Y-69828891D01*
X22154623Y-69724713D01*
X22380974Y-69573470D01*
X22573470Y-69380974D01*
X22724713Y-69154623D01*
X22828891Y-68903115D01*
X22882000Y-68636115D01*
X22882000Y-68363885D01*
X22828891Y-68096885D01*
X22757000Y-67923325D01*
X22757000Y-67076675D01*
X22828891Y-66903115D01*
X22882000Y-66636115D01*
X22882000Y-66363885D01*
X22828891Y-66096885D01*
X22724713Y-65845377D01*
X22573470Y-65619026D01*
X22454444Y-65500000D01*
X22573470Y-65380974D01*
X22724713Y-65154623D01*
X22828891Y-64903115D01*
X22882000Y-64636115D01*
X22882000Y-64363885D01*
X22828891Y-64096885D01*
X22724713Y-63845377D01*
X22573470Y-63619026D01*
X22454444Y-63500000D01*
X22573470Y-63380974D01*
X22724713Y-63154623D01*
X22828891Y-62903115D01*
X22882000Y-62636115D01*
X22882000Y-62363885D01*
X22828891Y-62096885D01*
X22724713Y-61845377D01*
X22573470Y-61619026D01*
X22454444Y-61500000D01*
X22573470Y-61380974D01*
X22724713Y-61154623D01*
X22828891Y-60903115D01*
X22882000Y-60636115D01*
X22882000Y-60363885D01*
X22828891Y-60096885D01*
X22724713Y-59845377D01*
X22632252Y-59707000D01*
X23074580Y-59707000D01*
X23074580Y-60132635D01*
G37*
%TD.AperFunction*%
D33*
X45275287Y-67154623D02*
X45426530Y-67380974D01*
X45545556Y-67500000D01*
X45426530Y-67619026D01*
X45275287Y-67845377D01*
X45171109Y-68096885D01*
X45118000Y-68363885D01*
X45118000Y-68636115D01*
X45171109Y-68903115D01*
X45275287Y-69154623D01*
X45426530Y-69380974D01*
X45493000Y-69447444D01*
X45493001Y-71992886D01*
X44901778Y-72584109D01*
X44944502Y-72504180D01*
X44980812Y-72384482D01*
X44993072Y-72260000D01*
X44990000Y-71895750D01*
X44831250Y-71737000D01*
X43607000Y-71737000D01*
X43607000Y-72736250D01*
X43765750Y-72895000D01*
X44355000Y-72898072D01*
X44479482Y-72885812D01*
X44599180Y-72849502D01*
X44679109Y-72806778D01*
X43630420Y-73855468D01*
X43630420Y-73465000D01*
X43616769Y-73326404D01*
X43576342Y-73193134D01*
X43510693Y-73070312D01*
X43422343Y-72962657D01*
X43314688Y-72874307D01*
X43249687Y-72839563D01*
X43353000Y-72736250D01*
X43353000Y-71737000D01*
X43333000Y-71737000D01*
X43333000Y-71483000D01*
X43353000Y-71483000D01*
X43353000Y-70483750D01*
X43607000Y-70483750D01*
X43607000Y-71483000D01*
X44831250Y-71483000D01*
X44990000Y-71324250D01*
X44993072Y-70960000D01*
X44980812Y-70835518D01*
X44944502Y-70715820D01*
X44885537Y-70605506D01*
X44806185Y-70508815D01*
X44709494Y-70429463D01*
X44599180Y-70370498D01*
X44479482Y-70334188D01*
X44355000Y-70321928D01*
X43765750Y-70325000D01*
X43607000Y-70483750D01*
X43353000Y-70483750D01*
X43194250Y-70325000D01*
X42605000Y-70321928D01*
X42480518Y-70334188D01*
X42360820Y-70370498D01*
X42327000Y-70388575D01*
X42327000Y-69711543D01*
X42487463Y-69797312D01*
X42667631Y-69851966D01*
X42855000Y-69870420D01*
X44105000Y-69870420D01*
X44292369Y-69851966D01*
X44472537Y-69797312D01*
X44638581Y-69708560D01*
X44784119Y-69589119D01*
X44903560Y-69443581D01*
X44992312Y-69277537D01*
X45046966Y-69097369D01*
X45065420Y-68910000D01*
X45065420Y-68110000D01*
X45046966Y-67922631D01*
X44992312Y-67742463D01*
X44903560Y-67576419D01*
X44848154Y-67508908D01*
X44893560Y-67453581D01*
X44966781Y-67316593D01*
X45000297Y-67298679D01*
X45142212Y-67182212D01*
X45171402Y-67146644D01*
X45242523Y-67075523D01*
X45275287Y-67154623D01*
%TA.AperFunction,Conductor*%
D34*
G36*
X45275287Y-67154623D02*
G01*
X45426530Y-67380974D01*
X45545556Y-67500000D01*
X45426530Y-67619026D01*
X45275287Y-67845377D01*
X45171109Y-68096885D01*
X45118000Y-68363885D01*
X45118000Y-68636115D01*
X45171109Y-68903115D01*
X45275287Y-69154623D01*
X45426530Y-69380974D01*
X45493000Y-69447444D01*
X45493001Y-71992886D01*
X44901778Y-72584109D01*
X44944502Y-72504180D01*
X44980812Y-72384482D01*
X44993072Y-72260000D01*
X44990000Y-71895750D01*
X44831250Y-71737000D01*
X43607000Y-71737000D01*
X43607000Y-72736250D01*
X43765750Y-72895000D01*
X44355000Y-72898072D01*
X44479482Y-72885812D01*
X44599180Y-72849502D01*
X44679109Y-72806778D01*
X43630420Y-73855468D01*
X43630420Y-73465000D01*
X43616769Y-73326404D01*
X43576342Y-73193134D01*
X43510693Y-73070312D01*
X43422343Y-72962657D01*
X43314688Y-72874307D01*
X43249687Y-72839563D01*
X43353000Y-72736250D01*
X43353000Y-71737000D01*
X43333000Y-71737000D01*
X43333000Y-71483000D01*
X43353000Y-71483000D01*
X43353000Y-70483750D01*
X43607000Y-70483750D01*
X43607000Y-71483000D01*
X44831250Y-71483000D01*
X44990000Y-71324250D01*
X44993072Y-70960000D01*
X44980812Y-70835518D01*
X44944502Y-70715820D01*
X44885537Y-70605506D01*
X44806185Y-70508815D01*
X44709494Y-70429463D01*
X44599180Y-70370498D01*
X44479482Y-70334188D01*
X44355000Y-70321928D01*
X43765750Y-70325000D01*
X43607000Y-70483750D01*
X43353000Y-70483750D01*
X43194250Y-70325000D01*
X42605000Y-70321928D01*
X42480518Y-70334188D01*
X42360820Y-70370498D01*
X42327000Y-70388575D01*
X42327000Y-69711543D01*
X42487463Y-69797312D01*
X42667631Y-69851966D01*
X42855000Y-69870420D01*
X44105000Y-69870420D01*
X44292369Y-69851966D01*
X44472537Y-69797312D01*
X44638581Y-69708560D01*
X44784119Y-69589119D01*
X44903560Y-69443581D01*
X44992312Y-69277537D01*
X45046966Y-69097369D01*
X45065420Y-68910000D01*
X45065420Y-68110000D01*
X45046966Y-67922631D01*
X44992312Y-67742463D01*
X44903560Y-67576419D01*
X44848154Y-67508908D01*
X44893560Y-67453581D01*
X44966781Y-67316593D01*
X45000297Y-67298679D01*
X45142212Y-67182212D01*
X45171402Y-67146644D01*
X45242523Y-67075523D01*
X45275287Y-67154623D01*
G37*
%TD.AperFunction*%
D33*
X36747000Y-60543000D02*
X36767000Y-60543000D01*
X36767000Y-60797000D01*
X36747000Y-60797000D01*
X36747000Y-61990155D01*
X36976890Y-62111476D01*
X37124099Y-62066825D01*
X37386920Y-61941641D01*
X37620269Y-61767588D01*
X37815178Y-61551355D01*
X37843992Y-61502982D01*
X37903000Y-61591294D01*
X37903001Y-63338240D01*
X37896918Y-63400000D01*
X37903000Y-63461751D01*
X37903000Y-63796335D01*
X37841866Y-63763658D01*
X37708596Y-63723231D01*
X37570000Y-63709580D01*
X35770000Y-63709580D01*
X35631404Y-63723231D01*
X35498134Y-63763658D01*
X35375312Y-63829307D01*
X35267657Y-63917657D01*
X35179307Y-64025312D01*
X35113658Y-64148134D01*
X35073231Y-64281404D01*
X35059580Y-64420000D01*
X35059580Y-66752755D01*
X34819335Y-66993000D01*
X34749731Y-66993000D01*
X34736769Y-66861404D01*
X34696342Y-66728134D01*
X34630693Y-66605312D01*
X34542343Y-66497657D01*
X34434688Y-66409307D01*
X34311866Y-66343658D01*
X34178596Y-66303231D01*
X34040000Y-66289580D01*
X33231651Y-66289580D01*
X33296616Y-66210420D01*
X34040000Y-66210420D01*
X34178596Y-66196769D01*
X34311866Y-66156342D01*
X34434688Y-66090693D01*
X34542343Y-66002343D01*
X34630693Y-65894688D01*
X34696342Y-65771866D01*
X34736769Y-65638596D01*
X34750420Y-65500000D01*
X34750420Y-63000000D01*
X34736769Y-62861404D01*
X34696342Y-62728134D01*
X34630693Y-62605312D01*
X34542343Y-62497657D01*
X34434688Y-62409307D01*
X34397000Y-62389163D01*
X34397000Y-62230420D01*
X34930000Y-62230420D01*
X35068596Y-62216769D01*
X35201866Y-62176342D01*
X35324688Y-62110693D01*
X35432343Y-62022343D01*
X35520693Y-61914688D01*
X35586342Y-61791866D01*
X35600259Y-61745986D01*
X35619731Y-61767588D01*
X35853080Y-61941641D01*
X36115901Y-62066825D01*
X36263110Y-62111476D01*
X36493000Y-61990155D01*
X36493000Y-60797000D01*
X36473000Y-60797000D01*
X36473000Y-60543000D01*
X36493000Y-60543000D01*
X36493000Y-60523000D01*
X36747000Y-60523000D01*
X36747000Y-60543000D01*
%TA.AperFunction,Conductor*%
D34*
G36*
X36747000Y-60543000D02*
G01*
X36767000Y-60543000D01*
X36767000Y-60797000D01*
X36747000Y-60797000D01*
X36747000Y-61990155D01*
X36976890Y-62111476D01*
X37124099Y-62066825D01*
X37386920Y-61941641D01*
X37620269Y-61767588D01*
X37815178Y-61551355D01*
X37843992Y-61502982D01*
X37903000Y-61591294D01*
X37903001Y-63338240D01*
X37896918Y-63400000D01*
X37903000Y-63461751D01*
X37903000Y-63796335D01*
X37841866Y-63763658D01*
X37708596Y-63723231D01*
X37570000Y-63709580D01*
X35770000Y-63709580D01*
X35631404Y-63723231D01*
X35498134Y-63763658D01*
X35375312Y-63829307D01*
X35267657Y-63917657D01*
X35179307Y-64025312D01*
X35113658Y-64148134D01*
X35073231Y-64281404D01*
X35059580Y-64420000D01*
X35059580Y-66752755D01*
X34819335Y-66993000D01*
X34749731Y-66993000D01*
X34736769Y-66861404D01*
X34696342Y-66728134D01*
X34630693Y-66605312D01*
X34542343Y-66497657D01*
X34434688Y-66409307D01*
X34311866Y-66343658D01*
X34178596Y-66303231D01*
X34040000Y-66289580D01*
X33231651Y-66289580D01*
X33296616Y-66210420D01*
X34040000Y-66210420D01*
X34178596Y-66196769D01*
X34311866Y-66156342D01*
X34434688Y-66090693D01*
X34542343Y-66002343D01*
X34630693Y-65894688D01*
X34696342Y-65771866D01*
X34736769Y-65638596D01*
X34750420Y-65500000D01*
X34750420Y-63000000D01*
X34736769Y-62861404D01*
X34696342Y-62728134D01*
X34630693Y-62605312D01*
X34542343Y-62497657D01*
X34434688Y-62409307D01*
X34397000Y-62389163D01*
X34397000Y-62230420D01*
X34930000Y-62230420D01*
X35068596Y-62216769D01*
X35201866Y-62176342D01*
X35324688Y-62110693D01*
X35432343Y-62022343D01*
X35520693Y-61914688D01*
X35586342Y-61791866D01*
X35600259Y-61745986D01*
X35619731Y-61767588D01*
X35853080Y-61941641D01*
X36115901Y-62066825D01*
X36263110Y-62111476D01*
X36493000Y-61990155D01*
X36493000Y-60797000D01*
X36473000Y-60797000D01*
X36473000Y-60543000D01*
X36493000Y-60543000D01*
X36493000Y-60523000D01*
X36747000Y-60523000D01*
X36747000Y-60543000D01*
G37*
%TD.AperFunction*%
D33*
X45364577Y-47711746D02*
X45275287Y-47845377D01*
X45171109Y-48096885D01*
X45118000Y-48363885D01*
X45118000Y-48636115D01*
X45171109Y-48903115D01*
X45275287Y-49154623D01*
X45426530Y-49380974D01*
X45601094Y-49555538D01*
X45521697Y-49628773D01*
X45370527Y-49836371D01*
X45262762Y-50069472D01*
X45232090Y-50170600D01*
X45355776Y-50373000D01*
X46373000Y-50373000D01*
X46373000Y-50353000D01*
X46627000Y-50353000D01*
X46627000Y-50373000D01*
X46647000Y-50373000D01*
X46647000Y-50627000D01*
X46627000Y-50627000D01*
X46627000Y-52373000D01*
X46647000Y-52373000D01*
X46647000Y-52627000D01*
X46627000Y-52627000D01*
X46627000Y-52647000D01*
X46373000Y-52647000D01*
X46373000Y-52627000D01*
X45355776Y-52627000D01*
X45232090Y-52829400D01*
X45262762Y-52930528D01*
X45370527Y-53163629D01*
X45521697Y-53371227D01*
X45601094Y-53444462D01*
X45426530Y-53619026D01*
X45275287Y-53845377D01*
X45171109Y-54096885D01*
X45118000Y-54363885D01*
X45118000Y-54636115D01*
X45171109Y-54903115D01*
X45275287Y-55154623D01*
X45426530Y-55380974D01*
X45545556Y-55500000D01*
X45426530Y-55619026D01*
X45275287Y-55845377D01*
X45171109Y-56096885D01*
X45118000Y-56363885D01*
X45118000Y-56636115D01*
X45171109Y-56903115D01*
X45275287Y-57154623D01*
X45426530Y-57380974D01*
X45545556Y-57500000D01*
X45426530Y-57619026D01*
X45275287Y-57845377D01*
X45171109Y-58096885D01*
X45118000Y-58363885D01*
X45118000Y-58636115D01*
X45171109Y-58903115D01*
X45275287Y-59154623D01*
X45426530Y-59380974D01*
X45545556Y-59500000D01*
X45426530Y-59619026D01*
X45275287Y-59845377D01*
X45171109Y-60096885D01*
X45118000Y-60363885D01*
X45118000Y-60636115D01*
X45171109Y-60903115D01*
X45275287Y-61154623D01*
X45426530Y-61380974D01*
X45545556Y-61500000D01*
X45426530Y-61619026D01*
X45275287Y-61845377D01*
X45171109Y-62096885D01*
X45118000Y-62363885D01*
X45118000Y-62636115D01*
X45171109Y-62903115D01*
X45275287Y-63154623D01*
X45426530Y-63380974D01*
X45545556Y-63500000D01*
X45426530Y-63619026D01*
X45275287Y-63845377D01*
X45171109Y-64096885D01*
X45118000Y-64363885D01*
X45118000Y-64563953D01*
X44452355Y-65229599D01*
X44282369Y-65178034D01*
X44095000Y-65159580D01*
X42845000Y-65159580D01*
X42657631Y-65178034D01*
X42477463Y-65232688D01*
X42311419Y-65321440D01*
X42165881Y-65440881D01*
X42046440Y-65586419D01*
X41980420Y-65709934D01*
X41980420Y-64677000D01*
X42420753Y-64677000D01*
X42477463Y-64707312D01*
X42657631Y-64761966D01*
X42845000Y-64780420D01*
X44095000Y-64780420D01*
X44282369Y-64761966D01*
X44462537Y-64707312D01*
X44628581Y-64618560D01*
X44774119Y-64499119D01*
X44893560Y-64353581D01*
X44982312Y-64187537D01*
X45036966Y-64007369D01*
X45055420Y-63820000D01*
X45055420Y-63020000D01*
X45036966Y-62832631D01*
X44982312Y-62652463D01*
X44893560Y-62486419D01*
X44774119Y-62340881D01*
X44628581Y-62221440D01*
X44462537Y-62132688D01*
X44282369Y-62078034D01*
X44095000Y-62059580D01*
X42845000Y-62059580D01*
X42657631Y-62078034D01*
X42477463Y-62132688D01*
X42420753Y-62163000D01*
X42164218Y-62163000D01*
X42437516Y-62049796D01*
X42692530Y-61879401D01*
X42909401Y-61662530D01*
X43079796Y-61407516D01*
X43197166Y-61124160D01*
X43257000Y-60823351D01*
X43257000Y-60516649D01*
X43197166Y-60215840D01*
X43079796Y-59932484D01*
X42909401Y-59677470D01*
X42692530Y-59460599D01*
X42437516Y-59290204D01*
X42154160Y-59172834D01*
X41853351Y-59113000D01*
X41546649Y-59113000D01*
X41245840Y-59172834D01*
X40962484Y-59290204D01*
X40707470Y-59460599D01*
X40490599Y-59677470D01*
X40430000Y-59768163D01*
X40369401Y-59677470D01*
X40367000Y-59675069D01*
X40367000Y-59089288D01*
X40372839Y-59030000D01*
X40367000Y-58970712D01*
X40367000Y-58970705D01*
X40349835Y-58796420D01*
X40349536Y-58793386D01*
X40280518Y-58565866D01*
X40244413Y-58498318D01*
X40168440Y-58356182D01*
X40017607Y-58172393D01*
X39971549Y-58134594D01*
X39271265Y-57434311D01*
X39427860Y-57418887D01*
X39589268Y-57369924D01*
X39738024Y-57290413D01*
X39745000Y-57284688D01*
X39751976Y-57290413D01*
X39900732Y-57369924D01*
X40062140Y-57418887D01*
X40230000Y-57435420D01*
X40530000Y-57435420D01*
X40697860Y-57418887D01*
X40859268Y-57369924D01*
X41008024Y-57290413D01*
X41138409Y-57183409D01*
X41245413Y-57053024D01*
X41324924Y-56904268D01*
X41373887Y-56742860D01*
X41390420Y-56575000D01*
X41390420Y-56034029D01*
X41392429Y-56027406D01*
X41398050Y-55970339D01*
X41411872Y-55830001D01*
X41407000Y-55780535D01*
X41407000Y-54100819D01*
X41397301Y-54052060D01*
X41392429Y-54002594D01*
X41377999Y-53955026D01*
X41368301Y-53906269D01*
X41349279Y-53860346D01*
X41334848Y-53812773D01*
X41311412Y-53768927D01*
X41292391Y-53723007D01*
X41264776Y-53681678D01*
X41241341Y-53637834D01*
X41209805Y-53599407D01*
X41182188Y-53558075D01*
X41147038Y-53522925D01*
X41115502Y-53484498D01*
X41077075Y-53452962D01*
X41041925Y-53417812D01*
X41000593Y-53390195D01*
X40962166Y-53358659D01*
X40918323Y-53335224D01*
X40876993Y-53307609D01*
X40831070Y-53288587D01*
X40787226Y-53265152D01*
X40739657Y-53250722D01*
X40693731Y-53231699D01*
X40644971Y-53222000D01*
X40597405Y-53207571D01*
X40547941Y-53202699D01*
X40499181Y-53193000D01*
X40449465Y-53193000D01*
X40400000Y-53188128D01*
X40350534Y-53193000D01*
X40300819Y-53193000D01*
X40252059Y-53202699D01*
X40202594Y-53207571D01*
X40155026Y-53222001D01*
X40106269Y-53231699D01*
X40060346Y-53250721D01*
X40012773Y-53265152D01*
X39968927Y-53288588D01*
X39923007Y-53307609D01*
X39881678Y-53335224D01*
X39837834Y-53358659D01*
X39799407Y-53390195D01*
X39766400Y-53412250D01*
X39731266Y-53393471D01*
X39681729Y-53360371D01*
X39626684Y-53337570D01*
X39574134Y-53309482D01*
X39517119Y-53292186D01*
X39462069Y-53269384D01*
X39403629Y-53257760D01*
X39346613Y-53240464D01*
X39287317Y-53234624D01*
X39228879Y-53223000D01*
X39169295Y-53223000D01*
X39110000Y-53217160D01*
X39050705Y-53223000D01*
X38991121Y-53223000D01*
X38932682Y-53234624D01*
X38873388Y-53240464D01*
X38816374Y-53257759D01*
X38757931Y-53269384D01*
X38702879Y-53292188D01*
X38645867Y-53309482D01*
X38593321Y-53337568D01*
X38538271Y-53360371D01*
X38488730Y-53393473D01*
X38436183Y-53421560D01*
X38390129Y-53459356D01*
X38340582Y-53492462D01*
X38298442Y-53534602D01*
X38252394Y-53572393D01*
X38214603Y-53618441D01*
X38172462Y-53660582D01*
X38139355Y-53710130D01*
X38101561Y-53756182D01*
X38073474Y-53808728D01*
X38040371Y-53858271D01*
X38017569Y-53913318D01*
X37989482Y-53965866D01*
X37972186Y-54022881D01*
X37949384Y-54077931D01*
X37937760Y-54136371D01*
X37920464Y-54193387D01*
X37914624Y-54252683D01*
X37912258Y-54264580D01*
X37690000Y-54264580D01*
X37522140Y-54281113D01*
X37360732Y-54330076D01*
X37211976Y-54409587D01*
X37205000Y-54415312D01*
X37198024Y-54409587D01*
X37049268Y-54330076D01*
X36887860Y-54281113D01*
X36720000Y-54264580D01*
X36420000Y-54264580D01*
X36252140Y-54281113D01*
X36090732Y-54330076D01*
X35941976Y-54409587D01*
X35811591Y-54516591D01*
X35704587Y-54646976D01*
X35627000Y-54792132D01*
X35627000Y-54622791D01*
X35707312Y-54472537D01*
X35761966Y-54292369D01*
X35780420Y-54105000D01*
X35780420Y-52855000D01*
X35761966Y-52667631D01*
X35707312Y-52487463D01*
X35618560Y-52321419D01*
X35614500Y-52316472D01*
X35614500Y-52172015D01*
X35624120Y-52164120D01*
X35743560Y-52018581D01*
X35765593Y-51977360D01*
X35811591Y-52033409D01*
X35941976Y-52140413D01*
X36090732Y-52219924D01*
X36252140Y-52268887D01*
X36420000Y-52285420D01*
X36720000Y-52285420D01*
X36887860Y-52268887D01*
X37049268Y-52219924D01*
X37198024Y-52140413D01*
X37205000Y-52134688D01*
X37211976Y-52140413D01*
X37360732Y-52219924D01*
X37522140Y-52268887D01*
X37690000Y-52285420D01*
X37990000Y-52285420D01*
X38157860Y-52268887D01*
X38319268Y-52219924D01*
X38468024Y-52140413D01*
X38475000Y-52134688D01*
X38481976Y-52140413D01*
X38630732Y-52219924D01*
X38792140Y-52268887D01*
X38960000Y-52285420D01*
X39260000Y-52285420D01*
X39427860Y-52268887D01*
X39589268Y-52219924D01*
X39738024Y-52140413D01*
X39745000Y-52134688D01*
X39751976Y-52140413D01*
X39900732Y-52219924D01*
X39914218Y-52224015D01*
X41539580Y-53849378D01*
X41539580Y-54300000D01*
X41553231Y-54438596D01*
X41593658Y-54571866D01*
X41659307Y-54694688D01*
X41747657Y-54802343D01*
X41855312Y-54890693D01*
X41978134Y-54956342D01*
X42111404Y-54996769D01*
X42250000Y-55010420D01*
X44050000Y-55010420D01*
X44188596Y-54996769D01*
X44321866Y-54956342D01*
X44444688Y-54890693D01*
X44552343Y-54802343D01*
X44640693Y-54694688D01*
X44706342Y-54571866D01*
X44746769Y-54438596D01*
X44760420Y-54300000D01*
X44760420Y-51800000D01*
X44746769Y-51661404D01*
X44706342Y-51528134D01*
X44640693Y-51405312D01*
X44552343Y-51297657D01*
X44444688Y-51209307D01*
X44321866Y-51143658D01*
X44188596Y-51103231D01*
X44050000Y-51089580D01*
X42759378Y-51089580D01*
X42680218Y-51010420D01*
X44050000Y-51010420D01*
X44188596Y-50996769D01*
X44321866Y-50956342D01*
X44444688Y-50890693D01*
X44519373Y-50829400D01*
X45232090Y-50829400D01*
X45262762Y-50930528D01*
X45370527Y-51163629D01*
X45521697Y-51371227D01*
X45661304Y-51500000D01*
X45521697Y-51628773D01*
X45370527Y-51836371D01*
X45262762Y-52069472D01*
X45232090Y-52170600D01*
X45355776Y-52373000D01*
X46373000Y-52373000D01*
X46373000Y-50627000D01*
X45355776Y-50627000D01*
X45232090Y-50829400D01*
X44519373Y-50829400D01*
X44552343Y-50802343D01*
X44640693Y-50694688D01*
X44706342Y-50571866D01*
X44746769Y-50438596D01*
X44760420Y-50300000D01*
X44760420Y-47800000D01*
X44751260Y-47707000D01*
X45358794Y-47707000D01*
X45364577Y-47711746D01*
%TA.AperFunction,Conductor*%
D34*
G36*
X45364577Y-47711746D02*
G01*
X45275287Y-47845377D01*
X45171109Y-48096885D01*
X45118000Y-48363885D01*
X45118000Y-48636115D01*
X45171109Y-48903115D01*
X45275287Y-49154623D01*
X45426530Y-49380974D01*
X45601094Y-49555538D01*
X45521697Y-49628773D01*
X45370527Y-49836371D01*
X45262762Y-50069472D01*
X45232090Y-50170600D01*
X45355776Y-50373000D01*
X46373000Y-50373000D01*
X46373000Y-50353000D01*
X46627000Y-50353000D01*
X46627000Y-50373000D01*
X46647000Y-50373000D01*
X46647000Y-50627000D01*
X46627000Y-50627000D01*
X46627000Y-52373000D01*
X46647000Y-52373000D01*
X46647000Y-52627000D01*
X46627000Y-52627000D01*
X46627000Y-52647000D01*
X46373000Y-52647000D01*
X46373000Y-52627000D01*
X45355776Y-52627000D01*
X45232090Y-52829400D01*
X45262762Y-52930528D01*
X45370527Y-53163629D01*
X45521697Y-53371227D01*
X45601094Y-53444462D01*
X45426530Y-53619026D01*
X45275287Y-53845377D01*
X45171109Y-54096885D01*
X45118000Y-54363885D01*
X45118000Y-54636115D01*
X45171109Y-54903115D01*
X45275287Y-55154623D01*
X45426530Y-55380974D01*
X45545556Y-55500000D01*
X45426530Y-55619026D01*
X45275287Y-55845377D01*
X45171109Y-56096885D01*
X45118000Y-56363885D01*
X45118000Y-56636115D01*
X45171109Y-56903115D01*
X45275287Y-57154623D01*
X45426530Y-57380974D01*
X45545556Y-57500000D01*
X45426530Y-57619026D01*
X45275287Y-57845377D01*
X45171109Y-58096885D01*
X45118000Y-58363885D01*
X45118000Y-58636115D01*
X45171109Y-58903115D01*
X45275287Y-59154623D01*
X45426530Y-59380974D01*
X45545556Y-59500000D01*
X45426530Y-59619026D01*
X45275287Y-59845377D01*
X45171109Y-60096885D01*
X45118000Y-60363885D01*
X45118000Y-60636115D01*
X45171109Y-60903115D01*
X45275287Y-61154623D01*
X45426530Y-61380974D01*
X45545556Y-61500000D01*
X45426530Y-61619026D01*
X45275287Y-61845377D01*
X45171109Y-62096885D01*
X45118000Y-62363885D01*
X45118000Y-62636115D01*
X45171109Y-62903115D01*
X45275287Y-63154623D01*
X45426530Y-63380974D01*
X45545556Y-63500000D01*
X45426530Y-63619026D01*
X45275287Y-63845377D01*
X45171109Y-64096885D01*
X45118000Y-64363885D01*
X45118000Y-64563953D01*
X44452355Y-65229599D01*
X44282369Y-65178034D01*
X44095000Y-65159580D01*
X42845000Y-65159580D01*
X42657631Y-65178034D01*
X42477463Y-65232688D01*
X42311419Y-65321440D01*
X42165881Y-65440881D01*
X42046440Y-65586419D01*
X41980420Y-65709934D01*
X41980420Y-64677000D01*
X42420753Y-64677000D01*
X42477463Y-64707312D01*
X42657631Y-64761966D01*
X42845000Y-64780420D01*
X44095000Y-64780420D01*
X44282369Y-64761966D01*
X44462537Y-64707312D01*
X44628581Y-64618560D01*
X44774119Y-64499119D01*
X44893560Y-64353581D01*
X44982312Y-64187537D01*
X45036966Y-64007369D01*
X45055420Y-63820000D01*
X45055420Y-63020000D01*
X45036966Y-62832631D01*
X44982312Y-62652463D01*
X44893560Y-62486419D01*
X44774119Y-62340881D01*
X44628581Y-62221440D01*
X44462537Y-62132688D01*
X44282369Y-62078034D01*
X44095000Y-62059580D01*
X42845000Y-62059580D01*
X42657631Y-62078034D01*
X42477463Y-62132688D01*
X42420753Y-62163000D01*
X42164218Y-62163000D01*
X42437516Y-62049796D01*
X42692530Y-61879401D01*
X42909401Y-61662530D01*
X43079796Y-61407516D01*
X43197166Y-61124160D01*
X43257000Y-60823351D01*
X43257000Y-60516649D01*
X43197166Y-60215840D01*
X43079796Y-59932484D01*
X42909401Y-59677470D01*
X42692530Y-59460599D01*
X42437516Y-59290204D01*
X42154160Y-59172834D01*
X41853351Y-59113000D01*
X41546649Y-59113000D01*
X41245840Y-59172834D01*
X40962484Y-59290204D01*
X40707470Y-59460599D01*
X40490599Y-59677470D01*
X40430000Y-59768163D01*
X40369401Y-59677470D01*
X40367000Y-59675069D01*
X40367000Y-59089288D01*
X40372839Y-59030000D01*
X40367000Y-58970712D01*
X40367000Y-58970705D01*
X40349835Y-58796420D01*
X40349536Y-58793386D01*
X40280518Y-58565866D01*
X40244413Y-58498318D01*
X40168440Y-58356182D01*
X40017607Y-58172393D01*
X39971549Y-58134594D01*
X39271265Y-57434311D01*
X39427860Y-57418887D01*
X39589268Y-57369924D01*
X39738024Y-57290413D01*
X39745000Y-57284688D01*
X39751976Y-57290413D01*
X39900732Y-57369924D01*
X40062140Y-57418887D01*
X40230000Y-57435420D01*
X40530000Y-57435420D01*
X40697860Y-57418887D01*
X40859268Y-57369924D01*
X41008024Y-57290413D01*
X41138409Y-57183409D01*
X41245413Y-57053024D01*
X41324924Y-56904268D01*
X41373887Y-56742860D01*
X41390420Y-56575000D01*
X41390420Y-56034029D01*
X41392429Y-56027406D01*
X41398050Y-55970339D01*
X41411872Y-55830001D01*
X41407000Y-55780535D01*
X41407000Y-54100819D01*
X41397301Y-54052060D01*
X41392429Y-54002594D01*
X41377999Y-53955026D01*
X41368301Y-53906269D01*
X41349279Y-53860346D01*
X41334848Y-53812773D01*
X41311412Y-53768927D01*
X41292391Y-53723007D01*
X41264776Y-53681678D01*
X41241341Y-53637834D01*
X41209805Y-53599407D01*
X41182188Y-53558075D01*
X41147038Y-53522925D01*
X41115502Y-53484498D01*
X41077075Y-53452962D01*
X41041925Y-53417812D01*
X41000593Y-53390195D01*
X40962166Y-53358659D01*
X40918323Y-53335224D01*
X40876993Y-53307609D01*
X40831070Y-53288587D01*
X40787226Y-53265152D01*
X40739657Y-53250722D01*
X40693731Y-53231699D01*
X40644971Y-53222000D01*
X40597405Y-53207571D01*
X40547941Y-53202699D01*
X40499181Y-53193000D01*
X40449465Y-53193000D01*
X40400000Y-53188128D01*
X40350534Y-53193000D01*
X40300819Y-53193000D01*
X40252059Y-53202699D01*
X40202594Y-53207571D01*
X40155026Y-53222001D01*
X40106269Y-53231699D01*
X40060346Y-53250721D01*
X40012773Y-53265152D01*
X39968927Y-53288588D01*
X39923007Y-53307609D01*
X39881678Y-53335224D01*
X39837834Y-53358659D01*
X39799407Y-53390195D01*
X39766400Y-53412250D01*
X39731266Y-53393471D01*
X39681729Y-53360371D01*
X39626684Y-53337570D01*
X39574134Y-53309482D01*
X39517119Y-53292186D01*
X39462069Y-53269384D01*
X39403629Y-53257760D01*
X39346613Y-53240464D01*
X39287317Y-53234624D01*
X39228879Y-53223000D01*
X39169295Y-53223000D01*
X39110000Y-53217160D01*
X39050705Y-53223000D01*
X38991121Y-53223000D01*
X38932682Y-53234624D01*
X38873388Y-53240464D01*
X38816374Y-53257759D01*
X38757931Y-53269384D01*
X38702879Y-53292188D01*
X38645867Y-53309482D01*
X38593321Y-53337568D01*
X38538271Y-53360371D01*
X38488730Y-53393473D01*
X38436183Y-53421560D01*
X38390129Y-53459356D01*
X38340582Y-53492462D01*
X38298442Y-53534602D01*
X38252394Y-53572393D01*
X38214603Y-53618441D01*
X38172462Y-53660582D01*
X38139355Y-53710130D01*
X38101561Y-53756182D01*
X38073474Y-53808728D01*
X38040371Y-53858271D01*
X38017569Y-53913318D01*
X37989482Y-53965866D01*
X37972186Y-54022881D01*
X37949384Y-54077931D01*
X37937760Y-54136371D01*
X37920464Y-54193387D01*
X37914624Y-54252683D01*
X37912258Y-54264580D01*
X37690000Y-54264580D01*
X37522140Y-54281113D01*
X37360732Y-54330076D01*
X37211976Y-54409587D01*
X37205000Y-54415312D01*
X37198024Y-54409587D01*
X37049268Y-54330076D01*
X36887860Y-54281113D01*
X36720000Y-54264580D01*
X36420000Y-54264580D01*
X36252140Y-54281113D01*
X36090732Y-54330076D01*
X35941976Y-54409587D01*
X35811591Y-54516591D01*
X35704587Y-54646976D01*
X35627000Y-54792132D01*
X35627000Y-54622791D01*
X35707312Y-54472537D01*
X35761966Y-54292369D01*
X35780420Y-54105000D01*
X35780420Y-52855000D01*
X35761966Y-52667631D01*
X35707312Y-52487463D01*
X35618560Y-52321419D01*
X35614500Y-52316472D01*
X35614500Y-52172015D01*
X35624120Y-52164120D01*
X35743560Y-52018581D01*
X35765593Y-51977360D01*
X35811591Y-52033409D01*
X35941976Y-52140413D01*
X36090732Y-52219924D01*
X36252140Y-52268887D01*
X36420000Y-52285420D01*
X36720000Y-52285420D01*
X36887860Y-52268887D01*
X37049268Y-52219924D01*
X37198024Y-52140413D01*
X37205000Y-52134688D01*
X37211976Y-52140413D01*
X37360732Y-52219924D01*
X37522140Y-52268887D01*
X37690000Y-52285420D01*
X37990000Y-52285420D01*
X38157860Y-52268887D01*
X38319268Y-52219924D01*
X38468024Y-52140413D01*
X38475000Y-52134688D01*
X38481976Y-52140413D01*
X38630732Y-52219924D01*
X38792140Y-52268887D01*
X38960000Y-52285420D01*
X39260000Y-52285420D01*
X39427860Y-52268887D01*
X39589268Y-52219924D01*
X39738024Y-52140413D01*
X39745000Y-52134688D01*
X39751976Y-52140413D01*
X39900732Y-52219924D01*
X39914218Y-52224015D01*
X41539580Y-53849378D01*
X41539580Y-54300000D01*
X41553231Y-54438596D01*
X41593658Y-54571866D01*
X41659307Y-54694688D01*
X41747657Y-54802343D01*
X41855312Y-54890693D01*
X41978134Y-54956342D01*
X42111404Y-54996769D01*
X42250000Y-55010420D01*
X44050000Y-55010420D01*
X44188596Y-54996769D01*
X44321866Y-54956342D01*
X44444688Y-54890693D01*
X44552343Y-54802343D01*
X44640693Y-54694688D01*
X44706342Y-54571866D01*
X44746769Y-54438596D01*
X44760420Y-54300000D01*
X44760420Y-51800000D01*
X44746769Y-51661404D01*
X44706342Y-51528134D01*
X44640693Y-51405312D01*
X44552343Y-51297657D01*
X44444688Y-51209307D01*
X44321866Y-51143658D01*
X44188596Y-51103231D01*
X44050000Y-51089580D01*
X42759378Y-51089580D01*
X42680218Y-51010420D01*
X44050000Y-51010420D01*
X44188596Y-50996769D01*
X44321866Y-50956342D01*
X44444688Y-50890693D01*
X44519373Y-50829400D01*
X45232090Y-50829400D01*
X45262762Y-50930528D01*
X45370527Y-51163629D01*
X45521697Y-51371227D01*
X45661304Y-51500000D01*
X45521697Y-51628773D01*
X45370527Y-51836371D01*
X45262762Y-52069472D01*
X45232090Y-52170600D01*
X45355776Y-52373000D01*
X46373000Y-52373000D01*
X46373000Y-50627000D01*
X45355776Y-50627000D01*
X45232090Y-50829400D01*
X44519373Y-50829400D01*
X44552343Y-50802343D01*
X44640693Y-50694688D01*
X44706342Y-50571866D01*
X44746769Y-50438596D01*
X44760420Y-50300000D01*
X44760420Y-47800000D01*
X44751260Y-47707000D01*
X45358794Y-47707000D01*
X45364577Y-47711746D01*
G37*
%TD.AperFunction*%
D33*
X24330000Y-41054250D02*
X24488750Y-41213000D01*
X25713000Y-41213000D01*
X25713000Y-41193000D01*
X25967000Y-41193000D01*
X25967000Y-41213000D01*
X27191250Y-41213000D01*
X27350000Y-41054250D01*
X27352718Y-40732000D01*
X29642755Y-40732000D01*
X29634580Y-40815000D01*
X29634580Y-42165000D01*
X29648231Y-42303596D01*
X29688658Y-42436866D01*
X29754307Y-42559688D01*
X29842657Y-42667343D01*
X29893361Y-42708955D01*
X29899482Y-42729133D01*
X30011561Y-42938818D01*
X30124595Y-43076549D01*
X31389597Y-44341553D01*
X31427393Y-44387607D01*
X31473446Y-44425402D01*
X31473449Y-44425405D01*
X31514358Y-44458978D01*
X31611182Y-44538440D01*
X31820866Y-44650518D01*
X32048387Y-44719536D01*
X32225705Y-44737000D01*
X32225714Y-44737000D01*
X32284999Y-44742839D01*
X32344284Y-44737000D01*
X32723369Y-44737000D01*
X32721861Y-44752311D01*
X32215750Y-44754000D01*
X32057000Y-44912750D01*
X32057000Y-46913000D01*
X32077000Y-46913000D01*
X32077000Y-47167000D01*
X32057000Y-47167000D01*
X32057000Y-49167250D01*
X32215750Y-49326000D01*
X32721861Y-49327689D01*
X32724038Y-49349790D01*
X32766855Y-49490939D01*
X32836386Y-49621022D01*
X32929959Y-49735041D01*
X33043978Y-49828614D01*
X33174061Y-49898145D01*
X33237706Y-49917451D01*
X33190880Y-49955880D01*
X33071440Y-50101419D01*
X32982688Y-50267463D01*
X32955366Y-50357529D01*
X32945812Y-50260518D01*
X32909502Y-50140820D01*
X32850537Y-50030506D01*
X32771185Y-49933815D01*
X32674494Y-49854463D01*
X32564180Y-49795498D01*
X32444482Y-49759188D01*
X32320000Y-49746928D01*
X31818250Y-49750000D01*
X31659500Y-49908750D01*
X31659500Y-50933000D01*
X31679500Y-50933000D01*
X31679500Y-51187000D01*
X31659500Y-51187000D01*
X31659500Y-51207000D01*
X31405500Y-51207000D01*
X31405500Y-51187000D01*
X30268750Y-51187000D01*
X30110000Y-51345750D01*
X30106928Y-51735000D01*
X30119188Y-51859482D01*
X30155498Y-51979180D01*
X30214463Y-52089494D01*
X30267458Y-52154069D01*
X30240881Y-52175881D01*
X30121440Y-52321419D01*
X30032688Y-52487463D01*
X29978034Y-52667631D01*
X29959580Y-52855000D01*
X29959580Y-54105000D01*
X29978034Y-54292369D01*
X30032688Y-54472537D01*
X30121440Y-54638581D01*
X30203627Y-54738726D01*
X30060001Y-54724580D01*
X28984999Y-54724580D01*
X28797631Y-54743034D01*
X28617463Y-54797688D01*
X28451419Y-54886440D01*
X28305880Y-55005880D01*
X28246413Y-55078341D01*
X28154119Y-54965881D01*
X28008581Y-54846440D01*
X27865571Y-54770000D01*
X28008581Y-54693560D01*
X28154119Y-54574119D01*
X28273560Y-54428581D01*
X28362312Y-54262537D01*
X28416966Y-54082369D01*
X28435420Y-53895000D01*
X28435420Y-52795000D01*
X28416966Y-52607631D01*
X28362312Y-52427463D01*
X28273560Y-52261419D01*
X28167000Y-52131576D01*
X28167000Y-52097789D01*
X28214119Y-52059119D01*
X28333560Y-51913581D01*
X28422312Y-51747537D01*
X28476966Y-51567369D01*
X28495420Y-51380000D01*
X28495420Y-50580000D01*
X28476966Y-50392631D01*
X28422312Y-50212463D01*
X28333560Y-50046419D01*
X28256072Y-49952000D01*
X28477277Y-49952000D01*
X28512000Y-49955420D01*
X30276084Y-49955420D01*
X30214463Y-50030506D01*
X30155498Y-50140820D01*
X30119188Y-50260518D01*
X30106928Y-50385000D01*
X30110000Y-50774250D01*
X30268750Y-50933000D01*
X31405500Y-50933000D01*
X31405500Y-49908750D01*
X31246750Y-49750000D01*
X30914294Y-49747965D01*
X30930041Y-49735041D01*
X31023614Y-49621022D01*
X31093145Y-49490939D01*
X31135962Y-49349790D01*
X31138139Y-49327689D01*
X31644250Y-49326000D01*
X31803000Y-49167250D01*
X31803000Y-47167000D01*
X31783000Y-47167000D01*
X31783000Y-46913000D01*
X31803000Y-46913000D01*
X31803000Y-44912750D01*
X31644250Y-44754000D01*
X31069906Y-44752084D01*
X31065812Y-44710518D01*
X31029502Y-44590820D01*
X30970537Y-44480506D01*
X30891185Y-44383815D01*
X30794494Y-44304463D01*
X30684180Y-44245498D01*
X30564482Y-44209188D01*
X30440000Y-44196928D01*
X29740750Y-44200000D01*
X29582000Y-44358750D01*
X29582000Y-45008000D01*
X29602000Y-45008000D01*
X29602000Y-45262000D01*
X29582000Y-45262000D01*
X29582000Y-45282000D01*
X29328000Y-45282000D01*
X29328000Y-45262000D01*
X29308000Y-45262000D01*
X29308000Y-45008000D01*
X29328000Y-45008000D01*
X29328000Y-44358750D01*
X29169250Y-44200000D01*
X28470000Y-44196928D01*
X28345518Y-44209188D01*
X28225820Y-44245498D01*
X28115506Y-44304463D01*
X28073252Y-44339140D01*
X27497043Y-43762931D01*
X27465502Y-43724498D01*
X27313408Y-43599678D01*
X27263560Y-43506419D01*
X27144119Y-43360881D01*
X26998581Y-43241440D01*
X26832537Y-43152688D01*
X26652369Y-43098034D01*
X26465000Y-43079580D01*
X25215000Y-43079580D01*
X25027631Y-43098034D01*
X24847463Y-43152688D01*
X24681419Y-43241440D01*
X24535881Y-43360881D01*
X24416440Y-43506419D01*
X24327688Y-43672463D01*
X24273034Y-43852631D01*
X24254580Y-44040000D01*
X24254580Y-44840000D01*
X24273034Y-45027369D01*
X24327688Y-45207537D01*
X24416440Y-45373581D01*
X24535881Y-45519119D01*
X24681419Y-45638560D01*
X24847463Y-45727312D01*
X25027631Y-45781966D01*
X25215000Y-45800420D01*
X26465000Y-45800420D01*
X26652369Y-45781966D01*
X26664250Y-45778362D01*
X27405467Y-46519580D01*
X26285000Y-46519580D01*
X26097631Y-46538034D01*
X25917463Y-46592688D01*
X25860753Y-46623000D01*
X25264728Y-46623000D01*
X25142537Y-46557688D01*
X24962369Y-46503034D01*
X24923679Y-46499223D01*
X24112911Y-45688457D01*
X24075107Y-45642393D01*
X23891318Y-45491560D01*
X23681634Y-45379482D01*
X23454113Y-45310464D01*
X23276795Y-45293000D01*
X23276788Y-45293000D01*
X23217500Y-45287161D01*
X23158212Y-45293000D01*
X22641206Y-45293000D01*
X22569688Y-45234307D01*
X22446866Y-45168658D01*
X22313596Y-45128231D01*
X22175000Y-45114580D01*
X20825000Y-45114580D01*
X20732000Y-45123740D01*
X20732000Y-43305326D01*
X20746412Y-43326895D01*
X20998105Y-43578588D01*
X21294065Y-43776342D01*
X21622918Y-43912558D01*
X21972026Y-43982000D01*
X22327974Y-43982000D01*
X22677082Y-43912558D01*
X23005935Y-43776342D01*
X23301895Y-43578588D01*
X23553588Y-43326895D01*
X23751342Y-43030935D01*
X23887558Y-42702082D01*
X23957000Y-42352974D01*
X23957000Y-41997026D01*
X23955603Y-41990000D01*
X24326928Y-41990000D01*
X24339188Y-42114482D01*
X24375498Y-42234180D01*
X24434463Y-42344494D01*
X24513815Y-42441185D01*
X24610506Y-42520537D01*
X24720820Y-42579502D01*
X24840518Y-42615812D01*
X24965000Y-42628072D01*
X25554250Y-42625000D01*
X25713000Y-42466250D01*
X25713000Y-41467000D01*
X25967000Y-41467000D01*
X25967000Y-42466250D01*
X26125750Y-42625000D01*
X26715000Y-42628072D01*
X26839482Y-42615812D01*
X26959180Y-42579502D01*
X27069494Y-42520537D01*
X27166185Y-42441185D01*
X27245537Y-42344494D01*
X27304502Y-42234180D01*
X27340812Y-42114482D01*
X27353072Y-41990000D01*
X27350000Y-41625750D01*
X27191250Y-41467000D01*
X25967000Y-41467000D01*
X25713000Y-41467000D01*
X24488750Y-41467000D01*
X24330000Y-41625750D01*
X24326928Y-41990000D01*
X23955603Y-41990000D01*
X23887558Y-41647918D01*
X23751342Y-41319065D01*
X23553588Y-41023105D01*
X23301895Y-40771412D01*
X23242911Y-40732000D01*
X24327282Y-40732000D01*
X24330000Y-41054250D01*
%TA.AperFunction,Conductor*%
D34*
G36*
X24330000Y-41054250D02*
G01*
X24488750Y-41213000D01*
X25713000Y-41213000D01*
X25713000Y-41193000D01*
X25967000Y-41193000D01*
X25967000Y-41213000D01*
X27191250Y-41213000D01*
X27350000Y-41054250D01*
X27352718Y-40732000D01*
X29642755Y-40732000D01*
X29634580Y-40815000D01*
X29634580Y-42165000D01*
X29648231Y-42303596D01*
X29688658Y-42436866D01*
X29754307Y-42559688D01*
X29842657Y-42667343D01*
X29893361Y-42708955D01*
X29899482Y-42729133D01*
X30011561Y-42938818D01*
X30124595Y-43076549D01*
X31389597Y-44341553D01*
X31427393Y-44387607D01*
X31473446Y-44425402D01*
X31473449Y-44425405D01*
X31514358Y-44458978D01*
X31611182Y-44538440D01*
X31820866Y-44650518D01*
X32048387Y-44719536D01*
X32225705Y-44737000D01*
X32225714Y-44737000D01*
X32284999Y-44742839D01*
X32344284Y-44737000D01*
X32723369Y-44737000D01*
X32721861Y-44752311D01*
X32215750Y-44754000D01*
X32057000Y-44912750D01*
X32057000Y-46913000D01*
X32077000Y-46913000D01*
X32077000Y-47167000D01*
X32057000Y-47167000D01*
X32057000Y-49167250D01*
X32215750Y-49326000D01*
X32721861Y-49327689D01*
X32724038Y-49349790D01*
X32766855Y-49490939D01*
X32836386Y-49621022D01*
X32929959Y-49735041D01*
X33043978Y-49828614D01*
X33174061Y-49898145D01*
X33237706Y-49917451D01*
X33190880Y-49955880D01*
X33071440Y-50101419D01*
X32982688Y-50267463D01*
X32955366Y-50357529D01*
X32945812Y-50260518D01*
X32909502Y-50140820D01*
X32850537Y-50030506D01*
X32771185Y-49933815D01*
X32674494Y-49854463D01*
X32564180Y-49795498D01*
X32444482Y-49759188D01*
X32320000Y-49746928D01*
X31818250Y-49750000D01*
X31659500Y-49908750D01*
X31659500Y-50933000D01*
X31679500Y-50933000D01*
X31679500Y-51187000D01*
X31659500Y-51187000D01*
X31659500Y-51207000D01*
X31405500Y-51207000D01*
X31405500Y-51187000D01*
X30268750Y-51187000D01*
X30110000Y-51345750D01*
X30106928Y-51735000D01*
X30119188Y-51859482D01*
X30155498Y-51979180D01*
X30214463Y-52089494D01*
X30267458Y-52154069D01*
X30240881Y-52175881D01*
X30121440Y-52321419D01*
X30032688Y-52487463D01*
X29978034Y-52667631D01*
X29959580Y-52855000D01*
X29959580Y-54105000D01*
X29978034Y-54292369D01*
X30032688Y-54472537D01*
X30121440Y-54638581D01*
X30203627Y-54738726D01*
X30060001Y-54724580D01*
X28984999Y-54724580D01*
X28797631Y-54743034D01*
X28617463Y-54797688D01*
X28451419Y-54886440D01*
X28305880Y-55005880D01*
X28246413Y-55078341D01*
X28154119Y-54965881D01*
X28008581Y-54846440D01*
X27865571Y-54770000D01*
X28008581Y-54693560D01*
X28154119Y-54574119D01*
X28273560Y-54428581D01*
X28362312Y-54262537D01*
X28416966Y-54082369D01*
X28435420Y-53895000D01*
X28435420Y-52795000D01*
X28416966Y-52607631D01*
X28362312Y-52427463D01*
X28273560Y-52261419D01*
X28167000Y-52131576D01*
X28167000Y-52097789D01*
X28214119Y-52059119D01*
X28333560Y-51913581D01*
X28422312Y-51747537D01*
X28476966Y-51567369D01*
X28495420Y-51380000D01*
X28495420Y-50580000D01*
X28476966Y-50392631D01*
X28422312Y-50212463D01*
X28333560Y-50046419D01*
X28256072Y-49952000D01*
X28477277Y-49952000D01*
X28512000Y-49955420D01*
X30276084Y-49955420D01*
X30214463Y-50030506D01*
X30155498Y-50140820D01*
X30119188Y-50260518D01*
X30106928Y-50385000D01*
X30110000Y-50774250D01*
X30268750Y-50933000D01*
X31405500Y-50933000D01*
X31405500Y-49908750D01*
X31246750Y-49750000D01*
X30914294Y-49747965D01*
X30930041Y-49735041D01*
X31023614Y-49621022D01*
X31093145Y-49490939D01*
X31135962Y-49349790D01*
X31138139Y-49327689D01*
X31644250Y-49326000D01*
X31803000Y-49167250D01*
X31803000Y-47167000D01*
X31783000Y-47167000D01*
X31783000Y-46913000D01*
X31803000Y-46913000D01*
X31803000Y-44912750D01*
X31644250Y-44754000D01*
X31069906Y-44752084D01*
X31065812Y-44710518D01*
X31029502Y-44590820D01*
X30970537Y-44480506D01*
X30891185Y-44383815D01*
X30794494Y-44304463D01*
X30684180Y-44245498D01*
X30564482Y-44209188D01*
X30440000Y-44196928D01*
X29740750Y-44200000D01*
X29582000Y-44358750D01*
X29582000Y-45008000D01*
X29602000Y-45008000D01*
X29602000Y-45262000D01*
X29582000Y-45262000D01*
X29582000Y-45282000D01*
X29328000Y-45282000D01*
X29328000Y-45262000D01*
X29308000Y-45262000D01*
X29308000Y-45008000D01*
X29328000Y-45008000D01*
X29328000Y-44358750D01*
X29169250Y-44200000D01*
X28470000Y-44196928D01*
X28345518Y-44209188D01*
X28225820Y-44245498D01*
X28115506Y-44304463D01*
X28073252Y-44339140D01*
X27497043Y-43762931D01*
X27465502Y-43724498D01*
X27313408Y-43599678D01*
X27263560Y-43506419D01*
X27144119Y-43360881D01*
X26998581Y-43241440D01*
X26832537Y-43152688D01*
X26652369Y-43098034D01*
X26465000Y-43079580D01*
X25215000Y-43079580D01*
X25027631Y-43098034D01*
X24847463Y-43152688D01*
X24681419Y-43241440D01*
X24535881Y-43360881D01*
X24416440Y-43506419D01*
X24327688Y-43672463D01*
X24273034Y-43852631D01*
X24254580Y-44040000D01*
X24254580Y-44840000D01*
X24273034Y-45027369D01*
X24327688Y-45207537D01*
X24416440Y-45373581D01*
X24535881Y-45519119D01*
X24681419Y-45638560D01*
X24847463Y-45727312D01*
X25027631Y-45781966D01*
X25215000Y-45800420D01*
X26465000Y-45800420D01*
X26652369Y-45781966D01*
X26664250Y-45778362D01*
X27405467Y-46519580D01*
X26285000Y-46519580D01*
X26097631Y-46538034D01*
X25917463Y-46592688D01*
X25860753Y-46623000D01*
X25264728Y-46623000D01*
X25142537Y-46557688D01*
X24962369Y-46503034D01*
X24923679Y-46499223D01*
X24112911Y-45688457D01*
X24075107Y-45642393D01*
X23891318Y-45491560D01*
X23681634Y-45379482D01*
X23454113Y-45310464D01*
X23276795Y-45293000D01*
X23276788Y-45293000D01*
X23217500Y-45287161D01*
X23158212Y-45293000D01*
X22641206Y-45293000D01*
X22569688Y-45234307D01*
X22446866Y-45168658D01*
X22313596Y-45128231D01*
X22175000Y-45114580D01*
X20825000Y-45114580D01*
X20732000Y-45123740D01*
X20732000Y-43305326D01*
X20746412Y-43326895D01*
X20998105Y-43578588D01*
X21294065Y-43776342D01*
X21622918Y-43912558D01*
X21972026Y-43982000D01*
X22327974Y-43982000D01*
X22677082Y-43912558D01*
X23005935Y-43776342D01*
X23301895Y-43578588D01*
X23553588Y-43326895D01*
X23751342Y-43030935D01*
X23887558Y-42702082D01*
X23957000Y-42352974D01*
X23957000Y-41997026D01*
X23955603Y-41990000D01*
X24326928Y-41990000D01*
X24339188Y-42114482D01*
X24375498Y-42234180D01*
X24434463Y-42344494D01*
X24513815Y-42441185D01*
X24610506Y-42520537D01*
X24720820Y-42579502D01*
X24840518Y-42615812D01*
X24965000Y-42628072D01*
X25554250Y-42625000D01*
X25713000Y-42466250D01*
X25713000Y-41467000D01*
X25967000Y-41467000D01*
X25967000Y-42466250D01*
X26125750Y-42625000D01*
X26715000Y-42628072D01*
X26839482Y-42615812D01*
X26959180Y-42579502D01*
X27069494Y-42520537D01*
X27166185Y-42441185D01*
X27245537Y-42344494D01*
X27304502Y-42234180D01*
X27340812Y-42114482D01*
X27353072Y-41990000D01*
X27350000Y-41625750D01*
X27191250Y-41467000D01*
X25967000Y-41467000D01*
X25713000Y-41467000D01*
X24488750Y-41467000D01*
X24330000Y-41625750D01*
X24326928Y-41990000D01*
X23955603Y-41990000D01*
X23887558Y-41647918D01*
X23751342Y-41319065D01*
X23553588Y-41023105D01*
X23301895Y-40771412D01*
X23242911Y-40732000D01*
X24327282Y-40732000D01*
X24330000Y-41054250D01*
G37*
%TD.AperFunction*%
D33*
X22964580Y-47954035D02*
X22964580Y-48520001D01*
X22983034Y-48707369D01*
X23037688Y-48887537D01*
X23126440Y-49053581D01*
X23245880Y-49199120D01*
X23391419Y-49318560D01*
X23557463Y-49407312D01*
X23647529Y-49434634D01*
X23550518Y-49444188D01*
X23430820Y-49480498D01*
X23320506Y-49539463D01*
X23223815Y-49618815D01*
X23144463Y-49715506D01*
X23085498Y-49825820D01*
X23049188Y-49945518D01*
X23036928Y-50070000D01*
X23040000Y-50571750D01*
X23198750Y-50730500D01*
X24223000Y-50730500D01*
X24223000Y-50710500D01*
X24477000Y-50710500D01*
X24477000Y-50730500D01*
X24497000Y-50730500D01*
X24497000Y-50984500D01*
X24477000Y-50984500D01*
X24477000Y-51004500D01*
X24223000Y-51004500D01*
X24223000Y-50984500D01*
X23198750Y-50984500D01*
X23040000Y-51143250D01*
X23036928Y-51645000D01*
X23049188Y-51769482D01*
X23085498Y-51889180D01*
X23144463Y-51999494D01*
X23177961Y-52040312D01*
X23085881Y-52115881D01*
X22966440Y-52261419D01*
X22882000Y-52419396D01*
X22882000Y-52363885D01*
X22828891Y-52096885D01*
X22724713Y-51845377D01*
X22573470Y-51619026D01*
X22454444Y-51500000D01*
X22573470Y-51380974D01*
X22724713Y-51154623D01*
X22828891Y-50903115D01*
X22882000Y-50636115D01*
X22882000Y-50363885D01*
X22828891Y-50096885D01*
X22724713Y-49845377D01*
X22573470Y-49619026D01*
X22454444Y-49500000D01*
X22573470Y-49380974D01*
X22724713Y-49154623D01*
X22828891Y-48903115D01*
X22882000Y-48636115D01*
X22882000Y-48363885D01*
X22828891Y-48096885D01*
X22724713Y-47845377D01*
X22635423Y-47711746D01*
X22641206Y-47707000D01*
X22717545Y-47707000D01*
X22964580Y-47954035D01*
%TA.AperFunction,Conductor*%
D34*
G36*
X22964580Y-47954035D02*
G01*
X22964580Y-48520001D01*
X22983034Y-48707369D01*
X23037688Y-48887537D01*
X23126440Y-49053581D01*
X23245880Y-49199120D01*
X23391419Y-49318560D01*
X23557463Y-49407312D01*
X23647529Y-49434634D01*
X23550518Y-49444188D01*
X23430820Y-49480498D01*
X23320506Y-49539463D01*
X23223815Y-49618815D01*
X23144463Y-49715506D01*
X23085498Y-49825820D01*
X23049188Y-49945518D01*
X23036928Y-50070000D01*
X23040000Y-50571750D01*
X23198750Y-50730500D01*
X24223000Y-50730500D01*
X24223000Y-50710500D01*
X24477000Y-50710500D01*
X24477000Y-50730500D01*
X24497000Y-50730500D01*
X24497000Y-50984500D01*
X24477000Y-50984500D01*
X24477000Y-51004500D01*
X24223000Y-51004500D01*
X24223000Y-50984500D01*
X23198750Y-50984500D01*
X23040000Y-51143250D01*
X23036928Y-51645000D01*
X23049188Y-51769482D01*
X23085498Y-51889180D01*
X23144463Y-51999494D01*
X23177961Y-52040312D01*
X23085881Y-52115881D01*
X22966440Y-52261419D01*
X22882000Y-52419396D01*
X22882000Y-52363885D01*
X22828891Y-52096885D01*
X22724713Y-51845377D01*
X22573470Y-51619026D01*
X22454444Y-51500000D01*
X22573470Y-51380974D01*
X22724713Y-51154623D01*
X22828891Y-50903115D01*
X22882000Y-50636115D01*
X22882000Y-50363885D01*
X22828891Y-50096885D01*
X22724713Y-49845377D01*
X22573470Y-49619026D01*
X22454444Y-49500000D01*
X22573470Y-49380974D01*
X22724713Y-49154623D01*
X22828891Y-48903115D01*
X22882000Y-48636115D01*
X22882000Y-48363885D01*
X22828891Y-48096885D01*
X22724713Y-47845377D01*
X22635423Y-47711746D01*
X22641206Y-47707000D01*
X22717545Y-47707000D01*
X22964580Y-47954035D01*
G37*
%TD.AperFunction*%
D33*
X29582000Y-47548000D02*
X29602000Y-47548000D01*
X29602000Y-47802000D01*
X29582000Y-47802000D01*
X29582000Y-47822000D01*
X29328000Y-47822000D01*
X29328000Y-47802000D01*
X29308000Y-47802000D01*
X29308000Y-47548000D01*
X29328000Y-47548000D01*
X29328000Y-47528000D01*
X29582000Y-47528000D01*
X29582000Y-47548000D01*
%TA.AperFunction,Conductor*%
D34*
G36*
X29582000Y-47548000D02*
G01*
X29602000Y-47548000D01*
X29602000Y-47802000D01*
X29582000Y-47802000D01*
X29582000Y-47822000D01*
X29328000Y-47822000D01*
X29328000Y-47802000D01*
X29308000Y-47802000D01*
X29308000Y-47548000D01*
X29328000Y-47548000D01*
X29328000Y-47528000D01*
X29582000Y-47528000D01*
X29582000Y-47548000D01*
G37*
%TD.AperFunction*%
D33*
X40069580Y-41663465D02*
X39763456Y-41969590D01*
X39717392Y-42007394D01*
X39566559Y-42191184D01*
X39548988Y-42224057D01*
X39450045Y-42323000D01*
X38629288Y-42323000D01*
X38570000Y-42317161D01*
X38510712Y-42323000D01*
X38025254Y-42323000D01*
X38065344Y-42279537D01*
X38199289Y-42060430D01*
X38287915Y-41819401D01*
X38165085Y-41617000D01*
X37147000Y-41617000D01*
X37147000Y-41637000D01*
X36893000Y-41637000D01*
X36893000Y-41617000D01*
X36873000Y-41617000D01*
X36873000Y-41363000D01*
X36893000Y-41363000D01*
X36893000Y-41343000D01*
X37147000Y-41343000D01*
X37147000Y-41363000D01*
X38165085Y-41363000D01*
X38287915Y-41160599D01*
X38199289Y-40919570D01*
X38084623Y-40732000D01*
X40069580Y-40732000D01*
X40069580Y-41663465D01*
%TA.AperFunction,Conductor*%
D34*
G36*
X40069580Y-41663465D02*
G01*
X39763456Y-41969590D01*
X39717392Y-42007394D01*
X39566559Y-42191184D01*
X39548988Y-42224057D01*
X39450045Y-42323000D01*
X38629288Y-42323000D01*
X38570000Y-42317161D01*
X38510712Y-42323000D01*
X38025254Y-42323000D01*
X38065344Y-42279537D01*
X38199289Y-42060430D01*
X38287915Y-41819401D01*
X38165085Y-41617000D01*
X37147000Y-41617000D01*
X37147000Y-41637000D01*
X36893000Y-41637000D01*
X36893000Y-41617000D01*
X36873000Y-41617000D01*
X36873000Y-41363000D01*
X36893000Y-41363000D01*
X36893000Y-41343000D01*
X37147000Y-41343000D01*
X37147000Y-41363000D01*
X38165085Y-41363000D01*
X38287915Y-41160599D01*
X38199289Y-40919570D01*
X38084623Y-40732000D01*
X40069580Y-40732000D01*
X40069580Y-41663465D01*
G37*
%TD.AperFunction*%
M02*
