%TF.GenerationSoftware,KiCad,Pcbnew,5.1.7-a382d34a8~88~ubuntu18.04.1*%
%TF.CreationDate,2022-07-15T15:30:23-05:00*%
%TF.ProjectId,Global_Val_Sen,476c6f62-616c-45f5-9661-6c5f53656e2e,rev?*%
%TF.SameCoordinates,Original*%
%TF.FileFunction,Soldermask,Top*%
%TF.FilePolarity,Negative*%
%FSLAX46Y46*%
G04 Gerber Fmt 4.6, Leading zero omitted, Abs format (unit mm)*
G04 Created by KiCad (PCBNEW 5.1.7-a382d34a8~88~ubuntu18.04.1) date 2022-07-15 15:30:23*
%MOMM*%
%LPD*%
G01*
G04 APERTURE LIST*
%ADD10R,1.600000X1.500000*%
%ADD11R,1.200000X1.200000*%
%ADD12R,1.800000X5.000000*%
%ADD13R,1.060000X0.650000*%
%ADD14R,1.800000X2.500000*%
%ADD15O,1.700000X1.700000*%
%ADD16R,1.700000X1.700000*%
%ADD17R,2.413000X3.302000*%
%ADD18O,1.350000X1.350000*%
%ADD19R,1.350000X1.350000*%
%ADD20C,2.200000*%
%ADD21R,0.650000X1.560000*%
G04 APERTURE END LIST*
G36*
G01*
X42855000Y-70960000D02*
X44105000Y-70960000D01*
G75*
G02*
X44355000Y-71210000I0J-250000D01*
G01*
X44355000Y-72010000D01*
G75*
G02*
X44105000Y-72260000I-250000J0D01*
G01*
X42855000Y-72260000D01*
G75*
G02*
X42605000Y-72010000I0J250000D01*
G01*
X42605000Y-71210000D01*
G75*
G02*
X42855000Y-70960000I250000J0D01*
G01*
G37*
G36*
G01*
X42855000Y-67860000D02*
X44105000Y-67860000D01*
G75*
G02*
X44355000Y-68110000I0J-250000D01*
G01*
X44355000Y-68910000D01*
G75*
G02*
X44105000Y-69160000I-250000J0D01*
G01*
X42855000Y-69160000D01*
G75*
G02*
X42605000Y-68910000I0J250000D01*
G01*
X42605000Y-68110000D01*
G75*
G02*
X42855000Y-67860000I250000J0D01*
G01*
G37*
G36*
G01*
X42845000Y-65870000D02*
X44095000Y-65870000D01*
G75*
G02*
X44345000Y-66120000I0J-250000D01*
G01*
X44345000Y-66920000D01*
G75*
G02*
X44095000Y-67170000I-250000J0D01*
G01*
X42845000Y-67170000D01*
G75*
G02*
X42595000Y-66920000I0J250000D01*
G01*
X42595000Y-66120000D01*
G75*
G02*
X42845000Y-65870000I250000J0D01*
G01*
G37*
G36*
G01*
X42845000Y-62770000D02*
X44095000Y-62770000D01*
G75*
G02*
X44345000Y-63020000I0J-250000D01*
G01*
X44345000Y-63820000D01*
G75*
G02*
X44095000Y-64070000I-250000J0D01*
G01*
X42845000Y-64070000D01*
G75*
G02*
X42595000Y-63820000I0J250000D01*
G01*
X42595000Y-63020000D01*
G75*
G02*
X42845000Y-62770000I250000J0D01*
G01*
G37*
D10*
X31790000Y-75740000D03*
D11*
X30790000Y-72490000D03*
X32790000Y-72490000D03*
G36*
G01*
X25064999Y-74770000D02*
X25915001Y-74770000D01*
G75*
G02*
X26165000Y-75019999I0J-249999D01*
G01*
X26165000Y-76095001D01*
G75*
G02*
X25915001Y-76345000I-249999J0D01*
G01*
X25064999Y-76345000D01*
G75*
G02*
X24815000Y-76095001I0J249999D01*
G01*
X24815000Y-75019999D01*
G75*
G02*
X25064999Y-74770000I249999J0D01*
G01*
G37*
G36*
G01*
X25064999Y-71895000D02*
X25915001Y-71895000D01*
G75*
G02*
X26165000Y-72144999I0J-249999D01*
G01*
X26165000Y-73220001D01*
G75*
G02*
X25915001Y-73470000I-249999J0D01*
G01*
X25064999Y-73470000D01*
G75*
G02*
X24815000Y-73220001I0J249999D01*
G01*
X24815000Y-72144999D01*
G75*
G02*
X25064999Y-71895000I249999J0D01*
G01*
G37*
D12*
X40370000Y-66920000D03*
X36670000Y-66920000D03*
D13*
X42390000Y-74740000D03*
X42390000Y-73790000D03*
X42390000Y-75690000D03*
X40190000Y-75690000D03*
X40190000Y-74740000D03*
X40190000Y-73790000D03*
G36*
G01*
X38505000Y-73140000D02*
X37255000Y-73140000D01*
G75*
G02*
X37005000Y-72890000I0J250000D01*
G01*
X37005000Y-72090000D01*
G75*
G02*
X37255000Y-71840000I250000J0D01*
G01*
X38505000Y-71840000D01*
G75*
G02*
X38755000Y-72090000I0J-250000D01*
G01*
X38755000Y-72890000D01*
G75*
G02*
X38505000Y-73140000I-250000J0D01*
G01*
G37*
G36*
G01*
X38505000Y-76240000D02*
X37255000Y-76240000D01*
G75*
G02*
X37005000Y-75990000I0J250000D01*
G01*
X37005000Y-75190000D01*
G75*
G02*
X37255000Y-74940000I250000J0D01*
G01*
X38505000Y-74940000D01*
G75*
G02*
X38755000Y-75190000I0J-250000D01*
G01*
X38755000Y-75990000D01*
G75*
G02*
X38505000Y-76240000I-250000J0D01*
G01*
G37*
G36*
G01*
X34805000Y-74930000D02*
X36055000Y-74930000D01*
G75*
G02*
X36305000Y-75180000I0J-250000D01*
G01*
X36305000Y-75980000D01*
G75*
G02*
X36055000Y-76230000I-250000J0D01*
G01*
X34805000Y-76230000D01*
G75*
G02*
X34555000Y-75980000I0J250000D01*
G01*
X34555000Y-75180000D01*
G75*
G02*
X34805000Y-74930000I250000J0D01*
G01*
G37*
G36*
G01*
X34805000Y-71830000D02*
X36055000Y-71830000D01*
G75*
G02*
X36305000Y-72080000I0J-250000D01*
G01*
X36305000Y-72880000D01*
G75*
G02*
X36055000Y-73130000I-250000J0D01*
G01*
X34805000Y-73130000D01*
G75*
G02*
X34555000Y-72880000I0J250000D01*
G01*
X34555000Y-72080000D01*
G75*
G02*
X34805000Y-71830000I250000J0D01*
G01*
G37*
D14*
X33140000Y-68250000D03*
X33140000Y-64250000D03*
G36*
G01*
X27684999Y-74770000D02*
X28535001Y-74770000D01*
G75*
G02*
X28785000Y-75019999I0J-249999D01*
G01*
X28785000Y-76095001D01*
G75*
G02*
X28535001Y-76345000I-249999J0D01*
G01*
X27684999Y-76345000D01*
G75*
G02*
X27435000Y-76095001I0J249999D01*
G01*
X27435000Y-75019999D01*
G75*
G02*
X27684999Y-74770000I249999J0D01*
G01*
G37*
G36*
G01*
X27684999Y-71895000D02*
X28535001Y-71895000D01*
G75*
G02*
X28785000Y-72144999I0J-249999D01*
G01*
X28785000Y-73220001D01*
G75*
G02*
X28535001Y-73470000I-249999J0D01*
G01*
X27684999Y-73470000D01*
G75*
G02*
X27435000Y-73220001I0J249999D01*
G01*
X27435000Y-72144999D01*
G75*
G02*
X27684999Y-71895000I249999J0D01*
G01*
G37*
D15*
X41700000Y-60670000D03*
X39160000Y-60670000D03*
X36620000Y-60670000D03*
D16*
X34080000Y-60670000D03*
G36*
G01*
X28470000Y-45393000D02*
X28470000Y-44877000D01*
G75*
G02*
X28512000Y-44835000I42000J0D01*
G01*
X30398000Y-44835000D01*
G75*
G02*
X30440000Y-44877000I0J-42000D01*
G01*
X30440000Y-45393000D01*
G75*
G02*
X30398000Y-45435000I-42000J0D01*
G01*
X28512000Y-45435000D01*
G75*
G02*
X28470000Y-45393000I0J42000D01*
G01*
G37*
G36*
G01*
X28470000Y-46663000D02*
X28470000Y-46147000D01*
G75*
G02*
X28512000Y-46105000I42000J0D01*
G01*
X30398000Y-46105000D01*
G75*
G02*
X30440000Y-46147000I0J-42000D01*
G01*
X30440000Y-46663000D01*
G75*
G02*
X30398000Y-46705000I-42000J0D01*
G01*
X28512000Y-46705000D01*
G75*
G02*
X28470000Y-46663000I0J42000D01*
G01*
G37*
G36*
G01*
X28470000Y-47933000D02*
X28470000Y-47417000D01*
G75*
G02*
X28512000Y-47375000I42000J0D01*
G01*
X30398000Y-47375000D01*
G75*
G02*
X30440000Y-47417000I0J-42000D01*
G01*
X30440000Y-47933000D01*
G75*
G02*
X30398000Y-47975000I-42000J0D01*
G01*
X28512000Y-47975000D01*
G75*
G02*
X28470000Y-47933000I0J42000D01*
G01*
G37*
G36*
G01*
X28470000Y-49203000D02*
X28470000Y-48687000D01*
G75*
G02*
X28512000Y-48645000I42000J0D01*
G01*
X30398000Y-48645000D01*
G75*
G02*
X30440000Y-48687000I0J-42000D01*
G01*
X30440000Y-49203000D01*
G75*
G02*
X30398000Y-49245000I-42000J0D01*
G01*
X28512000Y-49245000D01*
G75*
G02*
X28470000Y-49203000I0J42000D01*
G01*
G37*
G36*
G01*
X33420000Y-49203000D02*
X33420000Y-48687000D01*
G75*
G02*
X33462000Y-48645000I42000J0D01*
G01*
X35348000Y-48645000D01*
G75*
G02*
X35390000Y-48687000I0J-42000D01*
G01*
X35390000Y-49203000D01*
G75*
G02*
X35348000Y-49245000I-42000J0D01*
G01*
X33462000Y-49245000D01*
G75*
G02*
X33420000Y-49203000I0J42000D01*
G01*
G37*
G36*
G01*
X33420000Y-47933000D02*
X33420000Y-47417000D01*
G75*
G02*
X33462000Y-47375000I42000J0D01*
G01*
X35348000Y-47375000D01*
G75*
G02*
X35390000Y-47417000I0J-42000D01*
G01*
X35390000Y-47933000D01*
G75*
G02*
X35348000Y-47975000I-42000J0D01*
G01*
X33462000Y-47975000D01*
G75*
G02*
X33420000Y-47933000I0J42000D01*
G01*
G37*
G36*
G01*
X33420000Y-46663000D02*
X33420000Y-46147000D01*
G75*
G02*
X33462000Y-46105000I42000J0D01*
G01*
X35348000Y-46105000D01*
G75*
G02*
X35390000Y-46147000I0J-42000D01*
G01*
X35390000Y-46663000D01*
G75*
G02*
X35348000Y-46705000I-42000J0D01*
G01*
X33462000Y-46705000D01*
G75*
G02*
X33420000Y-46663000I0J42000D01*
G01*
G37*
G36*
G01*
X33420000Y-45393000D02*
X33420000Y-44877000D01*
G75*
G02*
X33462000Y-44835000I42000J0D01*
G01*
X35348000Y-44835000D01*
G75*
G02*
X35390000Y-44877000I0J-42000D01*
G01*
X35390000Y-45393000D01*
G75*
G02*
X35348000Y-45435000I-42000J0D01*
G01*
X33462000Y-45435000D01*
G75*
G02*
X33420000Y-45393000I0J42000D01*
G01*
G37*
D17*
X31930000Y-47040000D03*
G36*
G01*
X36720000Y-51575000D02*
X36420000Y-51575000D01*
G75*
G02*
X36270000Y-51425000I0J150000D01*
G01*
X36270000Y-49975000D01*
G75*
G02*
X36420000Y-49825000I150000J0D01*
G01*
X36720000Y-49825000D01*
G75*
G02*
X36870000Y-49975000I0J-150000D01*
G01*
X36870000Y-51425000D01*
G75*
G02*
X36720000Y-51575000I-150000J0D01*
G01*
G37*
G36*
G01*
X37990000Y-51575000D02*
X37690000Y-51575000D01*
G75*
G02*
X37540000Y-51425000I0J150000D01*
G01*
X37540000Y-49975000D01*
G75*
G02*
X37690000Y-49825000I150000J0D01*
G01*
X37990000Y-49825000D01*
G75*
G02*
X38140000Y-49975000I0J-150000D01*
G01*
X38140000Y-51425000D01*
G75*
G02*
X37990000Y-51575000I-150000J0D01*
G01*
G37*
G36*
G01*
X39260000Y-51575000D02*
X38960000Y-51575000D01*
G75*
G02*
X38810000Y-51425000I0J150000D01*
G01*
X38810000Y-49975000D01*
G75*
G02*
X38960000Y-49825000I150000J0D01*
G01*
X39260000Y-49825000D01*
G75*
G02*
X39410000Y-49975000I0J-150000D01*
G01*
X39410000Y-51425000D01*
G75*
G02*
X39260000Y-51575000I-150000J0D01*
G01*
G37*
G36*
G01*
X40530000Y-51575000D02*
X40230000Y-51575000D01*
G75*
G02*
X40080000Y-51425000I0J150000D01*
G01*
X40080000Y-49975000D01*
G75*
G02*
X40230000Y-49825000I150000J0D01*
G01*
X40530000Y-49825000D01*
G75*
G02*
X40680000Y-49975000I0J-150000D01*
G01*
X40680000Y-51425000D01*
G75*
G02*
X40530000Y-51575000I-150000J0D01*
G01*
G37*
G36*
G01*
X40530000Y-56725000D02*
X40230000Y-56725000D01*
G75*
G02*
X40080000Y-56575000I0J150000D01*
G01*
X40080000Y-55125000D01*
G75*
G02*
X40230000Y-54975000I150000J0D01*
G01*
X40530000Y-54975000D01*
G75*
G02*
X40680000Y-55125000I0J-150000D01*
G01*
X40680000Y-56575000D01*
G75*
G02*
X40530000Y-56725000I-150000J0D01*
G01*
G37*
G36*
G01*
X39260000Y-56725000D02*
X38960000Y-56725000D01*
G75*
G02*
X38810000Y-56575000I0J150000D01*
G01*
X38810000Y-55125000D01*
G75*
G02*
X38960000Y-54975000I150000J0D01*
G01*
X39260000Y-54975000D01*
G75*
G02*
X39410000Y-55125000I0J-150000D01*
G01*
X39410000Y-56575000D01*
G75*
G02*
X39260000Y-56725000I-150000J0D01*
G01*
G37*
G36*
G01*
X37990000Y-56725000D02*
X37690000Y-56725000D01*
G75*
G02*
X37540000Y-56575000I0J150000D01*
G01*
X37540000Y-55125000D01*
G75*
G02*
X37690000Y-54975000I150000J0D01*
G01*
X37990000Y-54975000D01*
G75*
G02*
X38140000Y-55125000I0J-150000D01*
G01*
X38140000Y-56575000D01*
G75*
G02*
X37990000Y-56725000I-150000J0D01*
G01*
G37*
G36*
G01*
X36720000Y-56725000D02*
X36420000Y-56725000D01*
G75*
G02*
X36270000Y-56575000I0J150000D01*
G01*
X36270000Y-55125000D01*
G75*
G02*
X36420000Y-54975000I150000J0D01*
G01*
X36720000Y-54975000D01*
G75*
G02*
X36870000Y-55125000I0J-150000D01*
G01*
X36870000Y-56575000D01*
G75*
G02*
X36720000Y-56725000I-150000J0D01*
G01*
G37*
G36*
G01*
X39215000Y-45690000D02*
X37965000Y-45690000D01*
G75*
G02*
X37715000Y-45440000I0J250000D01*
G01*
X37715000Y-44640000D01*
G75*
G02*
X37965000Y-44390000I250000J0D01*
G01*
X39215000Y-44390000D01*
G75*
G02*
X39465000Y-44640000I0J-250000D01*
G01*
X39465000Y-45440000D01*
G75*
G02*
X39215000Y-45690000I-250000J0D01*
G01*
G37*
G36*
G01*
X39215000Y-48790000D02*
X37965000Y-48790000D01*
G75*
G02*
X37715000Y-48540000I0J250000D01*
G01*
X37715000Y-47740000D01*
G75*
G02*
X37965000Y-47490000I250000J0D01*
G01*
X39215000Y-47490000D01*
G75*
G02*
X39465000Y-47740000I0J-250000D01*
G01*
X39465000Y-48540000D01*
G75*
G02*
X39215000Y-48790000I-250000J0D01*
G01*
G37*
D14*
X43150000Y-53050000D03*
X43150000Y-49050000D03*
X41680000Y-41760000D03*
X41680000Y-45760000D03*
D18*
X37020000Y-41490000D03*
X35020000Y-41490000D03*
X33020000Y-41490000D03*
D19*
X31020000Y-41490000D03*
G36*
G01*
X26465000Y-45090000D02*
X25215000Y-45090000D01*
G75*
G02*
X24965000Y-44840000I0J250000D01*
G01*
X24965000Y-44040000D01*
G75*
G02*
X25215000Y-43790000I250000J0D01*
G01*
X26465000Y-43790000D01*
G75*
G02*
X26715000Y-44040000I0J-250000D01*
G01*
X26715000Y-44840000D01*
G75*
G02*
X26465000Y-45090000I-250000J0D01*
G01*
G37*
G36*
G01*
X26465000Y-41990000D02*
X25215000Y-41990000D01*
G75*
G02*
X24965000Y-41740000I0J250000D01*
G01*
X24965000Y-40940000D01*
G75*
G02*
X25215000Y-40690000I250000J0D01*
G01*
X26465000Y-40690000D01*
G75*
G02*
X26715000Y-40940000I0J-250000D01*
G01*
X26715000Y-41740000D01*
G75*
G02*
X26465000Y-41990000I-250000J0D01*
G01*
G37*
D20*
X45850000Y-42150000D03*
X22150000Y-42175000D03*
X22150000Y-76850000D03*
X45850000Y-76850000D03*
G36*
G01*
X31970000Y-52855000D02*
X31970000Y-54105000D01*
G75*
G02*
X31720000Y-54355000I-250000J0D01*
G01*
X30920000Y-54355000D01*
G75*
G02*
X30670000Y-54105000I0J250000D01*
G01*
X30670000Y-52855000D01*
G75*
G02*
X30920000Y-52605000I250000J0D01*
G01*
X31720000Y-52605000D01*
G75*
G02*
X31970000Y-52855000I0J-250000D01*
G01*
G37*
G36*
G01*
X35070000Y-52855000D02*
X35070000Y-54105000D01*
G75*
G02*
X34820000Y-54355000I-250000J0D01*
G01*
X34020000Y-54355000D01*
G75*
G02*
X33770000Y-54105000I0J250000D01*
G01*
X33770000Y-52855000D01*
G75*
G02*
X34020000Y-52605000I250000J0D01*
G01*
X34820000Y-52605000D01*
G75*
G02*
X35070000Y-52855000I0J-250000D01*
G01*
G37*
G36*
G01*
X27445000Y-68560000D02*
X28695000Y-68560000D01*
G75*
G02*
X28945000Y-68810000I0J-250000D01*
G01*
X28945000Y-69610000D01*
G75*
G02*
X28695000Y-69860000I-250000J0D01*
G01*
X27445000Y-69860000D01*
G75*
G02*
X27195000Y-69610000I0J250000D01*
G01*
X27195000Y-68810000D01*
G75*
G02*
X27445000Y-68560000I250000J0D01*
G01*
G37*
G36*
G01*
X27445000Y-65460000D02*
X28695000Y-65460000D01*
G75*
G02*
X28945000Y-65710000I0J-250000D01*
G01*
X28945000Y-66510000D01*
G75*
G02*
X28695000Y-66760000I-250000J0D01*
G01*
X27445000Y-66760000D01*
G75*
G02*
X27195000Y-66510000I0J250000D01*
G01*
X27195000Y-65710000D01*
G75*
G02*
X27445000Y-65460000I250000J0D01*
G01*
G37*
G36*
G01*
X30310000Y-55684999D02*
X30310000Y-56535001D01*
G75*
G02*
X30060001Y-56785000I-249999J0D01*
G01*
X28984999Y-56785000D01*
G75*
G02*
X28735000Y-56535001I0J249999D01*
G01*
X28735000Y-55684999D01*
G75*
G02*
X28984999Y-55435000I249999J0D01*
G01*
X30060001Y-55435000D01*
G75*
G02*
X30310000Y-55684999I0J-249999D01*
G01*
G37*
G36*
G01*
X33185000Y-55684999D02*
X33185000Y-56535001D01*
G75*
G02*
X32935001Y-56785000I-249999J0D01*
G01*
X31859999Y-56785000D01*
G75*
G02*
X31610000Y-56535001I0J249999D01*
G01*
X31610000Y-55684999D01*
G75*
G02*
X31859999Y-55435000I249999J0D01*
G01*
X32935001Y-55435000D01*
G75*
G02*
X33185000Y-55684999I0J-249999D01*
G01*
G37*
G36*
G01*
X25755000Y-59490000D02*
X26115000Y-59490000D01*
G75*
G02*
X26135000Y-59510000I0J-20000D01*
G01*
X26135000Y-61030000D01*
G75*
G02*
X26115000Y-61050000I-20000J0D01*
G01*
X25755000Y-61050000D01*
G75*
G02*
X25735000Y-61030000I0J20000D01*
G01*
X25735000Y-59510000D01*
G75*
G02*
X25755000Y-59490000I20000J0D01*
G01*
G37*
G36*
G01*
X25105000Y-59490000D02*
X25465000Y-59490000D01*
G75*
G02*
X25485000Y-59510000I0J-20000D01*
G01*
X25485000Y-61030000D01*
G75*
G02*
X25465000Y-61050000I-20000J0D01*
G01*
X25105000Y-61050000D01*
G75*
G02*
X25085000Y-61030000I0J20000D01*
G01*
X25085000Y-59510000D01*
G75*
G02*
X25105000Y-59490000I20000J0D01*
G01*
G37*
G36*
G01*
X24455000Y-59490000D02*
X24815000Y-59490000D01*
G75*
G02*
X24835000Y-59510000I0J-20000D01*
G01*
X24835000Y-61030000D01*
G75*
G02*
X24815000Y-61050000I-20000J0D01*
G01*
X24455000Y-61050000D01*
G75*
G02*
X24435000Y-61030000I0J20000D01*
G01*
X24435000Y-59510000D01*
G75*
G02*
X24455000Y-59490000I20000J0D01*
G01*
G37*
G36*
G01*
X23805000Y-59490000D02*
X24165000Y-59490000D01*
G75*
G02*
X24185000Y-59510000I0J-20000D01*
G01*
X24185000Y-61030000D01*
G75*
G02*
X24165000Y-61050000I-20000J0D01*
G01*
X23805000Y-61050000D01*
G75*
G02*
X23785000Y-61030000I0J20000D01*
G01*
X23785000Y-59510000D01*
G75*
G02*
X23805000Y-59490000I20000J0D01*
G01*
G37*
G36*
G01*
X23805000Y-65250000D02*
X24165000Y-65250000D01*
G75*
G02*
X24185000Y-65270000I0J-20000D01*
G01*
X24185000Y-66790000D01*
G75*
G02*
X24165000Y-66810000I-20000J0D01*
G01*
X23805000Y-66810000D01*
G75*
G02*
X23785000Y-66790000I0J20000D01*
G01*
X23785000Y-65270000D01*
G75*
G02*
X23805000Y-65250000I20000J0D01*
G01*
G37*
G36*
G01*
X24455000Y-65250000D02*
X24815000Y-65250000D01*
G75*
G02*
X24835000Y-65270000I0J-20000D01*
G01*
X24835000Y-66790000D01*
G75*
G02*
X24815000Y-66810000I-20000J0D01*
G01*
X24455000Y-66810000D01*
G75*
G02*
X24435000Y-66790000I0J20000D01*
G01*
X24435000Y-65270000D01*
G75*
G02*
X24455000Y-65250000I20000J0D01*
G01*
G37*
G36*
G01*
X25105000Y-65250000D02*
X25465000Y-65250000D01*
G75*
G02*
X25485000Y-65270000I0J-20000D01*
G01*
X25485000Y-66790000D01*
G75*
G02*
X25465000Y-66810000I-20000J0D01*
G01*
X25105000Y-66810000D01*
G75*
G02*
X25085000Y-66790000I0J20000D01*
G01*
X25085000Y-65270000D01*
G75*
G02*
X25105000Y-65250000I20000J0D01*
G01*
G37*
G36*
G01*
X25755000Y-65250000D02*
X26115000Y-65250000D01*
G75*
G02*
X26135000Y-65270000I0J-20000D01*
G01*
X26135000Y-66790000D01*
G75*
G02*
X26115000Y-66810000I-20000J0D01*
G01*
X25755000Y-66810000D01*
G75*
G02*
X25735000Y-66790000I0J20000D01*
G01*
X25735000Y-65270000D01*
G75*
G02*
X25755000Y-65250000I20000J0D01*
G01*
G37*
D21*
X28810000Y-60280000D03*
X27860000Y-60280000D03*
X29760000Y-60280000D03*
X29760000Y-62980000D03*
X28810000Y-62980000D03*
X27860000Y-62980000D03*
G36*
G01*
X27535000Y-48530000D02*
X26285000Y-48530000D01*
G75*
G02*
X26035000Y-48280000I0J250000D01*
G01*
X26035000Y-47480000D01*
G75*
G02*
X26285000Y-47230000I250000J0D01*
G01*
X27535000Y-47230000D01*
G75*
G02*
X27785000Y-47480000I0J-250000D01*
G01*
X27785000Y-48280000D01*
G75*
G02*
X27535000Y-48530000I-250000J0D01*
G01*
G37*
G36*
G01*
X27535000Y-51630000D02*
X26285000Y-51630000D01*
G75*
G02*
X26035000Y-51380000I0J250000D01*
G01*
X26035000Y-50580000D01*
G75*
G02*
X26285000Y-50330000I250000J0D01*
G01*
X27535000Y-50330000D01*
G75*
G02*
X27785000Y-50580000I0J-250000D01*
G01*
X27785000Y-51380000D01*
G75*
G02*
X27535000Y-51630000I-250000J0D01*
G01*
G37*
G36*
G01*
X24915000Y-54145000D02*
X23765000Y-54145000D01*
G75*
G02*
X23515000Y-53895000I0J250000D01*
G01*
X23515000Y-52795000D01*
G75*
G02*
X23765000Y-52545000I250000J0D01*
G01*
X24915000Y-52545000D01*
G75*
G02*
X25165000Y-52795000I0J-250000D01*
G01*
X25165000Y-53895000D01*
G75*
G02*
X24915000Y-54145000I-250000J0D01*
G01*
G37*
G36*
G01*
X24915000Y-56995000D02*
X23765000Y-56995000D01*
G75*
G02*
X23515000Y-56745000I0J250000D01*
G01*
X23515000Y-55645000D01*
G75*
G02*
X23765000Y-55395000I250000J0D01*
G01*
X24915000Y-55395000D01*
G75*
G02*
X25165000Y-55645000I0J-250000D01*
G01*
X25165000Y-56745000D01*
G75*
G02*
X24915000Y-56995000I-250000J0D01*
G01*
G37*
G36*
G01*
X27475000Y-54145000D02*
X26325000Y-54145000D01*
G75*
G02*
X26075000Y-53895000I0J250000D01*
G01*
X26075000Y-52795000D01*
G75*
G02*
X26325000Y-52545000I250000J0D01*
G01*
X27475000Y-52545000D01*
G75*
G02*
X27725000Y-52795000I0J-250000D01*
G01*
X27725000Y-53895000D01*
G75*
G02*
X27475000Y-54145000I-250000J0D01*
G01*
G37*
G36*
G01*
X27475000Y-56995000D02*
X26325000Y-56995000D01*
G75*
G02*
X26075000Y-56745000I0J250000D01*
G01*
X26075000Y-55645000D01*
G75*
G02*
X26325000Y-55395000I250000J0D01*
G01*
X27475000Y-55395000D01*
G75*
G02*
X27725000Y-55645000I0J-250000D01*
G01*
X27725000Y-56745000D01*
G75*
G02*
X27475000Y-56995000I-250000J0D01*
G01*
G37*
G36*
G01*
X23924999Y-47195000D02*
X24775001Y-47195000D01*
G75*
G02*
X25025000Y-47444999I0J-249999D01*
G01*
X25025000Y-48520001D01*
G75*
G02*
X24775001Y-48770000I-249999J0D01*
G01*
X23924999Y-48770000D01*
G75*
G02*
X23675000Y-48520001I0J249999D01*
G01*
X23675000Y-47444999D01*
G75*
G02*
X23924999Y-47195000I249999J0D01*
G01*
G37*
G36*
G01*
X23924999Y-50070000D02*
X24775001Y-50070000D01*
G75*
G02*
X25025000Y-50319999I0J-249999D01*
G01*
X25025000Y-51395001D01*
G75*
G02*
X24775001Y-51645000I-249999J0D01*
G01*
X23924999Y-51645000D01*
G75*
G02*
X23675000Y-51395001I0J249999D01*
G01*
X23675000Y-50319999D01*
G75*
G02*
X23924999Y-50070000I249999J0D01*
G01*
G37*
G36*
G01*
X35195000Y-50634999D02*
X35195000Y-51485001D01*
G75*
G02*
X34945001Y-51735000I-249999J0D01*
G01*
X33869999Y-51735000D01*
G75*
G02*
X33620000Y-51485001I0J249999D01*
G01*
X33620000Y-50634999D01*
G75*
G02*
X33869999Y-50385000I249999J0D01*
G01*
X34945001Y-50385000D01*
G75*
G02*
X35195000Y-50634999I0J-249999D01*
G01*
G37*
G36*
G01*
X32320000Y-50634999D02*
X32320000Y-51485001D01*
G75*
G02*
X32070001Y-51735000I-249999J0D01*
G01*
X30994999Y-51735000D01*
G75*
G02*
X30745000Y-51485001I0J249999D01*
G01*
X30745000Y-50634999D01*
G75*
G02*
X30994999Y-50385000I249999J0D01*
G01*
X32070001Y-50385000D01*
G75*
G02*
X32320000Y-50634999I0J-249999D01*
G01*
G37*
D18*
X21500000Y-68500000D03*
X21500000Y-66500000D03*
X21500000Y-64500000D03*
X21500000Y-62500000D03*
X21500000Y-60500000D03*
X21500000Y-58500000D03*
X21500000Y-56500000D03*
X21500000Y-54500000D03*
X21500000Y-52500000D03*
X21500000Y-50500000D03*
X21500000Y-48500000D03*
D19*
X21500000Y-46500000D03*
D18*
X46500000Y-68500000D03*
X46500000Y-66500000D03*
X46500000Y-64500000D03*
X46500000Y-62500000D03*
X46500000Y-60500000D03*
X46500000Y-58500000D03*
X46500000Y-56500000D03*
X46500000Y-54500000D03*
X46500000Y-52500000D03*
X46500000Y-50500000D03*
X46500000Y-48500000D03*
D19*
X46500000Y-46500000D03*
M02*
